<svg enable-background="new 0 0 786.5 301.3" viewBox="0 0 786.5 301.3" xmlns="http://www.w3.org/2000/svg"><path d="m735.7 285.4c-3.4 0-219.4 13.5-219.4-155.6 0-70.3-56.6-127.4-126.4-127.4s-126.4 57-126.4 127.4c0 169.1-209.4 155.6-212.7 155.6h-49.6v13.5h784v-13.5z" fill="#343434"/><g fill="#1091da"><path d="m390.3 14.6c-64.2 0-116.2 52-116.2 116.2s52 116.2 116.2 116.2 116.2-52 116.2-116.2c0-64.1-52-116.2-116.2-116.2zm.1 215.8c-38.9 0-72.8-21.2-90.1-52.5-7.8-14.1-12.2-30.2-12.2-47.3 0-55.1 45.8-99.8 102.3-99.8s102.3 44.7 102.3 99.8c0 17.1-4.4 33.2-12.2 47.3-17.3 31.3-51.1 52.5-90.1 52.5z"/><path d="m390.2 53.5-77.5 126.6c.2 0 77.6-69.7 77.6-69.7s77.6 69.7 77.6 69.7z"/></g></svg>