<svg enable-background="new 0 0 512 512" height="512" viewBox="0 0 512 512" width="512" xmlns="http://www.w3.org/2000/svg"><path d="m266.536 508.448c-149.163.411-262.294-112.522-262.94-251.489-.648-139.025 112.133-253.074 251.223-253.407 62.254-.15 117.414 19.89 164.677 60.136 48.982 41.713 78.573 94.838 86.604 158.843 10.271 81.884-13.753 153.133-71.604 211.832-48.686 49.401-109.034 72.945-167.96 74.085z" fill="#47bebe"/><g fill="#6c6d6d"><path d="m129.496 322.021c-.721-.602-2.831-1.638-3.583-.916-.521.5-.385 2.479 0 3.334 48.75 108.5 205.749 114.499 258.417.164.788-1.711.259-3.16-.001-3.332-.211-.14-2.011-.721-3.999 1-24.668 21.334-125.108 104.704-250.834-.25z"/><path d="m389.073 232.794c-8.489-47.976-72.011-70.165-108.394-10.55 32.525-15.094 79.461-8.939 108.394 10.55z"/><ellipse cx="161.925" cy="206.698" rx="38.998" ry="33.498"/></g></svg>