<svg enable-background="new 0 0 30 30" height="30" viewBox="0 0 30 30" width="30" xmlns="http://www.w3.org/2000/svg"><path d="m15.083 29.375c-7.9 0-14.327-6.428-14.327-14.327 0-7.9 6.427-14.327 14.327-14.327s14.327 6.427 14.327 14.327c0 7.899-6.427 14.327-14.327 14.327zm0-27.646c-7.344 0-13.318 5.975-13.318 13.318s5.975 13.318 13.318 13.318 13.317-5.974 13.317-13.317-5.973-13.319-13.317-13.319z" fill="#9db91e"/><circle cx="15.083" cy="15.048" fill="#fff" r="13.7"/><path d="m12.502 22.102.072-1.044.303-4.454.304-3.839c-.003.022-.032.039-.046.058l.004-.065-.009.001c-.031.198-1.125.354-2.471.348-.848-.002-1.594-.066-2.038-.164-.262-.058-.42-.126-.43-.201h-.008s.329 5.671.507 8.305c.032.475.062.854.08 1.079.108.324.501.498.908.586.24.054.487.078.685.087.072.001.135.003.19.002.046.001.093-.002.136-.001 1.761-.047 1.813-.698 1.813-.698z" fill="#fff"/><path clip-rule="evenodd" d="m12.93 15.455c.011.258-.053.502-.135.746-.082.238-.149.481-.211.726.092-.053.139-.153.241-.188.035.128-.053.203-.16.281.062.004.107.007.149.01.026.1-.067.085-.123.122.04.026.121.012.106.082-.015.074-.084.018-.127.046.039.069.165.107.093.217-.111.017-.098-.126-.198-.142.053.305.255.584.129.943-.081-.318-.158-.604-.237-.905-.078.121-.085.248-.119.364-.07.239-.122.478-.183.718-.025.104.014.16.121.17.134.011.267.02.399-.018.031.057.009.111.011.164.001.085-.039.117-.128.12-.721.021-1.294-.241-1.684-.824-.536-.808-.319-1.818.502-2.377.43-.295.908-.37 1.423-.296.027.003.054.012.084.021.015.003.03.011.047.02zm-.74 1.817c-.379.103-.759.2-1.137.304-.083.022-.086.078-.064.141.04.116.104.224.186.319.056.069.113.081.187.019.292-.242.573-.496.852-.759 0-.008.004-.018.008-.023-.012-.001-.023-.002-.032-.001zm.164-.368c-.009.009-.018.021-.028.029.001-.006.003-.017.004-.023-.11-.363-.223-.727-.331-1.092-.021-.065-.076-.066-.131-.055-.155.035-.28.115-.394.217-.052.045-.049.091.006.14.068.058.123.128.189.188.227.2.456.397.685.596zm-.132.1c-.281-.26-.563-.521-.848-.775-.062-.057-.125-.048-.181.019-.086.099-.156.198-.194.327-.034.096.005.129.092.152.177.048.356.098.537.146.193.055.386.119.594.131zm.09.344c-.292.289-.577.57-.859.849-.05.05-.014.091.021.122.106.104.235.178.382.219.079.022.123-.008.146-.089.09-.308.188-.617.282-.924.014-.052.049-.098.028-.177zm.122-.426c.011.001.019-.002.027 0 .016-.065.034-.13.051-.192.076-.302.157-.604.237-.907.02-.068.019-.127-.067-.15-.147-.043-.298-.042-.442-.006-.055.014-.104.043-.086.119.096.378.185.757.28 1.136zm-.247.214c-.419-.099-.798-.188-1.179-.28-.095-.021-.113.048-.123.11-.023.116-.021.237-.007.354.013.091.062.13.165.107.257-.061.52-.106.771-.178.112-.027.234-.028.373-.113z" fill="#99c02b" fill-rule="evenodd"/><path clip-rule="evenodd" d="m8.876 14.478c-.078-.26-.154-.517-.231-.771-.017-.056-.06-.054-.109-.041-.105.03-.188.092-.283.155-.045-.122-.039-.201.09-.273.689-.369 1.635-.015 1.87.694.138.417.105.801-.17 1.147-.322.411-.765.579-1.298.513-.086-.01-.168-.047-.25-.073-.132-.05-.148-.087-.107-.227.034-.021.053.015.078.022.132.042.156.028.194-.1.057-.188.12-.372.178-.556.01-.031.055-.07-.023-.107-.141.142-.287.288-.442.445-.046-.099-.016-.148.042-.198.116-.104.224-.214.355-.34-.168-.002-.298.076-.452.094.002-.136.121-.108.192-.136.079-.028.165-.04.252-.078-.09-.022-.182-.038-.267-.07-.069-.026-.193.006-.193-.135.169.037.319.097.482.113-.153-.229-.458-.335-.527-.623.202.178.404.356.619.545zm.328.065c.266-.03.51-.134.767-.195.045-.011.057-.046.044-.084-.039-.122-.093-.235-.266-.321-.184.188-.375.384-.565.581-.015.005-.034.01-.02.027.011.012.029.002.04-.008zm-.132.305c-.002-.01-.002-.022-.003-.031-.004 0-.007 0-.011.002.004.01.01.019.014.028.049.221.123.436.19.651.058.183.092.192.267.099.033-.018.063-.036.093-.058.072-.053.082-.107.01-.174-.164-.16-.323-.325-.487-.487-.019-.02-.04-.04-.073-.03zm.121-1.205c-.097-.103-.231-.053-.353-.053-.079 0-.097.048-.081.114.067.26.135.519.212.806.05-.159.074-.3.119-.432.046-.139.069-.284.103-.435zm-.067 1.016c.303.073.575.14.845.207.07.016.118 0 .123-.074.004-.081.008-.167.003-.248-.005-.059-.031-.108-.113-.088-.275.065-.549.13-.858.203zm-.061-.195c.147-.126.315-.264.475-.412.204-.187.188-.249-.073-.36-.004-.001-.008-.005-.011-.006-.089-.034-.144-.024-.174.078-.069.243-.149.483-.217.7zm-.081.396c-.01.001-.021.001-.031.001-.05.19-.099.384-.15.576-.081.296-.058.318.265.293.09-.009.123-.051.105-.123-.059-.25-.124-.497-.189-.747zm.173-.07c.21.188.407.365.605.539.049.042.094-.001.118-.028.057-.068.104-.142.125-.229.016-.059.001-.09-.062-.105-.162-.043-.322-.104-.487-.132-.093-.017-.174-.088-.299-.045z" fill="#99c02b" fill-rule="evenodd"/><g fill="none"><g clip-rule="evenodd" stroke="#737272" stroke-miterlimit="10"><ellipse cx="12.357" cy="15.135" rx=".161" ry=".155" stroke-width=".0171"/><ellipse cx="10.23" cy="15.987" rx=".194" ry=".183" stroke-width=".0204"/><path d="m9.556 18.916c-.002.125-.104.224-.231.224s-.231-.101-.231-.225c.001-.12.104-.218.232-.219.127 0 .23.101.23.22z" stroke-width=".0244"/><path d="m12.022 20.744c-.001.132-.112.24-.251.239-.136 0-.246-.109-.246-.24.001-.13.111-.237.246-.235.141 0 .25.107.251.236z" stroke-width=".0262"/><path d="m11.341 15.121c0 .068-.059.125-.13.125s-.129-.056-.129-.126c0-.065.06-.123.13-.123.072 0 .129.057.129.124z" stroke-width=".0136"/><circle cx="10.695" cy="13.892" r=".128" stroke-width=".0136"/></g><path d="m8.248 12.757.001.004c.016.097.643.264 1.85.309l-.16-.601c-1.084.048-1.68.198-1.691.288z"/><path d="m13.083 12.774c-.001-.104-.828-.307-2.341-.319l.068.624c1.477-.008 2.256-.196 2.273-.305z"/><path d="m10.151 12.461.161.612c.093.002.184.006.281.005l-.068-.623c-.128.003-.256.003-.374.006z"/></g><path d="m10.73 12.349.012.107c1.513.012 2.34.215 2.341.319-.017.109-.796.297-2.272.305l.006.056-.214.022-.009-.079c-.098 0-.188-.003-.281-.005l.015.057-.22-.026-.009-.034c-1.207-.045-1.834-.212-1.85-.309l-.001-.004c.011-.089.607-.24 1.69-.288l-.027-.105c-.834.038-1.77.146-1.771.396l.001.021.003.006c.079.311 1.678.399 2.52.401.85.003 2.473-.078 2.523-.395v-.018c.003-.325-1.569-.422-2.457-.427z" fill="#737272"/><path d="m10.525 12.456-.011-.106c-.122 0-.253.003-.391.008l.027.104c.119-.004.247-.004.375-.006z" fill="#737272"/><path d="m10.594 13.079.009.079.214-.022-.006-.056c-.05 0-.095.002-.146.001-.025 0-.046-.001-.071-.002z" fill="#737272"/><path d="m10.742 12.456-.012-.107-.52-4.796-.215.023.52 4.773.011.106.068.623c.025.001.046.002.07.002.052.001.097-.002.146-.001z" fill="#737272"/><path d="m10.124 12.357-.907-3.442c-.006-.026-.024-.049-.048-.065l-2.782-1.731-.114.184 2.747 1.708.892 3.353.027.105.16.601c.066.002.143.003.214.003l-.161-.612z" fill="#737272"/><path d="m10.107 13.104.22.026-.015-.057c-.071 0-.147-.001-.214-.003z" fill="#737272"/><path d="m13.136 12.784c-.032.198-1.127.354-2.472.349-1.346-.004-2.438-.166-2.469-.365h-.009s.33 5.671.507 8.304c.033.476.062.855.08 1.08.172.514 1.059.649 1.593.671.071.002.136.005.191.003.046.002.092-.003.137-.001 1.76-.046 1.812-.695 1.812-.695l.072-1.046.563-8.301z" fill="none" stroke="#737272" stroke-miterlimit="10" stroke-width=".1073"/><path d="m10.703 21.796-.335-.002c-.553-.018-1.467-.161-1.641-.691 0 0-.001 0-.001-.002h-.029c.031.477.059.854.079 1.079.17.517 1.059.654 1.593.673h.325c1.761-.043 1.815-.691 1.815-.691l.069-1.049-.016.001c-.036.133-.282.643-1.859.682z" fill="#737272"/><path d="m9.172 21.953c-.041-.047-.092-.116-.161-.081-.075.044-.04.124-.02.185.067.194.218.312.409.39.305.124.625.129.946.118-.17-.045-.342-.086-.507-.148-.266-.1-.484-.258-.667-.464z" fill="#fff"/><path clip-rule="evenodd" d="m11.124 19.025c0 .099-.086.182-.192.181-.105.002-.191-.082-.189-.181 0-.104.086-.185.19-.184.106.001.191.084.191.184z" fill="none" stroke="#737272" stroke-miterlimit="10" stroke-width=".0202"/><path d="m10.116 21.728-.31-.003c-.242 0-.437-.188-.435-.416l.001-.298c0-.229.195-.416.438-.416l.311.002c.239 0 .434.188.434.417l-.002.3c0 .226-.197.415-.437.414z" fill="#fcfcfc" stroke="#737272" stroke-miterlimit="10" stroke-width=".0536"/><path d="m9.432 21.102-.293-.003c-.227-.002-.412-.176-.411-.393l.001-.282c0-.217.188-.391.413-.389h.293c.228.001.413.176.412.391l-.001.284c-.001.217-.187.391-.414.392z" fill="#fcfcfc" stroke="#737272" stroke-miterlimit="10" stroke-width=".0506"/><path d="m10.041 20.393h-.257c-.197-.003-.357-.158-.356-.345l.001-.243c0-.19.163-.342.359-.341h.256c.197 0 .357.153.355.346v.239c0 .188-.162.346-.358.344z" fill="#fcfcfc" stroke="#737272" stroke-miterlimit="10" stroke-width=".0441"/><path d="m9.708 17.819h-.312c-.24.001-.437-.19-.435-.416l.001-.298c0-.229.196-.414.438-.413l.311-.001c.239.002.436.188.435.417l-.002.297c-.001.23-.198.415-.436.414z" fill="#fcfcfc" stroke="#737272" stroke-miterlimit="10" stroke-width=".0536"/><path d="m14.316 12.356c.038-.045.437-.442.896-.431.017.002.066.004.066.004-.368.05-.669.227-.864.406.184-.036.4-.067.634-.075.394-.363.898-.119.898-.119s-.516-.129-.797.115c.076 0 .151.001.228.006.361.021.735.155 1.029.323 0 0-.195-.894-1.282-.959-.936-.057-1.287.866-1.287.866.003-.003.219-.079.479-.136z" fill="#6f931e"/><path d="m16.406 12.585s-.432-.195-.966-.265c.238.269.51.318.51.318-.267 0-.535-.265-.598-.324-.229-.012-.457.003-.663.031.314.345.574.386.574.386-.258-.013-.563-.286-.639-.375-.231.033-.429.082-.557.118.359.358.604.379.604.379-.286.013-.611-.312-.669-.362-.065.02-.155.052-.155.055 0 0 .792.659 1.133.687.458.037 1.426-.648 1.426-.648z" fill="#6f931e"/><path d="m13.297 12.094c-.021-.065-.188-.708.097-1.166.013-.018.044-.067.044-.067-.168.405-.167.816-.104 1.121.074-.209.174-.449.304-.69-.133-.616.417-.983.417-.983s-.441.448-.361.88c.043-.077.091-.154.142-.229v-.001c.236-.352.595-.652.941-.85 0 0-1.024-.335-1.739.728-.616.915.135 1.858.135 1.858l-.024-.031c0-.007.05-.27.148-.57z" fill="#8fbd1b"/><path d="m14.776 10.109s-.457.318-.844.821c.415-.082.625-.329.625-.329-.159.272-.586.387-.685.413-.15.229-.271.468-.365.693.538-.113.736-.354.736-.354-.168.254-.631.405-.767.426-.103.256-.171.484-.211.639.579-.152.745-.39.745-.39-.159.297-.679.437-.765.463-.02.08-.037.188-.04.19l-.035.014s1.181-.425 1.413-.754c.311-.442.193-1.832.193-1.832z" fill="#8fbd1b"/><path d="m13.758 12.972c.066-.003.703.002 1.054.381.015.015.052.057.052.057-.332-.257-.713-.36-1.013-.375.177.12.373.271.564.451.604.031.807.631.807.631s-.307-.519-.726-.553c.061.06.122.125.177.19h.003c.265.307.455.714.552 1.083 0 0 .563-.866-.241-1.792-.693-.797-1.755-.338-1.755-.338l.039-.014c.002.002.235.114.487.279z" fill="#3d5215"/><path d="m15.228 14.836s-.182-.5-.549-.988c-.029.405.147.662.147.662-.214-.214-.213-.638-.211-.736-.174-.195-.368-.367-.553-.51-.025.526.145.768.145.768-.193-.218-.218-.683-.203-.813-.21-.16-.405-.28-.536-.356-.004.575.174.788.174.788-.236-.221-.235-.738-.237-.824-.07-.039-.165-.082-.167-.083l-.006-.038s.102 1.2.347 1.496c.331.396 1.649.634 1.649.634z" fill="#3d5215"/><path d="m22.875 22.881c-.404-.157-.525-.467-.521-.881.013-1.362.002-2.724.007-4.085.002-.143-.033-.191-.179-.178-.133.014-.27-.005-.402.005-.127.011-.165-.027-.162-.158.005-.953.001-1.906.001-2.857 0-1.163 0-2.325 0-3.487 0-.338.022-.669.243-.949.167-.212.382-.342.653-.372.096-.037.2.014.295-.029h.033c.003.004.004.012.009.014.615.137.876.621.875 1.215-.007 3.658-.004 7.315-.002 10.973 0 .176-.025.342-.117.495-.094.159-.254.223-.409.294-.109 0-.216 0-.324 0z" fill="#b9d049"/><path d="m20.324 9.92c.14.057.156.178.156.306v2.682c0 .383.001.765 0 1.148-.002.472-.301.846-.762.922-.138.022-.142.082-.142.188.002 2.283.001 4.565.001 6.85 0 .497-.126.683-.58.865-.087 0-.172 0-.259 0-.434-.147-.587-.467-.554-.902.007-.08 0-.162 0-.242 0-2.191-.001-4.381.003-6.57.001-.128-.033-.167-.162-.187-.463-.072-.767-.427-.77-.915-.005-1.292-.002-2.583 0-3.875 0-.116.021-.228.155-.271.057-.027.118-.008.179-.013.132.013.182.099.193.219.006.069.004.14.004.209 0 .818-.001 1.636.002 2.455 0 .092-.022.201.126.215.176.016.222-.019.222-.201.002-.802 0-1.604.001-2.406 0-.065-.001-.129.001-.194.007-.214.041-.258.244-.313h.065c.206.056.241.099.242.331.005.813.002 1.625.002 2.438v.129c.003.193.021.217.173.218.154 0 .177-.024.178-.214.002-.801 0-1.604 0-2.405 0-.064-.001-.129.002-.193.011-.199.054-.251.243-.303h.063c.208.056.243.099.244.33.003.823.002 1.646.003 2.468 0 .048.001.097 0 .144-.007.123.045.178.171.175.146-.005.178-.025.178-.181.002-.818.001-1.635.001-2.453 0-.086-.006-.172.008-.257.02-.107.062-.196.188-.209.06.004.123-.015.181.012z" fill="#b9d049"/><g clip-rule="evenodd" fill="#9db91e" fill-rule="evenodd"><path d="m5.023 6.937c.044.591.085 1.183.135 1.773.046.556.432.955.988 1.033.277.039.555.072.836.142-.237.029-.472.064-.71.09-.693.077-1.052.433-1.121 1.13-.028.286-.042.575-.063.862-.021.281-.044.562-.092.843-.025-.332-.049-.664-.074-.997-.02-.264-.029-.53-.06-.792-.073-.604-.46-.976-1.062-1.041-.254-.028-.508-.064-.762-.13.28-.035.562-.07.842-.107.526-.072.915-.446.972-.973.059-.555.088-1.113.131-1.67.003-.058.008-.114.012-.171.009.003.019.005.028.008z"/><path d="m13.873 24.081c.216-.025.432-.057.649-.081.539-.058.895-.432.932-.979.034-.504.073-1.005.134-1.509.037.487.077.974.108 1.461.038.606.368.96.976 1.03.21.025.417.053.631.114-.225.028-.446.06-.671.087-.557.065-.897.432-.934.995-.033.478-.071.954-.105 1.43-.002.011-.008.021-.024.082-.026-.351-.052-.651-.074-.954-.017-.2-.028-.401-.042-.601-.038-.519-.395-.889-.906-.951-.227-.025-.45-.057-.677-.085.001-.013.001-.025.003-.039z"/><path d="m14.372 5.215c.153-.018.306-.041.46-.058.382-.041.634-.306.661-.693.024-.357.052-.712.095-1.069.026.345.055.69.077 1.035.027.43.261.681.691.73.149.018.296.037.447.081-.159.02-.316.042-.476.062-.395.046-.636.306-.662.705-.023.338-.05.676-.075 1.013-.001.008-.005.016-.018.058-.019-.248-.037-.461-.052-.676-.012-.142-.02-.285-.03-.426-.027-.368-.28-.63-.643-.674-.161-.018-.319-.04-.479-.06.003-.009.003-.018.004-.028z"/><path d="m7.915 19.523c-.164.021-.328.043-.493.065-.345.045-.595.279-.639.625-.036.284-.046.575-.069.861-.006.091-.016.182-.054.272-.024-.337-.05-.672-.075-1.01-.036-.46-.257-.692-.719-.756-.147-.021-.294-.041-.442-.088.166-.022.332-.042.497-.067.396-.059.633-.314.663-.717.025-.34.049-.679.075-1.016 0-.006.006-.01.032-.046.022.279.04.527.06.776.01.132.014.266.036.394.054.329.291.558.622.604.171.025.341.046.512.069-.004.012-.004.023-.006.034z"/><path d="m26.172 19.718c-.021-.287-.041-.561-.063-.835-.009-.114-.014-.23-.033-.344-.057-.33-.292-.554-.624-.602-.17-.024-.34-.047-.515-.096.161-.023.32-.047.48-.068.387-.053.624-.281.669-.674.037-.332.051-.667.077-1 .002-.033.013-.065.036-.096.025.348.054.695.079 1.043.028.412.27.672.674.727.164.022.329.045.49.092-.169.024-.34.047-.51.07-.383.053-.626.318-.654.708-.025.351-.052.699-.077 1.051-.002.003-.008.004-.029.024z"/><path d="m26.395 9.606c-.102.014-.205.027-.305.041-.31.045-.48.229-.505.54-.018.235-.032.47-.08.709-.014-.194-.027-.388-.045-.583-.05-.518-.172-.638-.695-.691-.036-.005-.074-.012-.112-.05.108-.016.219-.03.327-.048.271-.045.44-.225.466-.5.021-.239.038-.48.091-.721.015.194.032.388.044.582.025.449.184.617.629.662.061.007.121.013.184.02-.001.013-.001.025.001.039z"/><path d="m3.497 16.966c-.019-.238-.036-.477-.058-.715-.03-.321-.205-.496-.526-.534-.098-.011-.193-.026-.293-.067.09-.013.18-.026.272-.037.344-.04.515-.209.548-.552.021-.222.038-.445.058-.669.001-.009.012-.018.028-.04.016.227.033.442.047.658.023.38.197.563.572.604.09.009.179.025.267.061-.103.014-.203.03-.305.042-.324.039-.505.226-.531.552-.018.231-.033.465-.048.696-.011 0-.021.001-.031.001z"/></g></svg>