<svg enable-background="new 0 0 40.4 138.5" viewBox="0 0 40.4 138.5" xmlns="http://www.w3.org/2000/svg"><path d="m33.4 19.5c-4.2 6.8-10.4 8.6-16 11.6-8.5 4.6-14.4 19.9-14.5 36.4 0 16.5 6 31.8 14.5 36.4 5.6 3 11.8 4.8 16 11.6 1.2 2 6.3 16.3 7 21.3v-9.6-120.2-5.4c-.8 5.3-5.7 15.8-7 17.9z" fill="#00917a"/><path d="m9.3 67.4 7.7 10-4.2-10 4.2-10z" fill="#353535"/><g fill="#fff"><path d="m25.2 41.2.5-.3c.3.6.7.9 1.2.9.2 0 .4 0 .5-.1.2-.1.3-.2.4-.4s.1-.3.1-.5-.1-.4-.2-.6c-.2-.3-.5-.6-1-.9-.5-.4-.8-.6-.9-.8-.2-.3-.3-.6-.3-.9 0-.2.1-.5.2-.7s.3-.4.5-.5.5-.2.7-.2c.3 0 .5.1.8.2.2.1.5.4.7.7l-.4.6c-.2-.3-.4-.5-.6-.6s-.3-.1-.5-.1-.4.1-.6.2c-.1.1-.2.3-.2.5 0 .1 0 .2.1.4.1.1.1.2.3.4.1.1.3.3.7.6.5.4.8.7 1 1s.3.6.3.9c0 .4-.2.8-.5 1.1s-.7.5-1.2.5c-.3 0-.7-.1-.9-.3-.2-.3-.5-.7-.7-1.1z"/><path d="m27.1 45.9c.7 0 1.2.2 1.6.7.4.4.6.9.6 1.5s-.2 1.1-.6 1.6-.9.7-1.6.7-1.2-.2-1.6-.7c-.4-.4-.6-1-.6-1.6s.2-1.1.6-1.5.9-.7 1.6-.7zm0 .5c-.5 0-.8.2-1.2.5-.3.3-.5.7-.5 1.2 0 .3.1.6.2.9s.4.5.6.6c.3.1.5.2.8.2s.6-.1.8-.2c.3-.1.5-.3.6-.6s.2-.6.2-.9c0-.5-.2-.9-.5-1.2-.2-.3-.6-.5-1-.5z"/><path d="m23.9 54h.5v.7c.2-.3.4-.5.6-.6.3-.2.6-.2.9-.2.2 0 .4 0 .6.1s.3.2.5.3.2.3.3.6c.2-.3.4-.6.7-.8s.6-.3.9-.3.6.1.8.2.4.4.5.6c.1.3.2.7.2 1.2v2.3h-.6v-2.1c0-.5 0-.8-.1-.9-.1-.2-.2-.3-.3-.4-.2-.1-.3-.2-.6-.2s-.5.1-.7.2-.4.4-.5.6c-.1.3-.2.7-.2 1.3v1.7h-.5v-2.2c0-.5 0-.9-.1-1-.1-.2-.2-.3-.3-.4-.2-.1-.3-.2-.6-.2s-.5.1-.7.2c-.2.2-.4.4-.5.6s-.2.7-.2 1.2v1.8h-.5z"/><path d="m23.9 62h.5v.7c.2-.3.4-.5.6-.6.3-.2.6-.2.9-.2.2 0 .4 0 .6.1s.3.2.5.3.2.3.3.6c.2-.3.4-.6.7-.8s.6-.3.9-.3.6.1.8.2.4.4.5.6c.1.3.2.7.2 1.2v2.3h-.6v-2.1c0-.5 0-.8-.1-.9-.1-.2-.2-.3-.3-.4-.2-.1-.3-.2-.6-.2s-.5.1-.7.2-.4.4-.5.6c-.1.3-.2.7-.2 1.3v1.7h-.5v-2.2c0-.5 0-.9-.1-1-.1-.2-.2-.3-.3-.4-.2-.1-.3-.2-.6-.2s-.5.1-.7.2c-.2.2-.4.4-.5.6s-.2.7-.2 1.2v1.8h-.5z"/><path d="m29.2 70v4.2h-.5v-.7c-.2.3-.5.5-.8.6s-.6.2-.9.2c-.6 0-1.1-.2-1.5-.7-.4-.4-.6-1-.6-1.6s.2-1.1.6-1.6c.4-.4.9-.7 1.6-.7.3 0 .7.1.9.2.3.1.5.4.7.7v-.6zm-2.2.4c-.3 0-.6.1-.8.2s-.5.4-.6.6-.2.6-.2.9.1.6.2.9c.2.3.4.5.6.6.3.2.5.2.8.2s.6-.1.9-.2c.3-.2.5-.4.6-.6.1-.3.2-.5.2-.9 0-.5-.2-.9-.5-1.2s-.7-.5-1.2-.5z"/><path d="m26.3 78h.6v.6c.2-.2.3-.4.5-.5s.4-.2.6-.2.3 0 .5.1l-.3.5c-.1 0-.2-.1-.3-.1-.2 0-.4.1-.5.2-.2.2-.3.4-.4.7-.1.2-.1.7-.1 1.5v1.4h-.6z"/><path d="m27.1 84.3c.1 0 .2 0 .3.1s.1.2.1.3 0 .2-.1.3-.2.1-.3.1-.2 0-.3-.1-.1-.2-.1-.3 0-.2.1-.3.2-.1.3-.1zm-.3 1.7h.5v4.2h-.5z"/><path d="m27.1 93.9c.7 0 1.2.2 1.6.7.4.4.6.9.6 1.5s-.2 1.1-.6 1.6-.9.7-1.6.7-1.2-.2-1.6-.7c-.4-.4-.6-1-.6-1.6s.2-1.1.6-1.5.9-.7 1.6-.7zm0 .5c-.5 0-.8.2-1.2.5-.3.3-.5.7-.5 1.2 0 .3.1.6.2.9s.4.5.6.6c.3.1.5.2.8.2s.6-.1.8-.2c.3-.1.5-.3.6-.6s.2-.6.2-.9c0-.5-.2-.9-.5-1.2-.2-.3-.6-.5-1-.5z"/></g></svg>