<svg enable-background="new 0 0 120.2 37.5" viewBox="0 0 120.2 37.5" xmlns="http://www.w3.org/2000/svg"><path d="m107.7 30.5c-6.8-4.2-8.6-10.4-11.6-16-4.6-8.5-19.9-14.4-36.4-14.5-16.5 0-31.8 6-36.4 14.5-3 5.6-4.8 11.8-11.6 16-2 1.2-6.7 2.2-11.7 2.9v4.1h120.2v-4c-5.4-.8-10.5-1.7-12.5-3z" fill="#343434"/><path d="m69.7 6.4-10 4.2-10-4.2 10 7.7z" fill="#878787"/><g fill="#fff"><path d="m49.4 17.1h.8v8.6h-.9v-8.6z"/><path d="m52.1 19.4h.8v1.1c.3-.4.7-.8 1.1-1s.8-.3 1.3-.3.9.1 1.3.4c.4.2.6.6.8 1s.3 1 .3 1.9v3.3h-.8v-3c0-.7 0-1.2-.1-1.5-.1-.4-.3-.7-.5-1-.3-.2-.6-.3-1.1-.3s-.9.2-1.3.5-.7.7-.8 1.2c-.1.3-.1.9-.1 1.7v2.3h-.8z"/><path d="m62 16.9v.8c-.3-.1-.6-.2-.8-.2s-.3 0-.4.1-.2.1-.2.2 0 .3 0 .7v.9h1.3v.7h-1.3v5.7h-.8v-5.7h-.8v-.7h.8v-1c0-.5 0-.8.1-1s.2-.4.4-.5.4-.2.7-.2.6.1 1 .2z"/><path d="m66.2 19.2c1 0 1.8.4 2.4 1.1.6.6.9 1.4.9 2.3s-.3 1.7-.9 2.3c-.6.7-1.4 1-2.4 1s-1.8-.3-2.4-1-.9-1.4-.9-2.3.3-1.6.9-2.3 1.4-1.1 2.4-1.1zm0 .8c-.7 0-1.3.3-1.8.8s-.7 1.1-.7 1.8c0 .5.1.9.3 1.3s.5.7.9.9.8.3 1.3.3.9-.1 1.3-.3.7-.5.9-.9.3-.8.3-1.3c0-.7-.2-1.3-.7-1.8-.6-.5-1.2-.8-1.8-.8z"/></g></svg>