<svg enable-background="new 0 0 201.815 69.306" height="69.306" viewBox="0 0 201.815 69.306" width="201.815" xmlns="http://www.w3.org/2000/svg"><path d="m169.876 45.745c.174-.134.344-.271.521-.399 1.116-.801 2.065-.625 2.943.566.208-.175.407-.358.622-.521.499-.379 1.06-.566 1.693-.514.88.075 1.339.562 1.34 1.446 0 .693-.195 1.355-.336 2.025-.18.859-.367 1.717-.524 2.58-.065.364-.226.52-.602.511-.512-.013-.582-.064-.48-.57.216-1.075.445-2.148.668-3.223.067-.322.15-.643.192-.968.076-.602-.262-.967-.862-.895-.894.11-1.513.608-1.834 1.454-.263.696-.375 1.432-.534 2.154-.112.509-.208 1.021-.325 1.528-.104.443-.611.687-.99.477-.234-.129-.111-.332-.074-.511.258-1.264.514-2.526.779-3.787.085-.407.236-.844-.152-1.148-.428-.336-.893-.148-1.317.064-.654.328-1.016.898-1.232 1.576-.293.917-.413 1.874-.637 2.807-.02.08-.025.163-.043.243-.189.873-.209.884-1.223.683.272-1.339.543-2.679.816-4.019.104-.51.209-1.021.321-1.529.186-.848.325-.914 1.251-.606-.074.196-.132.389.019.576z" fill="#008dd1"/><g fill="#008cd1"><path d="m186.765 45.11c-.026.237-.053.476-.088.775.34-.053.483-.306.691-.448.533-.367 1.097-.618 1.764-.56.961.085 1.601.778 1.444 1.73-.244 1.485-.592 2.954-.88 4.434-.095.486-.45.404-.765.379-.45-.037-.308-.385-.261-.626.219-1.13.46-2.256.693-3.383.022-.106.059-.212.076-.319.193-1.12-.299-1.556-1.399-1.223-.735.221-1.193.75-1.486 1.437-.271.636-.377 1.315-.521 1.984-.116.536-.25 1.069-.327 1.61-.06.415-.259.558-.659.536-.475-.024-.53-.062-.436-.535.208-1.048.432-2.093.65-3.139.14-.671.285-1.34.425-2.01.168-.79.166-.79 1.079-.642z"/><path d="m140.541 50.185c.837-1.517 1.645-2.979 2.451-4.441.416-.755.416-.755 1.352-.675.131.212-.043.357-.129.509-.999 1.768-2.008 3.53-3.009 5.298-.182.32-.352.584-.804.57-.674-.022-.722-.03-.835-.719-.266-1.624-.533-3.248-.798-4.871-.018-.108-.032-.218-.039-.327-.014-.216-.067-.443.258-.501.421-.076.693.024.751.378.228 1.407.432 2.819.643 4.229.025.171-.021.366.159.55z"/><path d="m194.221 42.813c-.017.505-.156.946-.247 1.396-.147.729-.137.735.635.827.05.006.098.04.147.062-.026.702-.024.729-.593.75-.354.013-.552.1-.625.478-.229 1.183-.5 2.357-.728 3.54-.104.541-.012.638.572.741.19.035.406.003.395.285-.011.248-.019.517-.347.567-.409.063-.823.087-1.216-.078-.491-.207-.669-.581-.55-1.228.157-.861.347-1.718.523-2.576.062-.295.132-.588.188-.884.073-.388.296-.839-.418-.872-.211-.01-.184-.231-.168-.396.02-.207.094-.416.33-.387.578.071.729-.298.747-.731.035-.867.599-1.22 1.355-1.494z"/></g><path d="m151.616 51.432c-.54.008-.629-.085-.513-.663.338-1.688.696-3.373 1.048-5.059.185-.884.364-1.768.562-2.647.096-.432.617-.66.994-.455.2.108.108.278.077.431-.318 1.554-.637 3.107-.957 4.66-.222 1.071-.446 2.141-.664 3.212-.066.324-.171.589-.547.521z" fill="#008cd0"/><path d="m53.221 48.82c-.138.082-.138.236-.188.364-.154-.129-.157-.311-.17-.488-.08-.198.03-.221.186-.202.079.097.18.183.172.326z" fill="#d8d8d7"/><path d="m53.049 48.494c-.062.067-.124.135-.186.202-.135-.153-.159-.343-.169-.535.064-.066.128-.064.188.008.056.108.111.216.167.325z" fill="#c0c0c0"/><path d="m52.882 48.168c-.062-.003-.125-.005-.188-.008-.101-.061-.163-.176-.042-.218.128-.043.204.095.23.226z" fill="#767675"/><g fill="#8c8c8c"><path d="m53.221 48.82c2.211 3.44 3.962 7.079 4.699 11.139.307 1.689.366 3.388-.104 5.062-.529 1.889-1.595 3.303-3.586 3.821-.948.247-1.906.153-2.861.004-4.538-.711-8.694-2.437-12.622-4.761-4.178-2.474-7.922-5.514-11.479-8.801-7.246-6.694-13.438-14.235-18.46-22.741-3.74-6.335-6.145-13.144-7.444-20.359-.386-2.139-.563-4.3-.388-6.477.08-.99.266-1.957.662-2.872.766-1.766 2.111-2.599 4.029-2.518 1.141.048 2.214.371 3.26.797 1.685.687 3.237 1.615 4.748 2.618.815.542.814.543 1.511-.108 2.594-2.428 6.263-2.653 9.037-.555 2.299 1.737 3.223 4.579 2.384 7.338-.314 1.035-.823 1.971-1.464 2.837-.098.132-.198.271-.325.37-3.342 2.604-7.561 2.299-10.052-.669-1.388-1.652-1.85-3.576-1.48-5.7.032-.189.063-.379.101-.568.029-.152-.008-.274-.151-.341-1.45-.676-2.918-1.288-4.575-1.084-1.221.151-2.066.824-2.598 1.914-.415.853-.586 1.764-.635 2.703-.136 2.584.365 5.081 1.083 7.54 1.674 5.736 4.358 10.996 7.585 15.999 1.971 3.054 4.307 5.825 6.632 8.603 3.528 4.215 7.217 8.282 11.405 11.86 3.053 2.608 6.28 4.978 9.822 6.892 1.767.955 3.596 1.761 5.584 2.145.896.173 1.801.225 2.703.075 1.417-.235 2.475-.995 3.145-2.274.545-1.041.754-2.17.811-3.33.129-2.608-.394-5.13-1.046-7.634-.048-.184-.08-.373-.119-.561-.065-.186-.134-.376.188-.364z"/><path d="m75.305 23.431c-.282 1.312-.558 2.594-.831 3.875-.761 3.566-1.521 7.132-2.281 10.699-.134.623-.139.634-.793.627-.709-.008-1.422.054-2.176-.052.4-1.902.79-3.776 1.188-5.648.908-4.264 1.821-8.526 2.73-12.789.166-.777.162-.779.927-.781.714-.001 1.429.01 2.142-.005.279-.006.472.076.596.333.084.172.195.33.294.496 2.725 4.572 5.448 9.144 8.176 13.714.137.23.224.501.541.712.23-1.065.457-2.091.676-3.118.818-3.834 1.644-7.667 2.438-11.506.096-.461.232-.665.732-.636.709.042 1.423.011 2.18.011.047.645-.17 1.209-.29 1.779-1.176 5.58-2.371 11.155-3.56 16.732-.162.76-.158.761-.94.763-.604.002-1.214-.047-1.811.014-.591.061-.872-.208-1.15-.68-1.877-3.193-3.781-6.369-5.677-9.551-.885-1.485-1.767-2.971-2.655-4.454-.11-.184-.179-.405-.456-.535z"/><path d="m69.604 19.403c-.049.741-.275 1.419-.395 2.116-.041.239-.168.323-.388.323-.191 0-.384.002-.576.002-3.649 0-7.3 0-10.95.001-.794 0-.792.003-.952.756-.303 1.42-.609 2.84-.911 4.261-.034.158-.047.321-.08.554h12.159c-.056.806-.263 1.507-.415 2.219-.041.192-.149.278-.339.278-.22 0-.439.003-.658.003-3.486 0-6.972 0-10.457 0-.85 0-.854 0-1.039.852-.341 1.581-.679 3.162-1.012 4.744-.039.184-.042.375-.069.638h12.794c-.066.786-.287 1.468-.405 2.167-.041.244-.173.317-.391.314-.137-.001-.274.002-.412.002-4.748 0-9.495.001-14.244-.002-.242 0-.494.054-.766-.098.329-1.566.658-3.145.994-4.723.98-4.61 1.965-9.219 2.948-13.829.13-.61.134-.62.729-.621 4.803-.003 9.605-.001 14.409 0 .133.002.266.027.426.043z"/><path d="m137.323 19.36c-.062.406-.265.605-.41.83-3.857 5.934-7.725 11.862-11.572 17.801-.299.461-.602.719-1.179.653-.488-.055-.986-.011-1.48-.012-.834-.001-.84 0-1.021-.773-.902-3.87-1.8-7.741-2.699-11.612-.466-2.002-.929-4.005-1.398-6.006-.062-.266-.134-.526-.109-.881.947 0 1.874.008 2.8-.003.464-.006.422.369.479.631.299 1.337.573 2.68.856 4.021.778 3.674 1.556 7.347 2.335 11.021.034.159.053.324.202.44.263-.174.368-.469.526-.718 3.095-4.891 6.193-9.78 9.263-14.686.33-.527.667-.781 1.306-.72.675.064 1.362.014 2.101.014z"/><path d="m172.669 19.36c-.155.732-.309 1.342-.406 1.961-.064.402-.239.538-.646.531-1.4-.021-2.8-.008-4.2-.008-.658 0-1.318.019-1.977-.007-.426-.017-.613.104-.708.563-.683 3.329-1.404 6.651-2.111 9.976-.399 1.877-.778 3.758-1.2 5.629-.154.688-.023.621-.801.627-.684.005-1.366.001-2.178.001 1.15-5.606 2.367-11.125 3.541-16.758-2.43 0-4.798 0-7.234 0 .087-.824.272-1.527.434-2.234.043-.192.148-.279.339-.278.138 0 .274-.003.412-.003h16.061z"/><path d="m170.956 38.633c.278-1.332.531-2.564.793-3.795 1.025-4.825 2.04-9.652 3.089-14.472.254-1.17-.05-.992 1.233-1.001.571-.004 1.146-.052 1.749.048-.013.82-.265 1.579-.426 2.349-1.126 5.364-2.272 10.724-3.414 16.084-.034.161-.093.317-.113.48-.03.245-.175.31-.395.309-.792-.005-1.586-.002-2.516-.002z"/><path d="m49.946 22.544c-.179-1.448-.972-2.415-2.35-2.887-.708-.243-1.447-.297-2.191-.297-3.624 0-7.247 0-10.871 0-.773 0-.771.003-.935.772-.801 3.753-1.605 7.505-2.404 11.258-.508 2.384-1.008 4.77-1.529 7.243.813 0 1.577-.02 2.341.008.413.015.555-.139.636-.542.469-2.31.973-4.613 1.463-6.918.147-.693.146-.7.836-.701 2.251-.003 4.502-.003 6.753.001.329.001.661.013.985.06 1.032.15 1.603.689 1.866 1.707.077.296.094.595.104.896.032.856-.135 1.693-.255 2.534-.112.786-.296 1.566-.248 2.369.019.326.081.595.508.588.848-.013 1.696-.004 2.624-.004-.428-1.085-.188-2.111-.071-3.139.133-1.17.477-2.314.417-3.507-.064-1.28-.518-2.293-1.879-2.679.176-.188.397-.231.596-.321 2.461-1.112 3.938-3.746 3.604-6.441zm-6.312 5.371c-.299.036-.602.071-.901.072-2.442.006-4.884.007-7.326.003-.591-.001-.604-.017-.488-.587.342-1.664.7-3.325 1.04-4.988.082-.4.246-.593.703-.582 1.288.032 2.578.011 3.868.011 1.152 0 2.305-.005 3.457.002.577.004 1.152.049 1.695.269.818.331 1.255.932 1.301 1.822.106 2.077-1.282 3.731-3.349 3.978z"/><path d="m114.824 26.148c-.107-3.44-2.064-5.934-5.378-6.827-1.634-.44-3.295-.494-4.978-.351-8.389.717-12.099 8.069-11.555 13.478.277 2.765 1.628 4.778 4.232 5.878 1.468.62 3.01.803 4.586.792.74-.008 1.477-.051 2.214-.151 7.656-1.052 11.038-7.696 10.879-12.819zm-10.234 10.239c-.399.093-.808.159-1.215.205-.381.042-.766.04-1.149.058-.746.025-1.481-.069-2.202-.24-2.926-.695-4.516-2.915-4.256-5.944.096-1.124.33-2.222.767-3.267 1.433-3.424 4.041-5.282 7.686-5.744 1.377-.174 2.738-.091 4.062.346 2.258.745 3.542 2.473 3.619 4.852.156 4.757-2.794 8.687-7.312 9.734z"/><path d="m200.893 26.032c-.183-3.425-2.071-5.83-5.392-6.718-2.049-.548-4.121-.536-6.198-.172-7.422 1.299-10.609 7.944-10.35 12.93.168 3.231 1.987 5.583 5.084 6.548 1.216.379 2.465.512 3.734.497.768 0 1.531-.049 2.295-.155 7.774-1.077 11.093-7.948 10.827-12.93zm-2.882 1.109c-.285 6.004-4.492 9.509-9.688 9.499-1.192.017-2.351-.157-3.443-.654-1.837-.836-2.841-2.284-2.989-4.283-.374-5.03 2.829-9.221 7.765-10.16 1.357-.259 2.726-.241 4.082.079 2.79.656 4.408 2.66 4.273 5.519z"/><path d="m152.503 37.911c-.867-3.623-1.732-7.247-2.603-10.869-.562-2.344-1.129-4.687-1.698-7.029-.157-.644-.166-.646-.791-.651-.658-.005-1.319.028-1.976-.011-.468-.028-.74.14-.999.532-4.027 6.082-8.073 12.151-12.107 18.229-.091.136-.313.26-.138.523.747 0 1.516-.031 2.279.012.452.024.69-.152.92-.516.968-1.528 1.976-3.032 2.944-4.561.243-.383.498-.563.981-.559 2.717.027 5.433.012 8.149.014.674.001.675.006.831.7.332 1.47.671 2.938.987 4.412.075.351.205.517.594.505.875-.026 1.752-.008 2.688-.008.057-.3-.01-.509-.061-.723zm-5.717-7.368c-2.105.004-4.211.002-6.477.002 1.819-2.86 3.569-5.611 5.423-8.523.649 2.933 1.255 5.669 1.868 8.44-.321.123-.571.081-.814.081z"/></g><path d="m130.688 45.751c-.122-1.949-1.239-3.086-3.186-3.167-.849-.035-1.699-.02-2.55-.011-.594.006-.599.017-.729.636-.333 1.581-.657 3.164-.988 4.745-.201.966-.417 1.928-.608 2.896-.101.513-.052.565.48.58.493.014.987.003 1.48.003 0-.002 0-.004 0-.006.466 0 .934.019 1.398-.004 1.242-.061 2.366-.397 3.24-1.362 1.116-1.23 1.565-2.668 1.463-4.31zm-2.658 3.961c-.279.23-.588.4-.939.488-1.017.252-2.046.291-3.182.185.458-2.202.893-4.287 1.32-6.374.058-.278.181-.447.486-.439.736.021 1.475-.05 2.211.096.717.142 1.166.566 1.411 1.229.557 1.506-.067 3.789-1.307 4.815z" fill="#008dd1"/><path d="m135.361 44.907c-1.109-.165-2.082.166-2.812 1.023-.821.961-1.183 2.103-1.044 3.364.098.894.5 1.62 1.357 2.021 1.554.727 3.499-.185 4.018-1.929-.842-.131-.849-.136-1.285.427-.279.359-.63.615-1.055.757-.879.294-1.684-.167-1.889-1.064-.193-.851-.066-1.011.805-1.017.165-.001.329 0 .494 0 .934 0 1.866-.001 2.8 0 .251 0 .476.001.581-.318.452-1.363-.542-3.052-1.97-3.264zm.572 2.753c-1.008-.003-2.017-.001-3.129-.001.288-1.023.789-1.658 1.695-1.893 1.001-.259 1.89.486 1.854 1.518-.011.286-.162.377-.42.376z" fill="#008cd1"/><path d="m146.217 48.492c1.179-.008 2.357-.012 3.536.002.383.004.562-.146.553-.524-.007-.355.017-.716-.028-1.065-.149-1.139-1.002-1.94-2.148-2.022-1.117-.078-2.051.312-2.738 1.203-.777 1.005-1.059 2.159-.877 3.408.111.768.489 1.39 1.202 1.766 1.569.828 3.634-.09 4.135-1.853-.538-.209-.987-.198-1.295.397-.095.185-.289.331-.462.461-1.1.824-2.272.354-2.506-.999-.121-.699-.073-.768.628-.774zm1.319-2.739c.958-.222 1.814.533 1.768 1.508-.014.273-.123.397-.393.396-1.006-.002-2.01 0-3.12 0 .271-1.061.808-1.687 1.745-1.904z" fill="#008cd1"/><path d="m163.438 45.286c-.178.119-.307.318-.544.346-.09-.604-.17-.661-.651-.611-.331.033-.381.253-.433.503-.256 1.236-.514 2.47-.771 3.705-.28 1.343-.563 2.684-.837 4.027-.042.203-.152.446.099.594.354.208.862-.014.962-.425.096-.399.135-.814.244-1.209.147-.529.131-1.108.423-1.626 1.227 1.256 2.427 1.306 3.596.104 1.162-1.194 1.504-2.673 1.108-4.266-.372-1.49-1.913-2.003-3.196-1.142zm1.429 4.697c-.459.631-1.107.837-1.735.593-.647-.251-.896-.765-.876-1.434.003-.082.001-.164.001-.246.001-.935.259-1.786.868-2.507.416-.492.928-.769 1.596-.571.647.191.895.71.958 1.308.112 1.05-.196 2.011-.812 2.857z" fill="#008dd1"/><path d="m157.912 44.902c-1.163-.149-2.172.18-2.94 1.103-.657.789-.96 1.71-.968 2.654-.116 2.027 1.104 2.879 2.563 2.9 1.003.016 1.874-.4 2.511-1.198.837-1.05 1.082-2.268.85-3.563-.188-1.045-.974-1.762-2.016-1.896zm.131 5.096c-.52.631-1.323.853-1.997.616-.615-.217-.984-.866-.99-1.872.038-.644.201-1.385.646-2.042.268-.396.61-.698 1.063-.868.954-.359 1.874.099 2.085 1.101.239 1.14-.075 2.174-.807 3.065z" fill="#008cd1"/><path d="m182.273 45.032c-1.11-.412-2.489-.058-3.292.888-.883 1.041-1.209 2.262-1.011 3.606.153 1.042.839 1.699 1.848 1.967 1.233.327 3.038-.469 3.514-2.087-.596-.225-1.046-.153-1.341.425-.071.14-.215.249-.341.353-.521.427-1.107.626-1.756.355-.677-.282-.822-.905-.893-1.553-.038-.348.121-.512.474-.495.191.008.383-.001.575-.001 1.042 0 2.084.003 3.125-.005.207-.001.436.053.551-.23.462-1.127-.282-2.79-1.453-3.223zm-.321 2.629c-.869.004-1.738.001-2.71.001.279-1.065.813-1.69 1.753-1.91.716-.167 1.399.208 1.657.87.299.766.119 1.035-.7 1.039z" fill="#008cd1"/></svg>