<svg enable-background="new 0 0 867 241" height="241" viewBox="0 0 867 241" width="867" xmlns="http://www.w3.org/2000/svg"><path d="m747.45 234.463c62.771 0 113.965-51.195 113.965-113.965 0-62.768-51.193-113.961-113.965-113.961s-113.963 51.193-113.963 113.961c0 62.77 51.197 113.965 113.963 113.965z" fill="#d95455"/><g fill="#fff"><path d="m658.566 112.906h-.497c-2.459 0-4.604 1.447-6.437 4.344.396-5.012.979-8.191 1.744-9.543.768-1.354 2.381-2.029 4.842-2.029h.938l.816-9.705c1.104-13.16 2.872-22.636 5.3-28.433 3.003-7.204 6.328-10.806 9.976-10.806 1.42 0 2.643.783 3.663 2.349 1.023 1.565 1.536 3.465 1.536 5.696 0 2.271-1.063 4.875-3.192 7.812-.596-5.989-1.945-8.985-4.062-8.985-3.746 0-6.429 9.672-8.044 29.017l-1.09 13.06h8.64c3.943 0 6.84-.504 8.688-1.525-.793 4.15-1.695 6.648-2.711 7.492-1.016.838-3.627 1.262-7.836 1.262h-7.401l-4.208 50.393c-.411 4.855-.618 9.105-.618 12.744 0 2.312.215 4.406.645 6.285-1.65 1.293-2.923 1.938-3.812 1.938-1.37 0-2.058-1.815-2.058-5.463 0-2.854.272-7.553.817-14.096z"/><path d="m699.761 116.371c.05.939.073 1.781.073 2.525 0 11.314-1.617 21.182-4.854 29.602-3.234 8.418-7.021 12.627-11.362 12.627-3.314 0-6.021-2.516-8.105-7.549-2.09-5.027-3.135-11.561-3.135-19.584 0-9.125 1.351-17.037 4.05-23.73 2.697-6.699 5.878-10.043 9.543-10.043.562 0 1.153.176 1.783.527-.414-1.766-.62-3.26-.62-4.479 0-1.887.272-3.688.816-5.408 4.026.781 7.379 5.688 10.053 14.703 2.738 4.426 5.595 6.637 8.564 6.637 1.931 0 4.019-1.547 6.265-4.639l1.237 4.99c-2.624 4.35-5.313 6.52-8.071 6.52-1.832 0-3.912-.898-6.237-2.699zm-5.619-4.994c-1.372-.977-2.634-2.547-3.785-4.701-.845-.42-1.546-.637-2.105-.645-2.806.01-5.294 3.008-7.463 8.994s-3.254 12.818-3.256 20.495c.002 5.559.658 10.131 1.969 13.709 1.312 3.58 2.999 5.375 5.062 5.377 2.785-.002 5.188-3.345 7.198-10.021 2.016-6.672 3.021-14.629 3.022-23.869-.004-3.21-.216-6.321-.642-9.339z"/><path d="m713.252 159.246c-1.128 1.252-2.029 1.879-2.709 1.879-1.691 0-2.54-1.76-2.54-5.285 0-1.801.3-6.285.896-13.449l1.235-14.629c.762-8.688 1.143-15.127 1.143-19.322 0-2.27-.273-4.168-.819-5.689 1.734-1.41 3.146-2.115 4.234-2.115 1.152 0 1.73 1.742 1.73 5.225 0 2.156-.408 7.814-1.229 16.975l-1.398 17.092c3.114-14.369 6.25-25.537 9.41-33.506 3.156-7.973 6.021-11.976 8.594-11.976.906 0 1.69.618 2.352 1.854.659 1.242.987 2.746.987 4.512 0 2.74-1.252 6.383-3.761 10.924-.628-3.094-1.518-4.643-2.673-4.643-2.095 0-4.763 5.287-8.01 15.859-2.013 6.578-3.759 13.358-5.242 20.353-1.481 6.989-2.225 11.975-2.225 14.946z"/><path d="m752.963 150.551c-.71-10.492-1.971-20.877-3.775-31.158-1.807-10.273-3.758-18.117-5.854-23.533 1.221-2.437 2.475-3.649 3.764-3.649 1.104 0 2.025 1.186 2.764 3.56.729 2.383 1.651 7.152 2.759 14.316 1.733 11.238 3.026 21.42 3.887 30.543 5.579-20.947 8.603-39.254 9.062-54.939 2.888 1.021 4.332 3.312 4.332 6.874 0 3.769-1.3 11.517-3.897 23.222-2.6 11.711-5.4 22.438-8.403 32.188-3.468 11.24-6.907 20.096-10.324 26.578-3.415 6.48-6.354 9.719-8.812 9.719-2.21 0-3.315-2.213-3.315-6.635 0-1.803.196-3.916.597-6.344.907 1.332 2.026 1.998 3.364 1.998 4.822-.006 9.446-7.584 13.851-22.74z"/><path d="m798.27 107.617c.051.941.07 1.785.07 2.529 0 11.314-1.615 21.182-4.852 29.6-3.234 8.422-7.021 12.627-11.362 12.627-3.315 0-6.021-2.514-8.104-7.545-2.091-5.031-3.136-11.562-3.136-19.588 0-9.125 1.352-17.035 4.051-23.73 2.693-6.717 5.88-10.062 9.543-10.062.562 0 1.152.176 1.782.527-.413-1.765-.62-3.25-.62-4.465 0-1.879.271-3.682.815-5.402 4.027.783 7.376 5.679 10.052 14.693 2.739 4.434 5.598 6.648 8.564 6.648 1.933 0 4.021-1.547 6.264-4.645l1.239 4.994c-2.624 4.346-5.313 6.52-8.07 6.52-1.832.002-3.911-.898-6.236-2.701zm-5.621-4.992c-1.372-.977-2.637-2.543-3.787-4.703-.846-.43-1.544-.643-2.104-.65-2.808.012-5.295 3.016-7.464 9-2.169 5.99-3.254 12.822-3.258 20.494.004 5.562.658 10.135 1.972 13.713 1.312 3.58 2.995 5.371 5.062 5.377 2.79-.006 5.189-3.346 7.202-10.02 2.015-6.674 3.021-14.631 3.021-23.871-.005-3.209-.221-6.324-.644-9.34z"/><path d="m828.15 114.719c-2.279 11.162-4.82 20.23-7.627 27.199-2.81 6.971-5.321 10.455-7.552 10.455-1.802 0-3.261-1.502-4.383-4.518-1.124-3.013-1.685-6.924-1.685-11.736 0-6.184.876-17.531 2.626-34.043.477-4.467.719-7.295.719-8.47 0-1.176-.159-2.445-.472-3.814l3.417-.062c1.469 0 2.202 1.35 2.202 4.048 0 1.683-.479 6.524-1.438 14.499-.296 2.383-.485 4.023-.568 4.924l-.372 3.576c-.726 7.148-1.089 12.6-1.089 16.354 0 5.783.844 8.674 2.523 8.674 2.757 0 6.255-8.09 10.498-24.266 3.467-13.168 5.201-22.566 5.201-28.156 0-.781-.104-1.562-.3-2.344 1.353-.898 2.5-1.35 3.438-1.35 1.452 0 2.18 1.057 2.18 3.166 0 .508-.063 1.25-.194 2.227-.068.587-.226 2.013-.474 4.283-.034.432-.198 2.02-.495 4.764-.215 1.914-.371 3.439-.473 4.572l-.246 2.812c-.545 6.445-.814 12.48-.814 18.107 0 8.598.875 12.896 2.623 12.896 3.861 0 8.766-12.894 14.707-38.679l2.078 2.928c-6.768 30.883-12.956 46.322-18.566 46.322-3.779 0-5.669-7.772-5.669-23.321.005-2.936.071-6.62.205-11.047z"/></g><g fill="#a98aac"><g stroke="#a98aac" stroke-miterlimit="10"><path d="m102.105 132.061c-3.873 6.586-8.646 12.181-14.32 16.787-5.676 4.607-10.614 6.908-14.819 6.908-3.208 0-5.774-1.168-7.695-3.52-1.923-2.346-2.882-5.473-2.882-9.369 0-7.773 2.867-14.613 8.602-20.527 5.733-5.91 12.368-8.867 19.903-8.867 4.57 0 9.515 1.166 14.843 3.502.785-2.309 3.99-3.461 9.613-3.461.361 0 .951.012 1.767.035-1.723 2.16-3.038 5.117-3.941 8.865l-.773 3.166c-.876 3.525-1.313 7.648-1.313 12.369 0 5.438 1.54 8.158 4.624 8.158 3.264 0 7.731-2.24 13.398-6.728 5.666-4.479 11.236-10.187 16.707-17.116l3.538 2.01c-5.593 8.194-11.985 15.033-19.182 20.514-7.192 5.475-13.375 8.213-18.543 8.213-6.529 0-9.793-4.471-9.793-13.41-.004-1.863.087-4.371.266-7.529zm2.131-8.901c-6.354-3.404-11.639-5.104-15.845-5.104-4.571 0-8.521 2.277-11.851 6.838-3.328 4.561-4.994 9.965-4.994 16.221 0 5.02 1.999 7.527 5.994 7.527 4.328 0 12.606-7.802 24.836-23.396.151-.197.772-.892 1.86-2.086z"/><path d="m186.986 124.463c-6.258 9.762-12.544 17.42-18.863 22.969-6.318 5.551-11.91 8.324-16.775 8.324-3.538 0-6.395-1.119-8.569-3.369-2.177-2.248-3.266-5.186-3.266-8.811 0-2.035.455-4.916 1.361-8.645l9.022-37.331c-1.18.146-2.207.227-3.084.227-6.954 0-10.428-2.387-10.428-7.15v-.859c3.627 1.689 7.722 2.534 12.288 2.534 4.563 0 8.553-.933 11.969-2.794l-10.519 44.818c-.938 4.021-1.406 6.789-1.406 8.305 0 4.197 1.874 6.301 5.623 6.301 3.628 0 7.276-1.686 10.951-5.053 3.673-3.363 9.695-10.535 18.067-21.514z"/><path d="m183.586 139.314c0 7.266 3.748 10.893 11.244 10.893 6.499 0 13.663-2.537 21.491-7.617 7.827-5.082 14.887-11.773 21.173-20.074l3.855 1.748c-5.925 9.084-13.625 16.605-23.103 22.562-9.476 5.955-18.461 8.936-26.954 8.936-5.441 0-9.741-1.438-12.899-4.319-3.161-2.883-4.74-6.816-4.74-11.812 0-7.201 2.865-13.362 8.593-18.479 5.729-5.112 12.628-7.675 20.698-7.675 3.899 0 7.021.805 9.363 2.422 2.34 1.613 3.513 3.771 3.513 6.48 0 4.441-3.259 8.377-9.771 11.803-6.513 3.42-14 5.132-22.463 5.132zm.361-3.574c6.318-.273 11.736-1.758 16.255-4.459 4.519-2.697 6.779-5.822 6.779-9.363 0-3.17-1.723-4.756-5.17-4.756-4.11 0-7.904 1.807-11.38 5.426-3.477 3.615-5.637 8.002-6.484 13.152z"/><path d="m239.809 154.566c-2.066.795-3.722 1.19-4.965 1.19-3.1 0-4.646-1.116-4.646-3.354 0-1.143.543-3.985 1.631-8.528l2.268-9.276c1.392-5.515 2.086-9.597 2.086-12.259 0-1.441-.499-2.645-1.496-3.613 3.174-.895 5.758-1.342 7.754-1.342 2.116 0 3.174 1.105 3.174 3.318 0 1.364-.751 4.952-2.249 10.764l-2.563 10.845c5.707-9.111 11.452-16.199 17.234-21.259 5.782-5.047 11.029-7.578 15.742-7.578 1.659 0 3.096.395 4.303 1.172 1.208.785 1.812 1.732 1.812 2.852 0 1.738-2.299 4.049-6.892 6.93-1.149-1.963-2.777-2.941-4.893-2.941-3.834 0-8.724 3.353-14.67 10.06-3.682 4.172-6.883 8.478-9.599 12.912-2.717 4.433-4.075 7.594-4.075 9.479z"/><path d="m294.083 141.732c10.882-18.838 20.493-28.26 28.837-28.26 3.655 0 5.485 2.17 5.485 6.508 0 1.859-.787 6.047-2.356 12.568l-2.722 11.265c5.291-9.134 10.808-16.474 16.551-22.021 5.742-5.547 10.699-8.32 14.871-8.32 4.595 0 6.892 2.209 6.892 6.627 0 1.583-.68 5.221-2.041 10.902l-1.405 5.808c-.846 3.498-1.27 6.09-1.27 7.774 0 2.979 1.285 4.471 3.854 4.471 5.806 0 14.721-8.846 26.752-26.53l3.809 1.748c-13.119 20.991-24.573 31.485-34.369 31.485-6.256 0-9.385-3.354-9.385-10.057 0-2.236.605-5.826 1.813-10.771l1.271-5.139c.846-3.479 1.269-5.641 1.269-6.484 0-1.068-.665-1.602-1.995-1.602-3.264 0-9.112 5.324-17.547 15.979-7.647 9.709-11.471 15.265-11.471 16.65 0 .154.061.412.181.785-.423.074-1.163.234-2.222.484-.452.123-1.133.188-2.041.188-2.812 0-4.217-1.102-4.217-3.311 0-.67.451-2.689 1.359-6.062.333-1.217.666-2.521.998-3.912l1.904-7.889c1.39-5.682 2.087-9.092 2.087-10.232 0-1.664-.741-2.494-2.223-2.494-3.265 0-8.07 4.799-14.417 14.398-6.319 9.525-9.477 15.207-9.477 17.039 0 .521.241 1.029.726 1.523-1.662.602-3.189.899-4.58.899-3.144 0-4.715-1.392-4.715-4.17 0-.351.453-3.963 1.359-10.84l1.044-7.938c.362-2.781.543-5.354.543-7.713 0-2.98-.742-5.166-2.223-6.557 3.506-1.045 5.985-1.568 7.436-1.568 2.66 0 3.99 1.293 3.99 3.875 0 .918-.362 4.33-1.089 10.238z"/><path d="m427.386 127.367c.089.6.136 1.133.136 1.605 0 7.176-2.964 13.436-8.889 18.774-5.924 5.34-12.859 8.008-20.812 8.008-6.075 0-11.023-1.592-14.849-4.787-3.824-3.188-5.735-7.329-5.735-12.42 0-5.789 2.472-10.809 7.413-15.053 4.942-4.248 10.77-6.369 17.479-6.369 1.027 0 2.115.111 3.264.332-.756-1.117-1.134-2.062-1.134-2.832 0-1.191.5-2.33 1.496-3.426 7.377.498 13.512 3.6 18.408 9.314 5.019 2.802 10.248 4.205 15.688 4.205 3.539 0 7.36-.979 11.485-2.941l2.267 3.166c-4.817 2.761-9.743 4.138-14.793 4.138-3.355.003-7.164-.567-11.424-1.714zm-10.292-3.162c-2.511-.621-4.822-1.611-6.938-2.982-1.542-.266-2.828-.404-3.854-.408-5.139.004-9.693 1.904-13.666 5.703-3.973 3.797-5.962 8.133-5.967 12.998.004 3.531 1.208 6.428 3.607 8.697 2.401 2.27 5.491 3.408 9.27 3.414 5.107-.006 9.506-2.125 13.19-6.357 3.686-4.231 5.529-9.276 5.535-15.141-.004-2.037-.4-4.012-1.177-5.924z"/><path d="m506.646 124.391c-7.315 10.084-15.068 18.025-23.262 23.822-8.19 5.805-15.794 8.701-22.807 8.701-5.831 0-10.564-1.641-14.198-4.92-3.628-3.275-5.438-7.537-5.438-12.775 0-6.908 3.126-12.922 9.393-18.051 6.256-5.129 13.599-7.695 22.032-7.695 3.416 0 6.221.541 8.412 1.621 2.193 1.082 3.288 2.455 3.288 4.117 0 2.732-2.825 4.779-8.479 6.146.299-.597.451-1.168.451-1.715 0-4.021-2.6-6.036-7.8-6.036-4.504 0-8.653 2.068-12.445 6.208-3.784 4.131-5.688 8.658-5.688 13.578 0 3.998 1.267 7.256 3.791 9.776 2.516 2.521 5.805 3.783 9.854 3.783 11.123 0 24.151-9.478 39.082-28.429z"/><path d="m547.861 124.34c-6.831 9.84-13.739 17.535-20.717 23.092-6.983 5.551-13.261 8.326-18.82 8.326-3.387 0-6.115-.908-8.184-2.717-2.071-1.814-3.105-4.199-3.105-7.156 0-1.117.301-2.896.905-5.328l.995-4.1c1.48-5.912 2.223-10.062 2.223-12.443 0-1.418-.514-2.574-1.541-3.471 3.932-.742 6.395-1.111 7.389-1.111 2.239 0 3.358 1.291 3.358 3.869 0 1.91-.441 4.654-1.315 8.227l-1.771 7.257c-.874 3.498-1.315 5.768-1.315 6.812 0 3.08 1.591 4.615 4.762 4.615 3.781 0 8.813-2.611 15.101-7.832 6.289-5.225 12.379-11.844 18.273-19.859zm-40.352-18.756.636.035c2.022-.072 4.936-.914 8.729-2.516 3.794-1.604 6.769-3.24 8.91-4.902-1.331 3.428-3.688 6.297-7.075 8.607-5.139 3.521-8.61 5.287-10.429 5.287-1.209 0-1.812-.605-1.812-1.824-.003-1.736.347-3.298 1.041-4.687z"/><path d="m569.626 140.076c.816 1.213 1.222 2.281 1.222 3.199 0 2.438-2.498 5.123-7.501 8.065-5.004 2.945-9.562 4.414-13.669 4.414-3.626 0-6.582-1.328-8.863-3.983-2.284-2.654-3.426-6.084-3.426-10.285 0-4.668 1.496-11.312 4.489-19.928l2.084-6.261h-7.66c-3.204 0-5.76.371-7.66 1.117 1.751-2.617 3.202-4.256 4.352-4.924 1.146-.668 3.099-1.002 5.85-1.002h6.849l.905-2.576c1.391-3.836 3.055-6.471 4.984-7.904 1.936-1.43 4.837-2.146 8.707-2.146.453 0 1.18.022 2.18.072-2.36 2.492-4.809 6.676-7.348 12.557h23.939c4.2 0 7.403-.447 9.611-1.344-.754 2.543-1.764 4.205-3.018 4.98-1.256.779-3.591 1.168-7.004 1.168h-25.48c-.304.82-.527 1.43-.683 1.826-3.657 10.231-5.485 17.959-5.485 23.172 0 5.763 2.524 8.646 7.57 8.646 2.602 0 5.434-.906 8.503-2.719 3.069-1.808 5.252-3.863 6.552-6.144z"/><path d="m595.11 154.604c-1.304-6.658-3.608-13.246-6.917-19.766-3.312-6.52-6.886-11.492-10.726-14.918 2.234-1.541 4.533-2.312 6.896-2.312 2.024 0 3.71.752 5.052 2.254 1.345 1.504 3.031 4.527 5.058 9.074 3.173 7.127 5.545 13.582 7.117 19.373 10.216-13.291 15.747-24.899 16.597-34.835 5.285.646 7.933 2.1 7.933 4.359 0 2.387-2.378 7.291-7.143 14.717-4.76 7.428-9.891 14.229-15.393 20.414-6.352 7.131-12.648 12.748-18.906 16.857-6.258 4.111-11.642 6.168-16.141 6.168-4.052 0-6.075-1.402-6.075-4.211 0-1.144.361-2.48 1.086-4.021 1.661.846 3.72 1.266 6.168 1.266 8.854-.003 17.321-4.808 25.394-14.419z"/></g><path d="m54.759 66.426c-9.853.479-36.597 4.57-42.492 12.293-1.097 1.438-3.027 7.464-3.027 7.464 22.336-9.188 66.93-15.072 65.227-.118-1.164 10.205-7.771 27.654-46.15 31.516l5.282-21.387c1.451-5.78 2.179-8.984 2.179-9.608 0-2.638-1.382-3.955-4.146-3.955-2.319 0-6.44.915-12.366 2.744 1.069 1.062 1.604 2.232 1.604 3.517 0 1.315-.382 3.531-1.143 6.645l-5.302 21.053c-3.861-.936-6.055-1.939-9.338-3.969 0 0 2.423 8.07 8.008 10.17l-6.265 25.91c-.893 3.773-1.34 6.064-1.34 6.869 0 1.541 1.159 2.311 3.479 2.311 3.652 0 7.776-.934 12.365-2.803-.582-1.172-.87-2.273-.87-3.297 0-1.027.432-3.277 1.291-6.756l4.874-20.312s58.505-1.668 61.468-42.173c.941-12.856-18.347-16.848-33.338-16.114z"/></g></svg>