<svg height="512" viewBox="0 0 512 512" width="512" xmlns="http://www.w3.org/2000/svg"><path d="m104.397 202.696h303.205v192.022h-303.205z" fill="#b70909"/><path d="m263.959 102.669c-4.391-3.051-11.551-3.051-15.918 0l-143.644 100.027h303.205z" fill="#b70909"/><path d="m114.102 138.635h283.802v158.267h-283.802z" fill="#eaeaea"/><path d="m289.735 245.402h6.391c-5.388 6.739-10.414 11.46-15.017 14.188-6.556 3.78-14.006 5.678-22.357 5.678-8.83 0-17-2.086-24.481-6.273s-13.296-9.896-17.471-17.122c-4.18-7.245-6.266-15.15-6.266-23.713 0-8.681 2.086-16.773 6.316-24.254 4.23-7.466 9.967-13.284 17.264-17.433 7.241-4.136 15.22-6.21 23.846-6.21 12.21 0 22.522 3.913 30.929 11.735 8.405 7.825 12.577 16.93 12.577 27.319 0 7.56-1.74 14.076-5.23 19.55-3.489 5.485-8.249 9.739-14.226 12.766-4.547 2.354-8.46 3.518-11.683 3.518-2.353 0-4.203-.624-5.575-1.878-1.06-.926-1.616-2.537-1.64-4.851-1.372 1.745-3.254 3.199-5.685 4.376-2.376 1.16-4.862 1.745-7.45 1.745-5.819 0-10.629-2.012-14.437-6.026-3.807-4.02-5.685-9.359-5.685-15.997 0-7.147 2.301-13.676 6.901-19.585 4.599-5.908 10.947-8.857 19.008-8.857 3.567 0 6.524.663 8.931 1.996 2.407 1.337 4.682 3.662 6.799 6.968l1.607-8.355h6.556l-7.002 39.628c-.212 1.294-.322 2.113-.322 2.481 0 .953.268 1.693.847 2.224.581.54 1.294.803 2.173.803 2.375 0 5.496-1.388 9.3-4.147 3.811-2.776 6.799-6.332 8.908-10.681 2.141-4.348 3.199-9.171 3.199-14.46 0-10.269-3.992-18.78-11.95-25.536-7.427-6.266-16.491-9.395-27.147-9.395-7.905 0-15.092 1.808-21.542 5.419-6.45 3.618-11.528 8.708-15.28 15.275-3.729 6.571-5.603 13.684-5.603 21.321 0 7.72 1.874 14.844 5.658 21.373 3.752 6.527 8.936 11.66 15.593 15.377 6.666 3.701 13.958 5.552 21.973 5.552 5.833 0 11.182-1.021 15.934-3.137 4.76-2.087 9.888-5.896 15.339-11.382zm-36.746-7.709c2.666 0 5.175-.831 7.504-2.509 2.353-1.678 4.228-4.203 5.607-7.575 1.74-4.415 2.643-8.841 2.643-13.296 0-4.081-1.138-7.386-3.435-9.938-2.274-2.537-5.239-3.819-8.862-3.819-4.838 0-9.037 1.996-12.554 5.987-3.541 3.979-5.312 8.947-5.312 14.896 0 4.972 1.349 8.936 4.046 11.868 2.67 2.936 6.128 4.386 10.363 4.386z" fill="#d85555"/><path d="m104.397 394.719h151.58v-94.477l-151.58-97.546z" fill="#af5151"/><path d="m256.023 300.242v94.477h151.58v-192.023z" fill="#af5151"/><path d="m263.959 294.69c-4.391-3.074-11.551-3.074-15.918 0l-143.644 100.029h303.205z" fill="#b70909"/><circle cx="256" cy="256" fill="none" r="226.761" stroke="#b70909" stroke-miterlimit="10" stroke-width="10"/></svg>