<svg enable-background="new 0 0 512 512" viewBox="0 0 512 512" xmlns="http://www.w3.org/2000/svg"><circle cx="256" cy="257" fill="#131417" r="251.9"/><g fill="#b492b2"><path d="m256 508.9c-67.6 0-131.1-26.3-178.8-74.1-47.8-47.7-74.1-111.2-74.1-178.8s26.3-131.1 74.1-178.8c47.8-47.8 111.2-74.1 178.8-74.1s131.1 26.3 178.8 74.1c47.8 47.8 74.1 111.2 74.1 178.8s-26.3 131.1-74.1 178.8c-47.7 47.8-111.2 74.1-178.8 74.1zm0-477.8c-60.1 0-116.6 23.4-159 65.9s-65.9 99-65.9 159 23.4 116.6 65.9 159 99 65.9 159 65.9 116.6-23.4 159-65.9 65.9-99 65.9-159-23.4-116.6-65.9-159-98.9-65.9-159-65.9z"/><path d="m255.8 107.6-171.4 273c.4 0 171.6-150.3 171.6-150.3l171.6 150.3z"/></g></svg>