<svg enable-background="new 0 0 512 512" height="512" viewBox="0 0 512 512" width="512" xmlns="http://www.w3.org/2000/svg"><g fill="#2f9d2d"><path d="m247.767.218v10c1.98 0 3.906.029 5.888.09l.204.006.204-.002c.864-.009 1.732-.013 2.594-.013 67.163 0 129.658 26.536 175.974 74.718 22.952 23.877 40.659 51.662 52.629 82.583 12.289 31.746 17.839 65.101 16.493 99.137-1.242 31.416-8.64 61.992-21.988 90.879-12.934 27.989-30.854 53.166-53.261 74.832-22.464 21.721-48.271 38.78-76.705 50.703-29.481 12.363-60.517 18.631-92.242 18.631-2.396 0-4.726-.034-7.125-.105-66.981-2-128.666-29.757-173.69-78.156-22.271-23.941-39.399-51.618-50.906-82.263-11.731-31.238-16.966-63.882-15.561-97.025 2.69-63.452 30.561-123.038 78.477-167.78 45.075-42.088 103.027-66.229 158.999-66.234zm-.018 0c-118.217.009-241.488 102.594-247.466 243.59-5.833 137.55 100.348 263.399 249.85 267.863 2.489.074 4.948.11 7.423.11 135.435 0 248.899-110.837 254.188-244.65 5.612-141.987-106.299-266.832-255.088-266.832-.896 0-1.797.004-2.695.014-2.074-.064-4.134-.096-6.212-.095z"/><path clip-rule="evenodd" d="m218.937 287.719c32.386-24.25 64.171-48.142 96.064-71.886 12.518-9.318 25.204-18.418 37.977-27.383 4.881-3.424 10.057-6.524 15.388-9.188 9.836-4.916 16.119-2.872 22.214 6.631 5.357 8.353 4.159 18.173-3.555 23.974-49.556 37.267-99.179 74.442-148.869 111.527-5.119 3.82-10.814 6.874-16.278 10.224-4.977 3.052-9.79 2.546-14.279-1.025-3.512-2.792-7.162-5.473-10.326-8.63-23.916-23.868-47.791-47.779-71.516-71.835-4.855-4.922-8.568-10.522-7.391-18.267 2.051-13.481 16.976-20.769 28.147-12.976 6.443 4.496 12.229 10.028 17.9 15.519 16.446 15.918 32.682 32.053 49.01 48.093 1.657 1.627 3.371 3.195 5.514 5.222z" fill-rule="evenodd"/></g></svg>