 <!DOCTYPE svg PUBLIC "-//W3C//DTD SVG 1.1//EN" "http://www.w3.org/Graphics/SVG/1.1/DTD/svg11.dtd">
<svg id="b766bddf-0f2f-41d2-aa26-781c670afba7" data-name="Layer 1" xmlns="http://www.w3.org/2000/svg" xmlns:xlink="http://www.w3.org/1999/xlink" width="865.76" height="682.89" viewBox="0 0 865.76 682.89">
<defs>
<clipPath id="b7647c04-fca5-4ef0-a5df-c3a21acd2fbb">
<path id="bd6eefd1-c794-44ea-8328-6f028f45a59b" data-name="SVGID" d="M-672.27,147.54s-228.6,116.7-163.06,265.37c0,0,43.16,167.86,306.93,121.5L-141.53,496S-47,494.9-59.81,383c-4.4-38.39-26.88-72.14-59.74-92.48-18-11.16-35.75-27.45-37.86-49a25.34,25.34,0,0,0-.44-2.88c-3.28-14.93-33.27-128.81-191.5-164.63C-349.35,74-482,24.45-672.27,147.54Z" fill="#0071f2" opacity="0.23" data-primary="true"/>
</clipPath>
<clipPath id="a4054f75-7317-4e7c-9632-e624e11c4de4">
<path id="bb4306a3-5c17-4a7b-8bf6-86e7c5e9dd2c" data-name="SVGID" d="M292.44,603.83a24,24,0,0,0-4.39.58c-7.05,1.68-22.95,6.31-10.94,11.64,0,0,27.43,11.76,84.54,14l118.14,9s32.47-1.12,86.78,2.8c0,0,70,8.4,124.3-10.08,0,0,19-6.72,30.24-7.28,0,0,41.43-8.4,24.07-25.75a41.88,41.88,0,0,0-18.34-6.58,18.93,18.93,0,0,1-6-1.58c-12.95-5.87-63.65-27.49-97.12-22.64,0,0-24.07,2.24-42-2.24l-26.31-3.92s-28-6.71-58.23,1.12c0,0-49.27,9.52-70,8.4,0,0-63.83-5.6-84,11.76,0,0-16.14,9.16-27.63,12.47a61.51,61.51,0,0,0-9.45,3.56C301.76,601.09,295.78,603.64,292.44,603.83Z" fill="#d3d4d8"/>
</clipPath>
<style xmlns="http://www.w3.org/1999/xhtml">*, ::after, ::before { box-sizing: border-box; }
img, svg { vertical-align: middle; }
</style>
<style xmlns="http://www.w3.org/1999/xhtml">*, body, html { -moz-osx-font-smoothing: grayscale; }
img, svg { max-width: 100%; }
</style>
</defs>
<path id="fe09b918-a148-43b1-bd7c-ee054278d4e4" data-name="SVGID" d="M-672.27,147.54s-228.6,116.7-163.06,265.37c0,0,43.16,167.86,306.93,121.5L-141.53,496S-47,494.9-59.81,383c-4.4-38.39-26.88-72.14-59.74-92.48-18-11.16-35.75-27.45-37.86-49a25.34,25.34,0,0,0-.44-2.88c-3.28-14.93-33.27-128.81-191.5-164.63C-349.35,74-482,24.45-672.27,147.54Z" fill="#0071f2" opacity="0.23" data-primary="true"/>
<g clip-path="url(#b7647c04-fca5-4ef0-a5df-c3a21acd2fbb)">
<path d="M-82.63,356l.94.57a31.34,31.34,0,0,0,23.23,3.64l83.57-19.5a13.46,13.46,0,0,1,10,1.57l4.78,2.87a1.78,1.78,0,0,1,.51,2.6L-2,404.45l-6.13,8.15-79.76-47.87Z" fill="#0071f2" opacity="0.43" data-primary="true"/>
<polygon points="-45.48 385.89 -5.32 410 2.72 451.28 -4.73 446.81 -45.48 385.89" fill="#0071f2" opacity="0.43" data-primary="true"/>
<g opacity="0.39">
<polygon points="-320.77 617.19 -352.05 617.19 54.13 -7.86 85.41 -7.86 -320.77 617.19" fill="#fff"/>
<polygon points="-378.56 617.19 -496.17 617.19 -89.98 -7.86 27.63 -7.86 -378.56 617.19" fill="#fff"/>
</g>
</g>
<path d="M24.07,353.31q.09,5.55.4,11c.07,1.37.15,2.73.25,4.09q.3,4.32.72,8.6.31,3.19.69,6.36a342.13,342.13,0,0,0,8,42.87,170.64,170.64,0,0,0,26.41,57.51c1.49,2.08,3,4.13,4.59,6.13q4.8,6.15,10.14,11.75a162.62,162.62,0,0,0,14,13.08c27.13,22.52,61.18,35.64,97.47,35.66l101,0,145.22.05h8.43l323.22.11c32,0,57.34-19.71,69.45-46.32a86.2,86.2,0,0,0,7.75-35.65c0-.3,0-.6,0-.91s0-.53,0-.8c0-.65,0-1.29-.06-1.94,0-.3,0-.61,0-.91s0-.65-.05-1l-.06-.86c0-.33-.06-.66-.08-1-.08-.9-.18-1.79-.28-2.68,0-.3-.07-.59-.11-.88-.09-.66-.19-1.32-.29-2,0-.27-.08-.54-.13-.8-.1-.61-.2-1.23-.32-1.84s-.21-1.09-.33-1.64l-.24-1.15c-.14-.58-.27-1.17-.41-1.75v0c-.08-.31-.16-.61-.23-.92s-.16-.6-.25-.91c-.41-1.52-.86-3-1.37-4.55-.3-.9-.61-1.81-1-2.71-.46-1.24-1-2.47-1.47-3.7-.13-.3-.26-.61-.4-.92l-.41-.92c-.13-.3-.27-.61-.42-.91s-.28-.61-.43-.91-.29-.61-.44-.91c-.28-.56-.57-1.12-.86-1.68l-.26-.49c-.38-.72-.78-1.45-1.19-2.16-.07-.13-.14-.26-.22-.39s-.26-.46-.4-.69l-.53-.9-1-1.66c-.33-.54-.66-1.08-1-1.62-1.15-1.9-2.31-3.8-3.46-5.71-.39-.66-.79-1.32-1.18-2q-1.68-2.81-3.32-5.67l-.61-1.06-.06-.11c-.57-1-1.14-2-1.69-3l-.52-.95c-.32-.58-.63-1.16-.94-1.75-.16-.29-.31-.58-.46-.87s-.23-.42-.34-.64l-.43-.84c-.21-.39-.41-.79-.61-1.19-.37-.72-.73-1.45-1.09-2.19l-.68-1.41c-.18-.39-.37-.78-.55-1.18-.39-.83-.77-1.66-1.14-2.5-.17-.36-.33-.73-.48-1.09-.42-.95-.82-1.9-1.21-2.87l-.33-.8c-.33-.82-.66-1.64-1-2.48l-.28-.75c-.53-1.41-1-2.85-1.51-4.3-.11-.31-.21-.63-.31-.95-.2-.6-.39-1.21-.57-1.82l-.09-.3c-.1-.32-.2-.65-.29-1l-.3-1c-.1-.35-.2-.7-.29-1.06-.2-.7-.38-1.41-.56-2.13-.09-.35-.18-.71-.26-1.07s-.18-.72-.26-1.09-.17-.72-.25-1.09-.13-.58-.18-.87l-.06-.23a.52.52,0,0,0,0-.11l-.18-.88c0-.26-.11-.53-.16-.79l-.09-.53c-.07-.34-.13-.68-.19-1,0-.11,0-.21-.06-.32-.07-.35-.12-.7-.18-1.05s-.07-.41-.1-.61-.11-.63-.15-.95l-.06-.37c-.06-.4-.12-.8-.17-1.2,0-.11,0-.23-.05-.34L800.6,356c-.06-.51-.12-1-.17-1.54a0,0,0,0,1,0,0c-.12-1-.21-2.09-.3-3.15s-.16-2.14-.22-3.23c0-.54,0-1.09-.08-1.64-.12-3-.13-6.1,0-9.28l.06-1.56.06-1.16a159.82,159.82,0,0,1,4.64-30c8.77-35.58,9.58-67.9,4.14-96.76-.49-2.62-1-5.22-1.63-7.78a184.68,184.68,0,0,0-5.74-19.72q-2.45-6.93-5.4-13.55a183.71,183.71,0,0,0-18.3-31.94c-25.26-35.41-62.32-61.45-104-77.3C583.43,23,471.53,36.41,410.22,105.75,356.7,166.27,226,111.53,128.85,157.18a154.16,154.16,0,0,0-51.69,39.21q-3.73,4.32-7.31,9.06a202.11,202.11,0,0,0-19.52,31.92l-.75,1.53a276,276,0,0,0-13.84,34.45q-2.67,8.13-4.68,16.28c-.27,1.07-.53,2.14-.78,3.22a242,242,0,0,0-5.91,42.67c0,.12,0,.25,0,.37q-.16,3.19-.24,6.38v.15Q24,347.9,24.07,353.31Z" fill="#e8e8e8"/>
<path d="M24,350.63l0,2.68q.09,5.55.4,11c.07,1.37.15,2.73.25,4.09q.3,4.32.72,8.6.31,3.19.69,6.36a342.13,342.13,0,0,0,8,42.87,170.64,170.64,0,0,0,26.41,57.51c1.49,2.08,3,4.13,4.59,6.13q4.8,6.15,10.14,11.75a162.62,162.62,0,0,0,14,13.08c27.13,22.52,61.18,35.64,97.47,35.66l101,0,145.22.05h8.41l237.77-.08c50.67,0,97-25.41,126.17-66.15l-19.06-44.86-25.1-59.05-6.3-14.83-7.18-16.88-5.41-12.74H24.36q-.16,3.19-.24,6.38v.15c0,1-.05,1.93-.06,2.89,0,.51,0,1,0,1.54s0,.82,0,1.22v2.56Z" fill="#0071f2" data-primary="true"/>
<path d="M24,350.63l0,2.68q.09,5.55.4,11c.07,1.37.15,2.73.25,4.09q.3,4.32.72,8.6.31,3.19.69,6.36a342.13,342.13,0,0,0,8,42.87,170.64,170.64,0,0,0,26.41,57.51c1.49,2.08,3,4.13,4.59,6.13q4.8,6.15,10.14,11.75a162.62,162.62,0,0,0,14,13.08c27.13,22.52,61.18,35.64,97.47,35.66l101,0,145.22.05h8.41l237.77-.08c50.67,0,97-25.41,126.17-66.15l-19.06-44.86-25.1-59.05-6.3-14.83-7.18-16.88-5.41-12.74H24.36q-.16,3.19-.24,6.38v.15c0,1-.05,1.93-.06,2.89,0,.51,0,1,0,1.54s0,.82,0,1.22v2.56Z" fill="#fff" opacity="0.2"/>
<path d="M254.79,215.56s-7.74-9.08-26.23-8.07c0,0-26.85-15.13-55.48-2,0,0-30.43-3.25-53,2.82-15,4-20,8.28-20,8.28Z" fill="#fff" opacity="0.5"/>
<path d="M454.2,257.73s-12.11-22.35-41.08-19.87c0,0-42.07-37.24-86.92-5,0,0-47.68-8-83,6.92-23.54,10-31.32,20.39-31.32,20.39Z" fill="#fff" opacity="0.5"/>
<path d="M525.75,133.24s-4.77-10.16-16.16-9c0,0-16.53-16.93-34.16-2.25,0,0-18.74-3.64-32.62,3.15-9.26,4.52-12.32,9.27-12.32,9.27Z" fill="#fff" opacity="0.5"/>
<path d="M324.77,185.55a12,12,0,1,0-12,12A12,12,0,0,0,324.77,185.55Z" fill="#fff" opacity="0.5"/>
<path d="M75.26,501.66a162.62,162.62,0,0,0,14,13.08c27.13,22.52,61.18,35.64,97.47,35.66l101,0,145.22.05h8.43l323.22.11c32,0,57.34-19.71,69.45-46.32a86.2,86.2,0,0,0,7.75-35.65c0-.3,0-.6,0-.91s0-.53,0-.8c0-.65,0-1.29-.06-1.94,0-.3,0-.61,0-.91s0-.65-.05-1l-.06-.86c0-.33-.06-.66-.08-1-.08-.89-.17-1.79-.28-2.68,0-.3-.07-.59-.11-.88-.09-.66-.19-1.32-.29-2,0-.27-.08-.54-.13-.8-.1-.61-.2-1.23-.32-1.84s-.21-1.09-.33-1.64l-.24-1.15c-.14-.58-.27-1.17-.41-1.75v0c-.08-.31-.16-.61-.23-.92s-.16-.6-.25-.91c-.41-1.52-.86-3-1.37-4.55-.15-.45-.3-.91-.46-1.36l-.41-1.14-.08-.21a.14.14,0,0,1,0-.06c-.22-.58-.44-1.16-.67-1.73l0-.08q-.36-.91-.75-1.83c-.13-.3-.26-.61-.4-.92l-.41-.92c-.13-.3-.27-.61-.42-.91s-.28-.61-.43-.91-.29-.61-.44-.91c-.28-.56-.57-1.12-.86-1.68l-.26-.49c-.38-.72-.78-1.45-1.19-2.16-.07-.13-.14-.26-.22-.39s-.26-.46-.4-.69l-.53-.9-1-1.66c-.33-.54-.66-1.08-1-1.62-1.15-1.9-2.31-3.8-3.46-5.71-.39-.66-.79-1.32-1.18-2q-1.68-2.81-3.32-5.67l-.61-1.06-.06-.11c-.57-1-1.13-2-1.69-3l-.52-.95c-.32-.58-.63-1.16-.94-1.75-.16-.29-.31-.58-.46-.87s-.23-.42-.34-.64l-.43-.84c-.21-.39-.41-.79-.61-1.19-.37-.72-.73-1.45-1.09-2.19l-.68-1.41-.55-1.18c-.39-.83-.77-1.66-1.14-2.5-.17-.36-.33-.73-.48-1.09-.42-.95-.82-1.9-1.21-2.87l-.33-.8c-.33-.82-.66-1.64-1-2.48l-.28-.75c-.53-1.41-1-2.85-1.51-4.3-.11-.31-.21-.63-.31-.95-.2-.6-.39-1.21-.57-1.82l-.09-.3c-.1-.32-.2-.65-.29-1l-.3-1c-.1-.35-.2-.7-.29-1.06-.2-.7-.38-1.41-.56-2.13-.09-.35-.18-.71-.26-1.07s-.18-.72-.26-1.09-.17-.72-.25-1.09-.13-.58-.18-.87l-.06-.23a.52.52,0,0,0,0-.11l-.18-.88c0-.26-.11-.53-.16-.79l-.09-.53c-.07-.34-.13-.68-.19-1,0-.11,0-.21-.06-.32-.07-.35-.12-.7-.18-1.05s-.07-.41-.1-.61l-.15-.95-.06-.37c-.06-.4-.11-.8-.17-1.2,0-.11,0-.23-.05-.34L800.6,356c-.06-.51-.12-1-.17-1.54a0,0,0,0,1,0,0q-.17-1.56-.3-3.15c-.09-1.07-.16-2.14-.22-3.23,0-.54,0-1.09-.08-1.64q-.18-4.5,0-9.28l.06-1.56H546.09l-4,.05-2.74.05c-2.4.06-5.21.14-8.28.26s-6.4.27-9.84.48c-3.89.23-7.91.53-11.85.91l-2.31.24-1.74.19-2.37.29c-19.51,2.47-33.59,7.41-12.15,17.27,2.31,1.07,7,2.37,12.87,3.93l.75.2c3.88,1,8.24,2.18,12.75,3.45h0l2.31.65q2.71.78,5.45,1.62c3.15,1,6.27,2,9.28,3.07a87.76,87.76,0,0,1,14.41,6.44c7.91,4.64,11.91,10.1,7.29,16.49a1.25,1.25,0,0,1-.15.19c-2.1,2.44-10.6,4.67-23.7,6.73l-.73.11-1.73.26c-7.22,1.08-15.71,2.11-25.19,3.11l-2.29.24c-23.85,2.45-53.65,4.69-85.37,6.82l-12.93.86-.85.06-.53,0c-10.39.68-20.92,1.36-31.46,2l-28.61,1.82-12.44.8q-7.25.46-14.35.94c-13.58.9-26.74,1.8-39.13,2.72-5.77.43-11.38.87-16.79,1.3l-8.88.74c-5.7.49-11.13,1-16.26,1.48-36.44,3.57-57.51,7.52-47.45,12.36a4.08,4.08,0,0,0,.42.19,47.69,47.69,0,0,0,8.16,2.52C290,458.82,240.68,489.54,75.26,501.66Z" fill="#d3d4d8"/>
<path d="M287.66,550.43l145.22.05h8.43l323.22.11c32,0,57.34-19.71,69.45-46.32a85.23,85.23,0,0,0,2.51-64.88,86.25,86.25,0,0,0-7-14.58c-10.72-17.74-22.31-35.74-27.27-59.3h-114s-7.08,0-16.65.37c-26.4,1-71.82,4.86-40.26,19.38,11.27,5.19,79.38,16.1,65.11,35.85s-445.26,25.14-360.25,45.3C410.84,484.16,384.2,527.26,287.66,550.43Z" fill="#d3d4d8"/>
<path d="M409.24,540.29c13.69,3.25,24.35,6.68,32.07,10.19l323.22.11c32,0,57.34-19.71,69.45-46.32a85.23,85.23,0,0,0,2.51-64.88H761.3s-7.08,0-16.65.37c-26.41,1-71.82,4.86-40.26,19.38,11.27,5.19,79.38,16.09,65.11,35.85S324.24,520.12,409.24,540.29Z" fill="#d3d4d8"/>
<path d="M737.9,204.58l1.06.48a44.27,44.27,0,0,0,6.64,2.25,63.93,63.93,0,0,0,8.21,1.53l.65.08c1,.12,2.14.22,3.28.32a9.75,9.75,0,0,1,4.06-7.73c-.71,1.44-.27,5.78,0,8,5.17.25,10.69.27,16.19.11h.54s0-.09,0-.13c-.41-3.38-1.17-8.2-1.17-8.2,2.42,1.61,4.82,4.84,6.44,7.31.18.28.35.57.53.82,1.34-.07,2.68-.13,4-.22,1.58-.08,3.14-.16,4.66-.27,5.19-.35,9.89-.78,13.65-1.14l2-.2c-.49-2.62-1-5.22-1.63-7.78a69.39,69.39,0,0,0-25.34-11.06c2.49-1,4.95-2,7.36-3.08a31.8,31.8,0,0,0-4.84-7.81c3.64.55,7.69,2.85,10.85,5.13,2.17-1,4.26-2,6.23-2.9q-2.45-6.93-5.4-13.55a72.3,72.3,0,0,0-20.14,1.28c4.44-4.81,7.43-8.43,7.43-8.43a57,57,0,0,0-31.28,9.49c1.35-1.89,2.17-3.1,2.17-3.1-6.56-2.53-14.65,1.75-14.65,1.75-3.71,1.88-5.43,5.61-6,10C732.1,188.16,737.43,202.66,737.9,204.58Zm-.18-.08c.21.38.26.38.18.08Zm-72.09,36.69s1.44-.61,3.88-1.71l2-.91c.65-.32,1.34-.63,2.09-1a39.73,39.73,0,0,1,3.81-10.35,14.4,14.4,0,0,0,1.81,7.26l.19.33c1.24-.6,2.53-1.22,3.85-1.88q1.58-.77,3.21-1.59l1.88-1a30.11,30.11,0,0,1,2.1-10.43h0l.09-.2c.17-.37.36-.72.55-1,0,0,.1.56.33,1.47,0,.11.06.24.09.36a31.43,31.43,0,0,0,2.68,6.81l3.18-1.72.54-.3c1.08-.59,2.17-1.2,3.26-1.82-.68,1.39-1.33,2.82-1.93,4.28-.13.29-.25.59-.37.88A69.38,69.38,0,0,0,694,256.08c0,.91,0,1.81.11,2.73,0,.6.08,1.21.14,1.83,0,.2,0,.43,0,.65l.7-.69c.59-.58,1.5-1.49,2.67-2.69l2.94-3c1.21-1.25,2.54-2.64,4-4.14l2-2.12c1.1-1.18,2.25-2.42,3.43-3.71q1.54-1.69,3.12-3.49c.9-1,1.78-2,2.68-3-.09-.29-.21-.6-.32-.92-.92-2.81-1.95-6.69-1.71-9.59,0,0,2,2.19,4,4.29.57.6,1.14,1.2,1.66,1.73,0,0,.07.07.1.11l.33-.4v0c3.55-4.2,7-8.54,10-12.74-1.54-1.61-4.67-4.67-6.24-5a9.78,9.78,0,0,1,8.58,1.64c.38-.56.74-1.11,1.09-1.65s.71-1.12,1-1.67a60.73,60.73,0,0,0,4.67-9.16,44.27,44.27,0,0,0,6.64,2.25c5.52,10,14.58,28.52,20.68,57,6.05,28.12,10.1,58.4,11.59,71.24.33,2.9.54,4.91.61,5.81a24.86,24.86,0,0,0,9,.94c5.34-.44,7.3-2.23,7.3-2.23,0-.27-.21-1.88-.58-4.52-1.49-10.81-5.91-38.9-13.39-62.95-9.24-29.74-19.67-51.37-26.4-63.65-3.31-6-5.72-9.82-6.68-11.21a10.59,10.59,0,0,0,2.09-.27c2.61-.6,4-1.9,3.84-4.24,2.7.25,12.69,1.71,16.11,1.81,9.77.31-30.19-23.75-34.14-15.49a16.59,16.59,0,0,0-2.22-2c-3.14-2.3-8.58-4.55-16.77-2.4a36.14,36.14,0,0,0-5.78,2.11,25.13,25.13,0,0,0-7.52,5.41,13.41,13.41,0,0,0-3,5s1.46.11,3.77.23a57,57,0,0,0-26.9,18.57s4.69-.09,11.22-.56a72.69,72.69,0,0,0-9.54,9.59l-.44.54-.14.18c-.2.24-.4.49-.59.74-1.06,1.36-2.09,2.78-3.07,4.26a68.43,68.43,0,0,0-6.49,12.33c-.27.65-.52,1.31-.77,2C666.8,237.33,666.19,239.22,665.63,241.19Z" fill="#d3d4d8"/>
<path d="M661.17,79.87c2.94,22.74,25.54,54.17,34.7,55.28l1.18.15c1.94.23,4,.41,6.05.59.56-10.06,7.47-14.23,7.47-14.23-1.32,2.65-.5,10.64,0,14.73,9.53.45,19.68.5,29.79.2l0,0,1,0a2,2,0,0,0-.06-.26c-.76-6.21-2.15-15.08-2.15-15.08,4.46,3,8.87,8.9,11.85,13.45.33.52.65,1,1,1.5,2.48-.13,4.94-.23,7.39-.39,2.93-.16,5.79-.31,8.6-.51,3.32-.22,6.54-.46,9.61-.71,5.75-.46,11-.94,15.5-1.38,6.89-.69,12-1.25,14.62-1.57l1.8-.2c-.3-.29-.6-.58-.89-.82-2.08-2-4.14-3.82-6.28-5.57a128,128,0,0,0-55.14-26.89q6.87-2.78,13.53-5.66a57.83,57.83,0,0,0-8.9-14.37c6.71,1,14.16,5.25,20,9.44,6-2.7,11.54-5.34,16.62-7.8A26.49,26.49,0,0,0,779.8,68.2c6.65.87,14.37,4.11,19.28,6.37,1.33-.68,2.58-1.32,3.78-1.9,6.56-3.33,10.53-5.46,10.53-5.46-3.49-1.45-6.9-2.74-10.32-3.88a128.87,128.87,0,0,0-66.78-3.66C744.47,50.8,750,44.15,750,44.15,727.34,44,708,51.59,692.4,61.6c2.48-3.46,4-5.69,4-5.69-8.13-3.13-17.51-.6-22.79,1.39a42.28,42.28,0,0,0-4.17,1.82C662,62.9,660,70.67,661.17,79.87ZM533.58,194.69s3-1.28,8-3.56l1.73-.78,1.08-.49c1.2-.58,2.48-1.16,3.84-1.78.33-1.35.73-2.89,1.2-4.53.3-1.08.64-2.2,1-3.33a57.23,57.23,0,0,1,4.5-10.64l.33-.55s0,.39,0,1.08A27.14,27.14,0,0,0,557.4,180,22.57,22.57,0,0,0,559,183c5.08-2.44,10.62-5.17,16.45-8.14.33-7.15,1.65-15.63,5-21.5a58.39,58.39,0,0,0,5.7,15.92c4.26-2.28,8.56-4.63,12.86-7.07a128.57,128.57,0,0,0-12,38.27c-.48,3.23-.84,6.54-1.06,9.91-.26,3.81-.36,7.71-.27,11.71,0,2.76.21,5.53.45,8.39a10.14,10.14,0,0,0,.09,1.19l1.28-1.28c1.86-1.82,5.49-5.5,10.33-10.46s10.83-11.28,17.28-18.34c1.9-2.07,3.8-4.22,5.74-6.41,1.65-1.82,3.27-3.68,4.92-5.54-.17-.54-.37-1.12-.58-1.69-1.69-5.17-3.59-12.32-3.14-17.65,0,0,6.08,6.61,10.46,11.08,0,.08.12.12.16.2.21-.25.42-.49.62-.74v0q1.41-1.67,2.8-3.34c4.53-5.47,8.9-11,13-16.5q1.33-1.8,2.62-3.59c-2.85-3-8.59-8.59-11.49-9.22,0,0,7.57-2.81,15.79,3,1.41-2.11,2.73-4.13,3.93-6.12,6.78-11,10.41-20.41,12.19-28.14,2.2,5.31,17.07,26.25,31.27,65.76a421.12,421.12,0,0,1,14.34,49.56q.56,2.45,1.09,5c7.43,34.59,13.23,71,17.07,98.34,0,.12,0,.24.05.37,1.67,11.89,3,22.06,3.87,29.62.81,6.84,1.3,11.54,1.45,13.46a45.9,45.9,0,0,0,16.65,1.74c1.14-.09,2.19-.22,3.16-.37,7.45-1.15,10.28-3.74,10.28-3.74-.05-.58-.53-4.59-1.45-11.09-1-7.3-2.65-17.73-4.82-30-4.26-24-10.71-55-19.43-83.08-4-13-8.23-25.23-12.41-36.55-5.61-15.18-11.22-28.79-16.55-40.74-7.36-16.51-14.16-29.86-19.64-39.85-6.09-11.11-10.54-18.08-12.28-20.62a21,21,0,0,0,3.84-.5c4.8-1.12,7.36-3.51,7.07-7.81,5,.45,23.36,3.14,29.65,3.34,18,.55-55.56-43.72-62.84-28.51-.39-.42-.83-.86-1.32-1.33-6-5.61-20-14-44.27-2.84,0,0-15.41,6.73-19.3,19.09,0,0,2.69.21,6.95.41C587,102.53,569,112.94,555,130.71c0,0,8.64-.16,20.67-1a130.4,130.4,0,0,0-30.14,36c-1.22,2.15-2.38,4.37-3.5,6.66s-2.13,4.52-3.11,6.87q-1,2.46-2,5l-.18.51c-.54,1.49-1.06,3-1.55,4.54C534.66,191,534.11,192.83,533.58,194.69Z" fill="#b5bfc7"/>
<path d="M517.12,362.83s58.53,7.07,53,12.93,8.37,1.07,12.39,6.93-16,5.14-16,9.89,22.68,7.69,14.27,13.54-77.18-2.56-77.55,2.19,17.56,15-8.41,13.9-66.58-15.36-64-9.87-28.16-2.93-28.16-2.93,17.68.73,21.09-3.9c3-4-11.22-12.68,16.34-6.83,4.73,1,31.89,5.37,45.85,3.9,13.57-1.42-18.45-9-6.1-11.22,8-1.41,43.88.95,49.93-.61,10.81-2.77-16.09-11.33,2-13.16C547,376,517.12,362.83,517.12,362.83Z" fill="#e8e8e8"/>
<path d="M65.12,489.91q4.8,6.15,10.14,11.75a162.62,162.62,0,0,0,14,13.08c18.72-5,12.07-16.61,63-13.49,53.77,3.29,40.6-1.65,31.27-9.33s90-4.39,94.37-12.07-18.11-13.17-14.27-22.49c1-2.43-3.66-5.22-11.12-8-3.57-1.34-7.78-2.69-12.32-4-22.44-6.5-52.82-12.12-52.82-12.12a2.91,2.91,0,0,0-.29.5c-.51,1.12-.09,2.23,1,3.33,6.16,6.38,33.6,12.63,26.74,18.12-8.23,6.58-78.46-10.42-56.51,4.94s-25.79,17-59.8,9.87S78.71,482,66.64,489.18A10.66,10.66,0,0,1,65.12,489.91Z" fill="#e8e8e8"/>
<path d="M392,409.78s-47.76,2.58-43.37,8.62-5.49,7.13-36.22,4.39-77.45-3.63-73.31.28-6.58,6.58-22.19,5.61-33.33.54-29.59,4.53l.81,4.49s-14.38-10-2.43-12.44,47.55-5.36,43.89-8.29,3.41-8.05,22.19-5.12,83.65,4.88,78.52,1.46S369.1,406.48,392,409.78Z" fill="#e8e8e8"/>
<path d="M352.51,511.16c-.24.4.17,1.08.91,1.5s1.53.45,1.76,0-.17-1.08-.91-1.51S352.74,510.75,352.51,511.16Z" fill="#b5bfc7"/>
<path d="M329.94,513c-.29.51.21,1.35,1.13,1.88s1.91.55,2.2,0-.22-1.35-1.14-1.88S330.23,512.45,329.94,513Z" fill="#b5bfc7"/>
<path d="M345.93,506.08c.22.62,1.32.78,2.45.37s1.86-1.26,1.63-1.88-1.33-.79-2.45-.37S345.7,505.46,345.93,506.08Z" fill="#b5bfc7"/>
<path d="M336.22,503.16c-.24.41.17,1.09.91,1.51s1.53.45,1.76,0-.17-1.08-.91-1.51S336.45,502.76,336.22,503.16Z" fill="#b5bfc7"/>
<path d="M313.65,505c-.29.51.21,1.35,1.13,1.88s1.91.55,2.2,0-.22-1.34-1.14-1.87S313.94,504.46,313.65,505Z" fill="#b5bfc7"/>
<path d="M329.63,498.09c.23.62,1.33.78,2.46.37s1.86-1.26,1.63-1.88-1.33-.79-2.46-.37S329.41,497.46,329.63,498.09Z" fill="#b5bfc7"/>
<path d="M330.16,508.88c-.13.23.1.62.52.87s.88.25,1,0-.1-.62-.52-.87S330.29,508.65,330.16,508.88Z" fill="#b5bfc7"/>
<path d="M317.23,509.91c-.17.29.12.77.65,1.08s1.09.31,1.26,0-.13-.77-.65-1.07S317.4,509.62,317.23,509.91Z" fill="#b5bfc7"/>
<path d="M326.39,506c.13.36.76.45,1.41.22s1.06-.72.93-1.08-.76-.45-1.41-.21S326.26,505.62,326.39,506Z" fill="#b5bfc7"/>
<path d="M747.34,494.21c-.3.53.23,1.41,1.19,2s2,.57,2.28.05-.22-1.41-1.18-2S747.65,493.69,747.34,494.21Z" fill="#b5bfc7"/>
<path d="M718.06,496.54c-.38.66.28,1.75,1.47,2.44s2.47.72,2.85.06-.28-1.75-1.48-2.44S718.43,495.89,718.06,496.54Z" fill="#b5bfc7"/>
<path d="M738.8,487.62c.3.81,1.73,1,3.19.48s2.41-1.63,2.11-2.43-1.72-1-3.18-.48S738.5,486.82,738.8,487.62Z" fill="#b5bfc7"/>
<path d="M726.2,483.84c-.3.53.23,1.41,1.19,2s2,.58,2.29.05-.23-1.41-1.19-2S726.51,483.32,726.2,483.84Z" fill="#b5bfc7"/>
<path d="M696.92,486.18c-.38.65.28,1.74,1.47,2.43s2.47.72,2.85.06-.28-1.75-1.47-2.44S697.3,485.52,696.92,486.18Z" fill="#b5bfc7"/>
<path d="M717.66,477.25c.3.81,1.73,1,3.19.48s2.41-1.62,2.12-2.43-1.73-1-3.19-.48S717.37,476.45,717.66,477.25Z" fill="#b5bfc7"/>
<path d="M718.34,491.26c-.17.3.13.81.68,1.12s1.14.33,1.31,0-.13-.8-.68-1.12S718.52,491,718.34,491.26Z" fill="#b5bfc7"/>
<path d="M701.56,492.6c-.21.37.17,1,.85,1.39s1.41.41,1.63,0-.16-1-.84-1.4S701.78,492.22,701.56,492.6Z" fill="#b5bfc7"/>
<path d="M713.45,487.49c.17.46,1,.58,1.83.27s1.38-.93,1.21-1.39-1-.59-1.83-.28S713.28,487,713.45,487.49Z" fill="#b5bfc7"/>
<path d="M470.46,476.61c-.3.51.22,1.37,1.15,1.9s1.92.56,2.22.05-.22-1.36-1.15-1.9S470.75,476.1,470.46,476.61Z" fill="#b5bfc7"/>
<path d="M442,478.88c-.37.63.27,1.69,1.43,2.36s2.4.7,2.77.06-.28-1.7-1.44-2.37S442.38,478.24,442,478.88Z" fill="#b5bfc7"/>
<path d="M462.16,470.21c.29.78,1.68,1,3.1.47s2.34-1.59,2.05-2.37-1.67-1-3.1-.47S461.87,469.43,462.16,470.21Z" fill="#b5bfc7"/>
<path d="M449.92,466.54c-.29.51.22,1.36,1.15,1.9s1.93.56,2.23.05-.22-1.37-1.15-1.9S450.22,466,449.92,466.54Z" fill="#b5bfc7"/>
<path d="M421.47,468.8c-.36.64.28,1.7,1.44,2.37s2.39.7,2.76.06-.27-1.7-1.43-2.37S421.84,468.17,421.47,468.8Z" fill="#b5bfc7"/>
<path d="M441.63,460.14c.28.78,1.67,1,3.09.47s2.35-1.59,2.06-2.37-1.68-1-3.1-.47S441.34,459.35,441.63,460.14Z" fill="#b5bfc7"/>
<path d="M442.29,473.75c-.17.29.12.78.66,1.09s1.1.32,1.27,0-.13-.78-.66-1.09S442.46,473.45,442.29,473.75Z" fill="#b5bfc7"/>
<path d="M426,475c-.21.37.16,1,.82,1.36s1.37.4,1.58,0-.15-1-.82-1.35S426.2,474.68,426,475Z" fill="#b5bfc7"/>
<path d="M437.53,470.08c.17.45,1,.57,1.78.27s1.34-.91,1.18-1.36-1-.57-1.78-.27S437.37,469.63,437.53,470.08Z" fill="#b5bfc7"/>
<path d="M320.27,523.49c-.34.58.25,1.56,1.32,2.17s2.21.64,2.55.06-.25-1.56-1.32-2.18S320.61,522.9,320.27,523.49Z" fill="#b5bfc7"/>
<path d="M287.69,526.08c-.43.73.31,1.95,1.64,2.71s2.74.8,3.16.07-.31-2-1.64-2.71S288.11,525.35,287.69,526.08Z" fill="#b5bfc7"/>
<path d="M310.77,516.15c.33.9,1.92,1.14,3.55.54s2.68-1.81,2.35-2.71-1.92-1.14-3.55-.54S310.44,515.26,310.77,516.15Z" fill="#b5bfc7"/>
<path d="M296.75,512c-.34.59.25,1.56,1.32,2.18s2.21.64,2.55,0-.26-1.56-1.32-2.18S297.09,511.36,296.75,512Z" fill="#b5bfc7"/>
<path d="M264.16,514.54c-.42.73.32,2,1.65,2.71s2.74.8,3.16.07-.31-1.94-1.64-2.71S264.59,513.81,264.16,514.54Z" fill="#b5bfc7"/>
<path d="M287.25,504.62c.33.89,1.92,1.13,3.55.53s2.68-1.81,2.35-2.71-1.92-1.13-3.55-.53S286.92,503.72,287.25,504.62Z" fill="#b5bfc7"/>
<path d="M288,520.2c-.2.34.14.9.75,1.25s1.26.37,1.46,0-.15-.89-.76-1.25S288.2,519.87,288,520.2Z" fill="#b5bfc7"/>
<path d="M269.34,521.69c-.25.42.17,1.12.94,1.55s1.57.46,1.81,0-.18-1.11-.94-1.55S269.58,521.27,269.34,521.69Z" fill="#b5bfc7"/>
<path d="M282.56,516c.19.52,1.1.65,2,.31s1.54-1,1.35-1.55-1.1-.65-2-.31S282.37,515.49,282.56,516Z" fill="#b5bfc7"/>
<path d="M218.58,539.29c-.34.59.25,1.57,1.32,2.18s2.21.64,2.55.06-.25-1.57-1.32-2.18S218.92,538.71,218.58,539.29Z" fill="#b5bfc7"/>
<path d="M186,541.89c-.43.73.31,1.94,1.64,2.71s2.74.8,3.16.07-.31-1.95-1.64-2.71S186.42,541.16,186,541.89Z" fill="#b5bfc7"/>
<path d="M209.08,532c.33.9,1.92,1.14,3.55.54s2.68-1.82,2.35-2.71-1.92-1.14-3.55-.54S208.75,531.06,209.08,532Z" fill="#b5bfc7"/>
<path d="M195.06,527.76c-.34.58.25,1.56,1.32,2.17s2.21.64,2.55.06-.26-1.56-1.32-2.18S195.4,527.17,195.06,527.76Z" fill="#b5bfc7"/>
<path d="M162.47,530.35c-.42.73.32,1.95,1.65,2.71s2.74.8,3.16.07-.31-2-1.64-2.71S162.9,529.62,162.47,530.35Z" fill="#b5bfc7"/>
<path d="M185.56,520.42c.33.9,1.92,1.14,3.55.54s2.68-1.81,2.35-2.71-1.92-1.14-3.55-.54S185.23,519.53,185.56,520.42Z" fill="#b5bfc7"/>
<path d="M186.32,536c-.2.34.14.9.75,1.25s1.26.37,1.46,0-.15-.89-.76-1.25S186.51,535.68,186.32,536Z" fill="#b5bfc7"/>
<path d="M167.65,537.5c-.25.42.17,1.11.94,1.55s1.57.46,1.81,0-.18-1.11-.94-1.55S167.89,537.08,167.65,537.5Z" fill="#b5bfc7"/>
<path d="M180.87,531.81c.19.51,1.1.65,2,.31s1.54-1,1.35-1.55-1.1-.66-2-.31S180.68,531.3,180.87,531.81Z" fill="#b5bfc7"/>
<rect x="323.93" y="354.64" width="14.17" height="1.45" rx="0.63" transform="translate(662.02 710.73) rotate(180)" fill="#fff"/>
<rect x="300.35" y="354.64" width="20.15" height="1.45" rx="0.63" transform="translate(620.86 710.73) rotate(-180)" fill="#fff"/>
<rect x="315.2" y="351.12" width="15.81" height="1.45" rx="0.63" transform="translate(646.21 703.68) rotate(180)" fill="#fff"/>
<rect x="308.56" y="351.12" width="4.27" height="1.45" rx="0.56" transform="translate(621.39 703.68) rotate(180)" fill="#fff"/>
<rect x="303.03" y="351.12" width="4.27" height="1.45" rx="0.56" transform="translate(610.34 703.68) rotate(180)" fill="#fff"/>
<path d="M179.16,401.33H209.8a1,1,0,0,0,1-1h0a1,1,0,0,0-1-1H179.16a1,1,0,0,0-1,1h0A1,1,0,0,0,179.16,401.33Z" fill="#fff"/>
<path d="M159.16,396.07H189.8a1,1,0,0,0,1-1h0a1,1,0,0,0-1-1H159.16a1,1,0,0,0-1,1h0A1,1,0,0,0,159.16,396.07Z" fill="#fff"/>
<path d="M124.8,401.33h44.45a1,1,0,0,0,1-1h0a1,1,0,0,0-1-1H124.8a1,1,0,0,0-1,1h0A1,1,0,0,0,124.8,401.33Z" fill="#fff"/>
<path d="M109.2,348.84h26.48a.87.87,0,0,0,.87-.87h0a.88.88,0,0,0-.87-.88H109.2a.89.89,0,0,0-.88.88h0A.88.88,0,0,0,109.2,348.84Z" fill="#fff"/>
<path d="M91.92,344.3H118.4a.88.88,0,0,0,.87-.88h0a.87.87,0,0,0-.87-.87H91.92a.88.88,0,0,0-.88.87h0A.89.89,0,0,0,91.92,344.3Z" fill="#fff"/>
<path d="M62.22,348.84h38.41a.87.87,0,0,0,.88-.87h0a.88.88,0,0,0-.88-.88H62.22a.88.88,0,0,0-.87.88h0A.87.87,0,0,0,62.22,348.84Z" fill="#fff"/>
<path d="M594.42,274.19s-1.62,3.94,10.38,5c1.07-.18,6.41-.2,6.41-.2s-.27-6.7,1.09-9.39a8.49,8.49,0,0,0-5.8,1.67S598.78,277,594.42,274.19Z" fill="#0071f2" data-primary="true"/>
<path d="M594.42,274.19s-1.62,3.94,10.38,5c1.07-.18,6.41-.2,6.41-.2s-.27-6.7,1.09-9.39a8.49,8.49,0,0,0-5.8,1.67S598.78,277,594.42,274.19Z" opacity="0.2"/>
<path d="M656.31,204.43s2.4.8,3-4.74l-3.68,4.19S655.85,204.43,656.31,204.43Z" fill="#0071f2" data-primary="true"/>
<path d="M656.31,204.43s2.4.8,3-4.74l-3.68,4.19S655.85,204.43,656.31,204.43Z" opacity="0.2"/>
<path d="M590.87,222.16s-4.59-4.32-2.69-13.38l6.11,5.9S592.51,219.94,590.87,222.16Z" fill="#0071f2" data-primary="true"/>
<path d="M590.87,222.16s-4.59-4.32-2.69-13.38l6.11,5.9S592.51,219.94,590.87,222.16Z" opacity="0.2"/>
<path d="M671.48,259.67s9.13,10.75,7.71,20.68l-.49,4.25s-9.6-7.24-21.9-5.54l.23-3,4.11.44A47.87,47.87,0,0,1,663.33,265a36.26,36.26,0,0,0,1.39-4.62Z" fill="#2f2e41" data-secondary="true"/>
<path d="M671.48,259.67s9.13,10.75,7.71,20.68l-.49,4.25s-9.6-7.24-21.9-5.54l.23-3,4.11.44A47.87,47.87,0,0,1,663.33,265a36.26,36.26,0,0,0,1.39-4.62Z" opacity="0.2"/>
<path id="ef084974-e178-4233-97e6-5649abbdb8e1" data-name="SVGID" d="M292.44,603.83a24,24,0,0,0-4.39.58c-7.05,1.68-22.95,6.31-10.94,11.64,0,0,27.43,11.76,84.54,14l118.14,9s32.47-1.12,86.78,2.8c0,0,70,8.4,124.3-10.08,0,0,19-6.72,30.24-7.28,0,0,41.43-8.4,24.07-25.75a41.88,41.88,0,0,0-18.34-6.58,18.93,18.93,0,0,1-6-1.58c-12.95-5.87-63.65-27.49-97.12-22.64,0,0-24.07,2.24-42-2.24l-26.31-3.92s-28-6.71-58.23,1.12c0,0-49.27,9.52-70,8.4,0,0-63.83-5.6-84,11.76,0,0-16.14,9.16-27.63,12.47a61.51,61.51,0,0,0-9.45,3.56C301.76,601.09,295.78,603.64,292.44,603.83Z" fill="#d3d4d8"/>
<g clip-path="url(#a4054f75-7317-4e7c-9632-e624e11c4de4)">
<path d="M285,604.3A105.75,105.75,0,0,0,312.6,603a78.32,78.32,0,0,0,36.24-17.15c7.82-6.49,24.59-16.48,50.32-11.8,0,0,25.76,9.52,50.4.56,0,0,70.33-18.56,91.53-12.71,0,0,59.23,17.18,74.58,6.21l-12.43-19L485.52,522.06,326.86,547.28Z" fill="#d3d4d8" opacity="0.2"/>
</g>
<path d="M591.46,607.79a50.69,50.69,0,0,1,22.42.22,19.14,19.14,0,0,0,9.43.12s1.64-.2,3.84-.27c0,0,8.6-2.7,11.79-3.29l-17-5.76-1.55,1.74a6.89,6.89,0,0,1-5,2.33C608.81,603,593.56,603.75,591.46,607.79Z" opacity="0.2"/>
<path d="M638.94,604.57s-.16-6.2,5-4.63c0,0,20.18,11,39,12.11,0,0-25.79-1.8-41,7.62,0,0-7.63,6.5-13.91,4.71,0,0,7.4-2.69,8.75-8.75a13.73,13.73,0,0,1,10.54-6.72S645.39,603.59,638.94,604.57Z" opacity="0.2"/>
<path d="M691.14,578.7s-22.34,11.17-44.29-10.4A184.93,184.93,0,0,1,691.14,578.7Z" opacity="0.2"/>
<path d="M610.8,300.08c-10.78,3.6-39.52,25.63-39.52,25.63-42.16,30.42-53.4,58.28-53.4,58.28s.54-1.2,5-1.12a12.93,12.93,0,0,1,3.33.53c2.78.81,7.39,2.36,7.37,5l2,2.45s3.35-8.14,9.34-11.5l23.71-17.72s21.84-12.2,27.26-17.38a.34.34,0,0,1,.57.3c-1,5.64-5.45,31.39-6.51,53,0,0-2.39,21.08-11.49,32.57,0,0,21.31-6.94,33.29-1.91,0,0,54.37,22.75,75.45,6.22,0,0,4.07-2.87-.48-13.65,0,0-4.28-12.95-7.28-23.33a39.42,39.42,0,0,1-.31-20.76L682.42,364a30.79,30.79,0,0,0,.74-3.9c1.08-8.91,5-44.51-.26-59.75Z" fill="#0071f2" data-primary="true"/>
<path d="M568.64,361.64s20.12-16.53,23.72-28c0,0,6-27.07,10.78-29.94l7.66-3.6,15.09.24s2.16,14.37,3.35,20.12c0,0-5.86,22.73-2.69,31.73a4.05,4.05,0,0,0,3.59,2.65l10.12.59s13.42,1,14.61-12l2.64-27.07,8.38-6.23,17-9.82s6.23,11.12-.48,63.65l-3.28,12.74s-3.41,10.4,1.11,23.51L684.13,413s-4.59,4.21-28.54-17.35c0,0-8.86-6.47-15.09-4.07,0,0-6.23-.48-8.62-2.63,0,0-5.51,0-11,7.18,0,0-28.74,30.18-26.83,11.74,0,0,1.44-7.43-3.59-18.45q1.17-12,2.94-24.84,1.44-10.36,3.15-20.11c-.18-.11-.4-.44-.56-.3C594.26,345.67,588.06,350.89,568.64,361.64Z" opacity="0.2"/>
<path d="M578.47,430.14s1.07.78,2.49,1.9a28.15,28.15,0,0,0,16.42,6.08h1l-.82-11.79S584.89,427.64,578.47,430.14Z" fill="#0071f2" data-primary="true"/>
<path d="M578.47,430.14s1.07.78,2.49,1.9a28.15,28.15,0,0,0,16.42,6.08h1l-.82-11.79S584.89,427.64,578.47,430.14Z" opacity="0.2"/>
<path d="M594.52,426.61s3.3,20,9.68,32.57a47.81,47.81,0,0,1,2.93,7c2.46,7.72,7.62,24.35,9.88,35,0,0,9.59-14.81,31.26-10.15l-4.12-53.19a162.17,162.17,0,0,1-32.39-9.63S607.14,425.24,594.52,426.61Z" fill="#2f2e41" data-secondary="true"/>
<path d="M594.52,426.61s3.3,20,9.68,32.57a47.81,47.81,0,0,1,2.93,7c2.46,7.72,7.62,24.35,9.88,35,0,0,9.59-14.81,31.26-10.15l-4.12-53.19a162.17,162.17,0,0,1-32.39-9.63S607.14,425.24,594.52,426.61Z" opacity="0.2"/>
<ellipse cx="614.03" cy="578.83" rx="4.61" ry="1.03" transform="translate(-197.47 347.45) rotate(-27.4)" opacity="0.2"/>
<ellipse cx="621.5" cy="574.99" rx="3.24" ry="1.03" transform="translate(-194.87 350.45) rotate(-27.4)" opacity="0.2"/>
<ellipse cx="615.78" cy="574.39" rx="3.24" ry="1.03" transform="translate(-195.23 347.75) rotate(-27.4)" opacity="0.2"/>
<path d="M668.1,515.27c-3.86.59-11.52.56-20.11-6.12l-2.47-18.65,2.75.55-4.12-53.19s27.58,6.94,41.68-2.47c0,0-7.9,54.79-14.36,76.91A4.2,4.2,0,0,1,668.1,515.27Z" fill="#2f2e41" data-secondary="true"/>
<polygon points="533.7 391.2 535.59 390.86 533.54 387.16 532.45 389.64 533.7 391.2" fill="#0071f2" data-primary="true"/>
<polygon points="533.7 391.2 535.59 390.86 533.54 387.16 532.45 389.64 533.7 391.2" opacity="0.2"/>
<path d="M455.87,380.79s45.09,21.25,52,23.8l6.71-11.11s-16-4.2-37.31-22.94C477.3,370.54,471.6,378.71,455.87,380.79Z" fill="#f9b499"/>
<path d="M517.88,384c-3.75,3.91-17.62,19.15-10,23.37,0,0,.7,2.78,5.32,2.78,0,0-.23,2.77,4.4,2.08a2.6,2.6,0,0,0,3.81,1.1,4.9,4.9,0,0,0,1.92-2.34c1.17-2.87,4.53-10.67,4.91-6.86,0,0-1.79,4.27-1.51,7.76a1.53,1.53,0,0,0,3,.26,10.33,10.33,0,0,0,.49-2.15,9.82,9.82,0,0,1,1.28-3.66l.2-.36a15.46,15.46,0,0,0,2.07-8l-.15-9.59a3.05,3.05,0,0,0-1.08-2.3c-1.64-1.41-5.36-3.58-12.42-3.15A3.35,3.35,0,0,0,517.88,384Z" fill="#f7a48b"/>
<polygon points="617.01 501.2 622.6 500.11 620.49 494.63 617.01 501.2" fill="#2f2e41" data-secondary="true"/>
<path d="M664.44,515.18s-10.42,58.4-23,71.29a19.39,19.39,0,0,0-3.29,11l.82,7.13a112.1,112.1,0,0,0-11.79,3.29,9.46,9.46,0,0,1-3.84.27s-5.75-25.77-.82-29.89a3.88,3.88,0,0,1,2.36-1.41,9.68,9.68,0,0,0,4.64-2.32A24.88,24.88,0,0,0,637,563.44l11-54.29S654,514.4,664.44,515.18Z" fill="#f7a48b"/>
<path d="M401.9,608.18s5.24,0,7.42,3.05c0,0,4.8-5.23,31,1.31l5.38.18S422.1,598.52,401.9,608.18Z" opacity="0.2"/>
<path d="M380.38,589.21l-6.91.85s13.71,5.21,22.48,3.29a13.32,13.32,0,0,1,12.07,0l4.11,2.46-1.92-10.69s-4.28-2.24-6,.8l-17.05,0Z" opacity="0.2"/>
<path d="M432.2,520.12s-4.24,28.7-24.63,36.1a8.1,8.1,0,0,0-5.3,9.23,1.16,1.16,0,0,1,0,.18s2.2,12.89,1.92,20.29c0,0-3,.55-10.42,4.66,0,0-3.29,2.47-9.32-.55l-4.11-.82s1.92-7.68,4.11-13.43a45,45,0,0,0,.28-17.28s-2.55-11.1,4.68-15a9.08,9.08,0,0,1,2.87-.91c1.65-.28,6-2.08,10.27-12.85l14.53-22.21L429.18,510Z" fill="#f9b499"/>
<path d="M392.32,542.56l-2.87.91c-6.83,3.88-5.23,12.84-5.23,12.84s5.76,4.66,4.11,14.81c0,0-3.29,12.61,2.19,12.88,0,0,6.31,1.37,4.66-26.59l-1.37-6.59s8.5-.27,6.86-16.72C400.67,534.1,396.86,541.7,392.32,542.56Z" fill="#f7a48b"/>
<path d="M399.85,513.26l14,96s12.89-1.37,19.47,1.92c0,0-1-2-3.37-5.7a9.31,9.31,0,0,1-1.45-4.43c-.69-11-3.24-56.68-.12-82.82L431.65,505S397.38,500.65,399.85,513.26Z" fill="#f9b499"/>
<path d="M413.28,605.12s8,2.19,11.24-4.39l3.57-9.32.39,9.61s0,.93,1.45,4.43l3.37,5.7s-4.39-3-19.47-1.92Z" fill="#f7a48b"/>
<path d="M341.91,335.86l8.45,27.5s.81,4.35,3.6,6.35l11.64-14.25L355,344Z" fill="#0071f2" data-primary="true"/>
<path d="M341.91,335.86l8.45,27.5s.81,4.35,3.6,6.35l11.64-14.25L355,344Z" opacity="0.2"/>
<path d="M424.92,310.71s-1.06,8.24,6.65,8.77c0,0,11.69-6.91,13.82-.8,0,0-6.38.27-6.65,5.58L416.42,324l-.27-12.76Z" fill="#2f2e41" data-secondary="true"/>
<path d="M355.82,323.2s27.64-4,32.69-3.19c0,0,10.1,18.07,12.49,25,0,0,4.11,11.19,12.31,14.67a6.92,6.92,0,0,0,8.1-2.06c3.91-4.91,10.56-16,11.49-35.73,0,0,14.88,0,26.31,22.32,0,0,10.24,17.07,19.74,22.95a1.39,1.39,0,0,1,.41,2C476.59,373,466.52,384,443,380.87c0,0-2.66,9.3.26,23.39,0,0,9,58.73,2.92,71.75a87.75,87.75,0,0,0-5.31,21.8s-3.46,25.78-9.57,22.06a6.88,6.88,0,0,1-1.51-.49,4.84,4.84,0,0,1-2.79-4.22c-.06-1.15-.68-2.7-3.19-3.72a10,10,0,0,0-5.51-.52c-7.21,1.28-34.43,5.19-60.88-3,0,0-6.11-1.6-14.88-8.51,0,0-7.71-5.84-23.39-1.86,0,0-9-29,27.11-62.19l17.27-15.94s9.57-6.91,10.63-18.87c0,0,3.72-33-6.38-30.83l-6.73-.34a8.36,8.36,0,0,0-5.69,1.77c-.86.69-1.66.83-1.4-1.43,0,0-2.26-13,.68-24.28a52.15,52.15,0,0,0,1.55-16.65Z" fill="#0071f2" data-primary="true"/>
<path d="M353.85,370.47s5.6-5.05,18.14-6.4a2.69,2.69,0,0,0,2.36-2.13c.73-3.51,1.52-11.1-3.15-17.57,0,0-11.7-9.81-15-15.59l-.37-5.58s22.73-3.73,32.69-3.19c0,0-2.45,9.3-1.23,14.59,0,0-.41,12-5.7,17.5a43.72,43.72,0,0,0-3.46,23.2s7.94,32.57-14,43.35a26.6,26.6,0,0,0,10.08-18.11S378,368,367.78,369.71l-6.73-.34s-2.2-.36-5.69,1.77C355.36,371.14,354.12,372.74,353.85,370.47Z" opacity="0.2"/>
<path d="M418,314.57l-.2,6.14a1.5,1.5,0,0,0,1.38,1.54l8.15.68s.92,24.32-8.47,31.45a3.36,3.36,0,0,1-3.94,0c-3-2.12-8.94-6.62-9.92-10,0,0-8-17.81-14.35-24.45,0,0,13.29.53,7.71-11.16,0,0,2.39-2.13,2.92-3.72C401.27,305.13,407.55,314.74,418,314.57Z" fill="#f9b499"/>
<path d="M417.9,320.16l.13-7-12.61-7.82S407.48,316,417.9,320.16Z" fill="#f7a48b"/>
<ellipse cx="412.32" cy="292" rx="15.81" ry="23.66" transform="translate(-71.63 146.86) rotate(-18.61)" fill="#f9b499"/>
<path d="M420.44,275.19s1.15-10.95-11.89-12.16c-11.59-1.07-23.18,7.7-25.82,19.05a54.69,54.69,0,0,0-1.27,9,9.6,9.6,0,0,1-2.26,5.69,11.85,11.85,0,0,0-2.82,5.92,5,5,0,0,1-4.76,4.48,6.72,6.72,0,0,1-1.71-.2s-10.57-2.62-11,8.74a6.17,6.17,0,0,1-.16,1.21c-.39,1.57-1.08,6.92,5.85,11.84,0,0,2.4,1.33,3.73,6.91,0,0,2.39-.8.53-12.76a3.75,3.75,0,0,1,4.78-3.45,22.17,22.17,0,0,0,1.6,7.44,34.88,34.88,0,0,1-.27,10.63s.27,6.64,4,8.77c0,0,.53-4.52,3.19-6.38,0,0,4.25-3.19,0-8.77,0,0-1.33-8.5,6.37-11.16,0,0,15.68,1.86,9.84-11.16,0,0,6.64-4,2.39-14.89,0,0,12.22-3.18,12.22-15.94C413,278,413.53,269.08,420.44,275.19Z" fill="#2f2e41" data-secondary="true"/>
<path d="M388.51,320s10.63,19.4,12.49,25c0,0,4.36,12.86,13.62,15.31a6.47,6.47,0,0,0,6.41-1.9c3.77-4.12,11-14.53,11.87-36.53l-5.58,1.06s.92,23.82-8.44,31.33a3.35,3.35,0,0,1-4,.08c-3-2.16-8.69-6.58-9.85-9.88,0,0-8-18.07-14.35-24.45Z" fill="#0071f2" data-primary="true"/>
<path d="M388.51,320s10.63,19.4,12.49,25c0,0,4.36,12.86,13.62,15.31a6.47,6.47,0,0,0,6.41-1.9c3.77-4.12,11-14.53,11.87-36.53l-5.58,1.06s.92,23.82-8.44,31.33a3.35,3.35,0,0,1-4,.08c-3-2.16-8.69-6.58-9.85-9.88,0,0-8-18.07-14.35-24.45Z" fill="#fff" opacity="0.2"/>
<path d="M331.37,496.48s14.22-46.52,40.86-59.79c.68-.34,1.38-.63,2.08-.91,4.49-1.81,23.61-10,28.29-19.83,0,0-1.4,13.32-13.84,24.18a85.65,85.65,0,0,0-10.67,11c-8.73,10.94-21.37,31.29-20.67,56.82,0,0-5.32-1.07-14.88-8.51C342.54,499.4,338.55,496.48,331.37,496.48Z" opacity="0.2"/>
<path d="M383.46,512.69s8.59-5.81,6.81-28.26a.48.48,0,0,1,.89-.29c1.78,2.94,5.31,10.88,6.68,28.85C397.84,513,389.05,513.22,383.46,512.69Z" opacity="0.2"/>
<path d="M427,515.16s-10.15-61.22,2.46-68.71c0,0,3.29-.73,1.83,17.18,0,0-.55,40.22,4.57,53.74,0,0-1.8,4.44-4.56,2.5C431.3,519.87,427.11,519.34,427,515.16Z" opacity="0.2"/>
<path d="M355,344s-18.24-10.35-25.32-18c0,0-7.35-9.53,3.81-13.07,0,0,31.32-7.62,37.58-15.79a33,33,0,0,0,8.44-15.25s.33-4.33,4-2.42a51.82,51.82,0,0,0-2.06,11.58s-.11,4.21-2.27,5.69a10.87,10.87,0,0,0-2.81,5.92A5,5,0,0,1,373,307a5.21,5.21,0,0,1-2.54.16c-2.42-.42-9.77-1.15-10.89,5.29,0,0-.71,3.29-1.09,5.86l-6.8,3.67,4.1,1.23S357.43,330.41,355,344Z" fill="#f9b499"/>
<path d="M350.63,341.3s3.76-8.28-2.92-15a.57.57,0,0,1,.28-1,4.56,4.56,0,0,0,3.73-3.39l4.1,1.23A61.36,61.36,0,0,1,355,344Z" fill="#f7a48b"/>
<path d="M395.4,382.05a28.27,28.27,0,0,0,6.47-3,18,18,0,0,0,5.16-4.7c.34-.47.6-1,.92-1.48a8.5,8.5,0,0,1,1.11-1.56,8.16,8.16,0,0,1,3.18-2.15,7.07,7.07,0,0,1,3.87-.33,7.81,7.81,0,0,1,3.45,1.75,10.21,10.21,0,0,1,1.35,1.36c.4.49.74,1,1.07,1.5.67,1,1.41,1.89,2.16,2.8a36.85,36.85,0,0,0,5.05,4.94,24.52,24.52,0,0,0,6.05,3.6,18.24,18.24,0,0,0,6.95,1.37,17.1,17.1,0,0,1-7.16-.78,22.92,22.92,0,0,1-6.45-3.4,33.94,33.94,0,0,1-5.36-4.94c-.8-.93-1.56-1.88-2.26-2.87-.37-.52-.67-1-1-1.42a9.47,9.47,0,0,0-1.18-1.19,6.62,6.62,0,0,0-2.89-1.49,5.93,5.93,0,0,0-3.2.23,7,7,0,0,0-2.77,1.79,7.29,7.29,0,0,0-1,1.33c-.33.49-.66,1.05-1,1.53a17.51,17.51,0,0,1-5.65,4.64,24.42,24.42,0,0,1-3.31,1.48A21.14,21.14,0,0,1,395.4,382.05Z" opacity="0.2"/>
<path d="M443,380.87s4.59-9.94.66-23.52c0,0-2.78-5.56-2.61-15.38,0,0,.32,9.65,6.7,16.36a31.94,31.94,0,0,1,5.57,11.13s4.74,9,10,10.14C463.3,379.6,458.2,382.3,443,380.87Z" opacity="0.2"/>
<path d="M618.93,499s4.38,53.74,20,83.63c0,0,9.81,15.62,7.61,34.54,0,0,10.37-4,17.62-4.38a131,131,0,0,0-5.21-24.4s-6-28.79-8-52.65l-3-27.69-2.47-17.55S629.66,487.28,618.93,499Z" fill="#f9b499"/>
<path d="M626.83,307.88s3.75-9.84,5.06-14.21l.79.62,5.21,37.8s15.22-21.67,23.06-26.51c0,0,1.62,5.3,1.62,7.37l-5.06,3.42L652,323.56s-4.36,7.2-9.46,9.75a21.2,21.2,0,0,0-4.28,2.71,22.41,22.41,0,0,0-3.89,3.91.48.48,0,0,1-.87-.16l-4.22-19.33Z" fill="#0071f2" data-primary="true"/>
<path d="M626.83,307.88s3.75-9.84,5.06-14.21l.79.62,5.21,37.8s15.22-21.67,23.06-26.51c0,0,1.62,5.3,1.62,7.37l-5.06,3.42L652,323.56s-4.36,7.2-9.46,9.75a21.2,21.2,0,0,0-4.28,2.71,22.41,22.41,0,0,0-3.89,3.91.48.48,0,0,1-.87-.16l-4.22-19.33Z" fill="#fff" opacity="0.2"/>
<path d="M632.59,293.82l5.3,38.27s13.84-20.52,23.06-26.51c0,0-5.3-18-3.92-29.52l-3.46.7S646.89,297.05,632.59,293.82Z" fill="#f7a48b"/>
<path d="M660.72,365.29s3.69-35.74,1.85-52.34c0,0-6.23-22.13-5.77-33.89,0,0,10.38-2.3,21.9,5.54l3,22.13a87.75,87.75,0,0,1-1.38,32.51s-6,21.67-5.53,25.13Z" fill="#f9b499"/>
<path d="M641.51,321.71a1.15,1.15,0,0,1-1.87-.48c-1.67-5-6.26-20-2.44-22.11a47.24,47.24,0,0,0,11.85-5.66,1.63,1.63,0,0,1,2.29.41l6.18,8.93a2.42,2.42,0,0,1-.24,3.05C654,309.28,645.58,318,641.51,321.71Z" fill="#f9b499"/>
<path d="M611.15,286l-8.53,27.2s-3,4.85-1.38,15.22l5.3,59.49s3.23,1.84,6.22-1.62c0,0,6.69-4.61,7.38-6.91,0,0,1.38-44.5-.23-54.19l6.92-17.29s2.65-6.73,4.38-12.45l.68-1.76A19.66,19.66,0,0,1,626.6,286,41.12,41.12,0,0,0,611.15,286Z" fill="#f9b499"/>
<path d="M611.15,286s-.92-12.68,1.15-16.37a44.91,44.91,0,0,1,10.88-1.21s-.29,11.71,3.42,17.58C626.6,286,616.81,284.22,611.15,286Z" fill="#2f2e41" data-secondary="true"/>
<path d="M611.15,286s-.92-12.68,1.15-16.37a44.91,44.91,0,0,1,10.88-1.21s-.29,11.71,3.42,17.58C626.6,286,616.81,284.22,611.15,286Z" opacity="0.2"/>
<path d="M603.53,353.17s15.76-.66,16.38-28c0,0,2.19,13.63.23,54.19a16,16,0,0,1-3.63,3.83s-.81-5.89-10.54-1.63Z" fill="#f7a48b"/>
<path d="M637.55,364.1l-12.89-2.24a6.62,6.62,0,0,1-3.24-1.68l-2.9-2.76a11.62,11.62,0,0,0-8.62-3.18l-5.22.27a1.53,1.53,0,0,0-1.45,1.63h0a1.54,1.54,0,0,0,1.59,1.43l6.87-.28a1.41,1.41,0,0,1,1.47,1.52h0a1.42,1.42,0,0,1-1.55,1.32l-8.21-.79a2.32,2.32,0,0,0-2.11.87c-.64.88-1,2.45.42,5.13,0,0-2,4.26.61,4.87,0,0-1,3.65,1.21,3.85,0,0-2.63,3.45,3.86,3.85,0,0,7.3,1.83,13-.4,0,0,13.7,1,16.94,3.06a39.62,39.62,0,0,0,.24-6.13,45,45,0,0,0-.84-5.26C636.44,367.71,636.33,365.32,637.55,364.1Z" fill="#f9b499"/>
<path d="M594.39,273.36a.89.89,0,0,0,.46,1.36c2.13.64,6.77,1.24,11.88-3.16,0,0,1.55-1.71,5.57-1.95l10.88-1.21s39-7.79,48.3-8.73c0,0,.73-2.23-3.84-9,0,0-14.62-42.59-13.34-45l2-1.28s-5.48-3.48-3.47-13.53c0,0,3.38-12.52-1.65-9.32L640,188.52s2.19,7.5-2.19,9.69L627,204.81a10,10,0,0,1-6.15,1.48c-3-.29-6.33-2-6.23-8.26,0,0-2.74,4-6.94,1.64l-11-6.58s1.26,17.85-5.85,29.07c0,0,.55,1.64,4.2,1.28,0,0,2.33-.83,3,4.93,0,0,4.11,24.95,1.1,35.1C599.19,263.47,596.21,270.71,594.39,273.36Z" fill="#0071f2" data-primary="true"/>
<path d="M594.29,214.68s-36.7-31.82-48.74-44.66a3.63,3.63,0,0,0-3.25-1.12,13.69,13.69,0,0,1-9-1.76S526,171.3,522.88,170a.41.41,0,0,1-.22-.5,2.35,2.35,0,0,1,1.93-1.43,9.31,9.31,0,0,0,1.8-.53c2.4-1,7.75-3.51,4.42-4.84,0,0-10.75-.63-10.54-3.16,0,0-.21-1.69,6.54-.42l2.31.21s1.52-.67-.56-1.27a16.73,16.73,0,0,1-3.13-1.28c-2.6-1.37-6.15-3.64-2.7-4.36,0,0-3.09-3.21.92-2.15l5.13,2.77a9.58,9.58,0,0,0,5.38,1.11,34.86,34.86,0,0,1,4.21-.11.26.26,0,0,0,.25-.38c-.6-1.28-2.32-5.29-1.1-7a.73.73,0,0,1,1.24.08c1.34,2.51,6.1,11,11.19,14.18.8.5,1.6,1,2.36,1.59L597,195.38S596.82,206,594.29,214.68Z" fill="#f9b499"/>
<path d="M593.23,192.63s-.7,11.28-5.33,16.55l6.39,5.5a62.78,62.78,0,0,0,2.68-19.3Z" fill="#f7a48b"/>
<path d="M614.38,190.46s2,4.8.25,7.57c0,0-.92,8.7,7.35,8.36a10.54,10.54,0,0,0,5-1.57l10.85-6.61s4.27-1.37,2.19-9.69c0,0-2.57,3.87-4.6,1.46Z" fill="#f9b499"/>
<path d="M614.38,190.46a8.92,8.92,0,0,1,.25,7.57s17.5,8.69,21-8.11Z" fill="#f7a48b"/>
<path d="M653.8,182.33s20.42-14.65,36.14-30.37l10.24-9.14a43.2,43.2,0,0,0,6.22-8.77s2-5,4-4.94c0,0,1.36-.62-.14,6.45a.79.79,0,0,0,.86.95c1.91-.23,5.88-.88,8.05-2.64,0,0,6.28-5,6.93-3.51,0,0,2.64,1.18-3.54,5.45a.09.09,0,0,0,.09.16c2.31-1.08,6.68-2.79,5.06.48,0,0,1.1,3.47-6.86,6.76,0,0-.54.82.37.82,0,0,6.21-.55,6.31.46,0,0,1.11,2.58-6.82,2.15a4.15,4.15,0,0,0-1.52.21c-2,.65-7.73,2.34-12.72,2.12a2.72,2.72,0,0,0-2.13.89c-6.06,6.78-41.39,46.28-45.1,49.83l-3.68,4.19s-4.7-3.73-2.74-13A30.92,30.92,0,0,0,653.8,182.33Z" fill="#f9b499"/>
<line x1="720.88" y1="140.06" x2="727.73" y2="136.45" fill="none" stroke="#f7a48b" stroke-miterlimit="10"/>
<path d="M590.87,222.16a18.26,18.26,0,0,0,10.84-8.24s7.56,25.83-2.52,49.55c0,0,2.78-6.93-.52-31.15,0,0-.8-10.28-3.6-8.88C595.07,223.44,592,224,590.87,222.16Z" opacity="0.2"/>
<path d="M654.84,203.33s-2.77,2.33-5.84,1.75c0,0,6.28,18.67,13.57,30.06,0,0-9.55-27.61-8.27-29.43a6,6,0,0,0,2-1.28Z" opacity="0.2"/>
<path d="M627.74,210.57a35.22,35.22,0,0,1-.29,7.25,43.29,43.29,0,0,1-1.61,7.09c-.34,1.16-.82,2.28-1.25,3.42s-1,2.23-1.58,3.28a35.5,35.5,0,0,1-4,6c.32-.51.64-1,1-1.52a17.09,17.09,0,0,0,.94-1.54l.89-1.56c.29-.53.54-1.08.81-1.61.54-1.07,1-2.19,1.47-3.28s.86-2.24,1.18-3.4a49,49,0,0,0,1.73-7q.31-1.77.51-3.57C627.62,213,627.7,211.78,627.74,210.57Z" opacity="0.2"/>
<ellipse cx="558.92" cy="615.53" rx="4.63" ry="1.98" opacity="0.2"/>
<ellipse cx="566.85" cy="619.39" rx="3.31" ry="1.65" opacity="0.2"/>
<ellipse cx="517.7" cy="601.64" rx="4.63" ry="1.98" opacity="0.2"/>
<ellipse cx="500.9" cy="570.73" rx="4.61" ry="1.43" transform="translate(-24.41 22.39) rotate(-2.5)" opacity="0.2"/>
<ellipse cx="365.3" cy="581.48" rx="4.61" ry="1.43" transform="translate(-25.01 16.48) rotate(-2.5)" opacity="0.2"/>
<ellipse cx="513.36" cy="567.22" rx="3.89" ry="1.43" transform="translate(-130.06 153.35) rotate(-15.1)" opacity="0.2"/>
<ellipse cx="378.4" cy="580.27" rx="3.89" ry="1.43" transform="translate(-138.12 118.63) rotate(-15.1)" opacity="0.2"/>
<ellipse cx="503.8" cy="565.09" rx="3.29" ry="0.9" transform="translate(-129.83 150.78) rotate(-15.1)" opacity="0.2"/>
<ellipse cx="343.54" cy="610.31" rx="4.02" ry="1.43" opacity="0.2"/>
<ellipse cx="355.37" cy="611.99" rx="1.43" ry="3.89" transform="translate(-295.05 890.88) rotate(-83.07)" opacity="0.2"/>
<ellipse cx="352.11" cy="605.75" rx="0.9" ry="3.29" transform="translate(-291.72 882.15) rotate(-83.07)" opacity="0.2"/>
<ellipse cx="369.26" cy="577.15" rx="3.29" ry="0.9" transform="matrix(0.97, -0.26, 0.26, 0.97, -137.62, 116.15)" opacity="0.2"/>
<ellipse cx="527.84" cy="604.29" rx="3.31" ry="1.65" opacity="0.2"/>
<path d="M609.32,292.2l1.83-6.22a36,36,0,0,1,15.45,0,26.37,26.37,0,0,0,5.29,7.69l-3.5,10.72S623.8,291,609.32,292.2Z" fill="#f7a48b"/>
<ellipse cx="639.16" cy="270.07" rx="16.02" ry="26.51" fill="#f9b499"/>
<path d="M625.84,255s-3.44-2.43-.61-12.37a6.05,6.05,0,0,1,3.25-6.29s12.78-9.53,14.81-.81a5.38,5.38,0,0,0,4.46,2.84s24.54-1.42,17.44,21.7c0,0-3.85,10.35-4.05,16.43l-4.11-.44-1.57-8.69s-2.24,0-3.86,3.86c0,0-3.4-2.72-1.79-8.63a11.71,11.71,0,0,0,.3-4.71,16.84,16.84,0,0,0-2.52-7.13,5.72,5.72,0,0,0-7.94-1.15c-2.11,1.5-5.9,3.48-8.94,1.13C630.71,250.74,628.89,247.7,625.84,255Z" fill="#2f2e41" data-secondary="true"/>
<ellipse cx="655.83" cy="271.83" rx="5.43" ry="4.03" transform="translate(49.37 640.9) rotate(-53.84)" fill="#f9b499"/>
<ellipse cx="624.84" cy="177.28" rx="14.33" ry="19.28" fill="#f9b499"/>
<path d="M637.46,186.39a34.52,34.52,0,0,0,1.36-12.81,4.19,4.19,0,0,0-2-3.21c-2.95-1.69-3.11-7.1-3.11-7.1-.21,8.43-7.16,6.95-7.16,6.95,2.1-6.32-1.48-9.06-1.48-9.06-2.32,10.32-11.8,10.11-11.8,10.11l3.06-4.58a2.29,2.29,0,0,0,.4-1.29,1.14,1.14,0,0,0-1-1.24,2,2,0,0,0-2,.87c-3.67,6-3.2,13.6-2.63,17.46a14.89,14.89,0,0,0,1.63,4.94c.37.69.74,1.35,1.09,2a9.49,9.49,0,0,1,.81,8.64h0c-3.16,5.27-6.94,1.64-6.94,1.64l-9-5.36c-.91-.55-1.69-.12-1.73.95l0,.12c-13.69-14.12-10.48-24.11-10.48-24.11s4.38,5.38,16.64-7.49a.57.57,0,0,0-.46-1c-3.2.3-10.56.46-13.65-3.77,0,0,7.81,3,14.42.91a7.84,7.84,0,0,0,3.85-2.75c3.23-4.3,14-16.07,26.61-2.37C633.9,154.84,647.57,167.42,637.46,186.39Z" fill="#2f2e41" data-secondary="true"/>
<ellipse cx="610.39" cy="181.09" rx="3" ry="4.85" transform="translate(-8.77 329.46) rotate(-30)" fill="#f9b499"/>
<path d="M522.73,152.44s4.38,2.94,7.81,3.76" fill="none" stroke="#f7a48b" stroke-miterlimit="10"/>
<path d="M606.6,387.82s-1.43-.06-1.9,3.66a4.28,4.28,0,0,0,0,.52,10.75,10.75,0,0,1-.28,2.26c-.57,2.52-1.86,7.62-3.44,9.79,0,0-4.45,7.44,2.61,6.29A32.63,32.63,0,0,0,614.89,398s3.12-4.43,5.58-6.07c0,0,8.16-3.82-.27-12.67a29.41,29.41,0,0,1-7.4,6.8S610.23,389.69,606.6,387.82Z" fill="#2f2e41" data-secondary="true"/>
<path d="M656.77,385.64s16.54,22.09,22.1,22.33c0,0,4.39,0,.81-6.6,0,0-4.36-12.47-3.44-14.78,0,0-9.55.31-14.68-.79A10.72,10.72,0,0,0,656.77,385.64Z" fill="#2f2e41" data-secondary="true"/>
<path d="M636.71,369.18c-.48-2.39-.69-7.05,5.38-6,0,0,6.53-.53,11.23.72a23.86,23.86,0,0,0,5.09.85c5.06.25,14.85.46,20.22-1.16a5.17,5.17,0,0,0,3.6-4.29c1.19-8.92,4.75-39.71-.1-58.86,0,0,17-.28,15.26,16.28,0,0,.22,14.49,1.53,19.32,0,0,5.24,51.38-9.73,50.06a16.91,16.91,0,0,0-3.1.08c-4.66.45-16,1.28-24.53-.37a15.38,15.38,0,0,0-5.11-.12c-6.22.91-20.94,2.54-19.39-2.73a50,50,0,0,0,.36-8A34.87,34.87,0,0,0,636.71,369.18Z" fill="#0071f2" data-primary="true"/>
<line x1="601.71" y1="365.34" x2="609.88" y2="366.42" fill="none" stroke="#f7a48b" stroke-miterlimit="10"/>
<line x1="602.32" y1="370.21" x2="609.77" y2="371.09" fill="none" stroke="#f7a48b" stroke-miterlimit="10"/>
<line x1="603.53" y1="374.06" x2="609.77" y2="374.59" fill="none" stroke="#f7a48b" stroke-miterlimit="10"/>
<line x1="507.9" y1="407.36" x2="512.46" y2="399.21" fill="none" stroke="#f9b499" stroke-miterlimit="10"/>
<line x1="513.22" y1="410.14" x2="517.4" y2="403.57" fill="none" stroke="#f9b499" stroke-miterlimit="10"/>
<line x1="517.62" y1="412.22" x2="521.41" y2="405.69" fill="none" stroke="#f9b499" stroke-miterlimit="10"/>
</svg>