<svg id="a0385255-c5b6-443f-99de-75d8a3ebcb77" data-name="Layer 1" xmlns="http://www.w3.org/2000/svg" width="865.76" height="682.89" viewBox="0 0 865.76 682.89"><polygon points="199.91 384.93 97.31 639.7 289.67 608.07 430.75 639.7 575.23 608.07 768.45 644.93 665.01 384.93 549.59 355.86 432.89 378.09 313.62 355.86 199.91 384.93" fill="#fff"/><path d="M199.91,384.93l1.88-.5,5.62-1.44,22-5.67,84.17-21.55h.07l119.22,22.16h-.1l116.7-22.26h.2l115.41,29h.17v.16l103.43,260,.26.63-.68-.13-99.39-19L575,608.46h.16l-144.49,31.6h-.09l-141.06-31.6h.11L97.3,640.06l-.47.07.18-.44C128.74,561,154.47,497.33,172.2,453.31l20.48-50.67L198,389.48c1.21-3,1.84-4.46,1.84-4.46s-.59,1.53-1.78,4.52l-5.29,13.22-20.3,50.66L97.57,639.8l-.3-.37,192.4-31.69h.13l141.06,31.6h-.14l144.48-31.6h.07l93.83,17.9,99.39,19-.41.5-103.43-260,.23.2L549.47,356.2h.2L432.93,378.34h-.1L313.6,356h0l-84.07,21.43-22.05,5.59-5.65,1.44Z" fill="#2f2e41"/><polygon points="205.9 391.77 115.27 626.88 288.82 598.66 432.89 632 575.23 597.82 752.2 632 659.02 391.77 551.3 365.26 432.89 387.5 311.91 365.26 205.9 391.77" fill="#fff"/><polygon points="125.34 600.76 263.28 568.8 258.2 539.09 269.66 531.87 251.82 462.47 196.66 415.71 125.34 600.76" fill="#2f2e41"/><polygon points="115.27 626.88 121.99 609.44 353.29 555.7 365.85 590.27 361.78 597.26 318.35 605.5 288.82 598.66 115.27 626.88" fill="#ccc"/><polygon points="365.85 552.35 375.03 586.55 401.68 598.13 439.57 581.3 519.08 558.14 494.27 520.76 365.85 552.35" fill="#ccc"/><polygon points="273.47 565.02 316.45 555.7 307.87 527.77 276.56 535.33 268.23 541.22 273.47 565.02" fill="#ccc"/><polygon points="264.69 472.47 280.29 523.68 304.68 518.31 300.29 498.64 353.94 486.62 264.69 472.47" fill="#2f2e41"/><polygon points="200.73 405.2 268.23 459.38 357.83 476.38 453.42 452.62 409.79 383.25 311.91 365.26 205.9 391.77 200.73 405.2" fill="#ccc"/><polygon points="422.85 385.65 562.98 600.76 575.23 597.82 439.6 386.24 432.89 387.5 422.85 385.65" fill="#ccc"/><polygon points="309.31 504.06 327.06 555.7 484.7 515.42 455.53 465.76 309.31 504.06" fill="#ccc"/><polyline points="397.01 623.7 398.54 621.42 408.9 606.03 433.74 598.13 450.83 585.26 524.91 565.02 547.92 604.37 432.89 632" fill="#ccc"/><polygon points="528.24 369.59 565.36 410.89 659.02 391.77 551.3 365.26 528.24 369.59" fill="#ccc"/><polygon points="678.73 442.58 609.95 461.69 575.23 415.71 661.36 397.83 678.73 442.58" fill="#ccc"/><polygon points="446.95 384.84 519.08 488.44 602.31 464.55 519.08 371.31 446.95 384.84" fill="#ccc"/><polygon points="648.58 611.98 731.79 579.39 752.2 632 648.58 611.98" fill="#ccc"/><polygon points="561.54 482.25 606.76 470.46 654.52 527.77 608.04 543.2 561.54 482.25" fill="#2f2e41"/><polygon points="616.95 465.76 667.26 523.45 705.16 510.72 680.24 446.48 616.95 465.76" fill="#ccc"/><polygon points="654.52 598.52 616.95 546.39 707.77 517.45 726.22 565.02 714.38 576.93 654.52 598.52" fill="#2f2e41"/><polygon points="523.49 496.06 592.52 600.76 635.04 609.37 643.06 605.7 555.58 486.39 523.49 496.06" fill="#ccc"/><polygon points="240.56 574.07 223.37 493.2 162.72 503.8 125.34 600.76 240.56 574.07" fill="#ccc"/><polygon points="296.32 369.16 296.32 406.19 309.31 407.83 345.57 450.06 376.74 446.48 391.58 467.99 357.83 476.38 268.23 459.38 200.73 405.2 205.9 391.77 296.32 369.16" fill="#2f2e41"/><polygon points="485.88 377.86 536.8 452.17 580.67 440.32 519.08 371.31 485.88 377.86" fill="#ccc"/><polygon points="485.88 377.86 536.8 452.17 580.67 440.32 519.08 371.31 485.88 377.86" fill="#fff" opacity="0.2"/><polygon points="635.38 454.63 616.95 425.83 666.76 411.75 678.73 442.58 635.38 454.63" fill="#fff" opacity="0.2"/><polygon points="561.54 553.77 585.66 545.43 632.43 608.83 592.52 600.76 561.54 553.77" fill="#ccc"/><polygon points="561.54 553.77 585.66 545.43 632.43 608.83 592.52 600.76 561.54 553.77" fill="#fff" opacity="0.2"/><polygon points="339.1 610.3 361.52 607.57 369 596.64 397.01 605.44 389.68 622.01 339.1 610.3" fill="#2f2e41"/><path d="M205.9,391.84l7-1.8,20.51-5.17,78.48-19.72h.07l121,22.16h-.1L551.24,365h.13l107.74,26.48h.15v.17c28.6,73.42,60.11,154.67,93.29,240.19l.24.64-.66-.13-88.79-17.15-88.18-17.06h.16L433,632.36h-.18L288.75,599h.13L115.31,627.15l-.46.07.16-.44c28.06-72.62,50.77-131.4,66.45-172,7.86-20.29,13.95-36,18.09-46.73l4.72-12.14c1.07-2.74,1.63-4.12,1.63-4.12s-.53,1.43-1.58,4.18l-4.66,12.18-18,46.83L115.53,627l-.3-.36,173.54-28.27h.13L433,631.73h-.16l142.34-34.2h.09l88.26,17,88.73,17.15-.42.51c-33.17-85.54-64.64-166.73-93.15-240.25l.23.2L551.14,365.57h.13L432.85,387.75h-.1l-121-22.3h0L233.51,385,213,390.06Z" fill="#2f2e41"/><g opacity="0.2"><polygon points="429.76 644.93 431.9 378.77 312.63 356.15 288.68 612.75 429.76 644.93"/></g><g opacity="0.2"><polygon points="549.59 356.02 575.23 608.24 768.45 645.1 665.01 385.1 549.59 356.02"/></g><g id="e411d552-7559-4945-a045-fc58bdfc4613" data-name="freepik--Locators--inject-21"><path d="M235.81,323.06a30.69,30.69,0,0,0-24.18,48.58h0l.29.42h0l21.74,29.55a4.66,4.66,0,0,0,6.52,1,4.42,4.42,0,0,0,1.1-1.14l19.64-29.21c3.71-5.66,6.26-11.59,6.26-18.57a30.69,30.69,0,0,0-30.74-30.62Zm.73,53A23.07,23.07,0,1,1,259.61,353h0a23.07,23.07,0,0,1-23.07,23.07Z" fill="#7174b6"/><g opacity="0.3"><path d="M235.81,323.14a30.7,30.7,0,0,0-24.18,48.59h0l.29.41h0l21.74,29.55a4.66,4.66,0,0,0,7.62-.16l19.64-29.2c3.71-5.66,6.26-11.59,6.26-18.58a30.67,30.67,0,0,0-30.74-30.61Zm.73,53a23.07,23.07,0,1,1,23.07-23.07h0a23.07,23.07,0,0,1-23.07,23.07Z"/></g><path d="M234,323.06A30.78,30.78,0,0,0,204.05,353a30.43,30.43,0,0,0,5.75,18.68h0l.3.41h0l21.72,29.55a4.67,4.67,0,0,0,7.68-.14l19.64-29.21c3.72-5.66,6.26-11.59,6.26-18.57a30.68,30.68,0,0,0-30.72-30.65Zm.72,48.84a17.47,17.47,0,1,1,17.48-17.47,17.47,17.47,0,0,1-17.48,17.47h0Z" fill="#7174b6"/><path d="M671.78,514.78a23.39,23.39,0,0,0-18.48,37h0l.23.31h0l16.57,22.51a3.54,3.54,0,0,0,5,.7,3.48,3.48,0,0,0,.77-.81l15-22.25a25.29,25.29,0,0,0,4.78-14.15,23.4,23.4,0,0,0-23.45-23.35Zm.56,40.39a17.58,17.58,0,1,1,17.58-17.64,17.59,17.59,0,0,1-17.58,17.64Z" fill="#7174b6"/><g opacity="0.3"><path d="M671.78,514.78a23.39,23.39,0,0,0-18.48,37h0l.23.31h0l16.57,22.51a3.54,3.54,0,0,0,5,.7,3.48,3.48,0,0,0,.77-.81l15-22.25a25.29,25.29,0,0,0,4.78-14.15,23.4,23.4,0,0,0-23.45-23.35Zm.56,40.39a17.58,17.58,0,1,1,17.58-17.64,17.59,17.59,0,0,1-17.58,17.64Z"/></g><path d="M670.4,514.78a23.39,23.39,0,0,0-18.43,37h0l.21.31h0l16.55,22.51a3.55,3.55,0,0,0,5,.76,3.47,3.47,0,0,0,.84-.87l15-22.25a25.43,25.43,0,0,0,4.77-14.15,23.39,23.39,0,0,0-23.43-23.35Zm.54,37.22a13.32,13.32,0,1,1,13.32-13.32h0A13.3,13.3,0,0,1,671,552Z" fill="#7174b6"/></g><path d="M434.39,513.85,305.53,347.13s-53.94-72.39-29.38-155.5c13.35-45.18,47-81.45,90.47-99.49,38.43-15.93,95.71-25.85,157,11.87,0,0,48.1,29.5,61.87,94.29a161.37,161.37,0,0,1,1.24,59.11c-3,18.62-9.37,47.28-21.79,64.08Z" fill="#2f2e41"/><circle cx="433.49" cy="237.97" r="103.42" fill="#2f2e41"/><circle cx="433.49" cy="237.97" r="103.42" fill="#231f20" opacity="0.2"/><circle cx="416.58" cy="237.97" r="89.66" fill="#fff"/><path d="M365.21,247.27s-24.13,22.09-31.31,25.39c0,0-9.1-22.39-6.86-39.35,0,0,9.86-5,12.92-9.63Z" fill="#f9b499"/><path d="M498.46,268.81l18,33.32a31.55,31.55,0,0,0,24.26,16.54,33,33,0,0,0,6,.08l81.41-12.53a13.2,13.2,0,0,0,10.21-10.32l12.83,8.2a3.63,3.63,0,0,0,5.16-1.36h0a3.62,3.62,0,0,0-1.08-4.62l-21.35-15.48a8.34,8.34,0,0,0-5.53-1.56l-80.74,6.33a6.64,6.64,0,0,1-6.5-3.75l-15.88-33.2Z" fill="#f9b499"/><path d="M432.54,96,431,126.2s-3.83,1.33-5-3.06c0,0-4-7.08-10.14-5,0,0-20.84-43.61,11.86-55.09,0,0,5.17-1.91,19.32-3.25A55.52,55.52,0,0,0,472.32,52s23.34-14.54,33.86-5c0,0,20.08,15.11-6.89,41.89,0,0,6.12,6.12,0,20.46,0,0-4.78,8.23-6.31,14.54l1.11-17.36a19.19,19.19,0,0,0-1.59-9.16c-.77-1.71-1.76-3.25-3-3.7C489.54,93.68,466.39,100.56,432.54,96Z" fill="#2f2e41"/><path d="M432.54,96,431,126.2s-3.83,1.33-5-3.06c0,0-4-7.08-10.14-5,0,0-20.84-43.61,11.86-55.09,0,0,5.17-1.91,19.32-3.25A55.52,55.52,0,0,0,472.32,52s23.34-14.54,33.86-5c0,0,20.08,15.11-6.89,41.89,0,0,6.12,6.12,0,20.46,0,0-4.78,8.23-6.31,14.54l1.11-17.36a19.19,19.19,0,0,0-1.59-9.16c-.77-1.71-1.76-3.25-3-3.7C489.54,93.68,466.39,100.56,432.54,96Z" fill="#231f20" opacity="0.2"/><path d="M333.07,221.9l36.22,33.41,11.47-12.5-14.37,73.85s39.29,38.75,101.88,18.73l20.12-74,4.84,11,35.71-24.49-20.15-38.76s-10.45-23.21-40.8-33.41c0,0-53.31-12.76-72.94-7.65a64.16,64.16,0,0,0-32.65,20.4Z" fill="#7174b6"/><path d="M417.64,167.34s-8.82,31,24.46,36.71c0,0,28,3.47,27-27.92C469.13,176.13,433.9,167.57,417.64,167.34Z" fill="#7174b6"/><path d="M417.64,167.34s-8.82,31,24.46,36.71c0,0,28,3.47,27-27.92C469.13,176.13,433.9,167.57,417.64,167.34Z" opacity="0.2"/><path d="M427.75,138.06s-9.38,6.49-15.23-2.59a14.52,14.52,0,0,1-2-11.1c.62-2.66,2.08-5.39,5.42-6.21,0,0,5.74-2.29,10.14,5,0,0,1.91,5,5,3.06L432.54,96s33.66,5,57-2.29c0,0,5,3.27,4.59,10.91L493,123.9l-.38,23.53s-4.56,25.42-27.36,24.29L464.31,182a17.19,17.19,0,0,1-20.61,15.28l-5.2-1.07a17.21,17.21,0,0,1-13.67-18.09Z" fill="#f9b499"/><path d="M465.24,171.72l-.45,5s-15-4.11-19.07-13.6C445.72,163.09,458.4,172.23,465.24,171.72Z" fill="#f4a48e"/></svg>