<?xml version="1.0" encoding="iso-8859-1"?>
<!-- Generator: Adobe Illustrator 19.0.0, SVG Export Plug-In . SVG Version: 6.00 Build 0)  -->
<svg version="1.1" id="Layer_1" xmlns="http://www.w3.org/2000/svg" xmlns:xlink="http://www.w3.org/1999/xlink" x="0px" y="0px"
	 viewBox="0 0 511.976 511.976" style="enable-background:new 0 0 511.976 511.976;" xml:space="preserve">
<g>
	<g>
		<path d="M462.323,440.044c-3.508,0-6.98,0.936-10.028,2.704c-32.78,19.032-70.192,29.204-108.18,29.204
			c-91.9,0-173.012-59.864-203.564-143.864h185.24c11.036,0,20.012-8.968,20.012-20c0-11.04-8.976-20-20.012-20H130.583
			c-1.596-12-2.412-21.468-2.412-32.004c0-10.532,0.812-19.996,2.412-31.996h195.204c11.036,0,20.012-8.968,20.012-20
			c0-11.04-8.976-20-20.012-20h-185.24c30.556-88,111.668-144.068,203.568-144.068c37.988,0,75.4,10.028,108.188,29.052
			c3.04,1.764,6.512,2.688,10.02,2.688c7.112,0,13.756-3.832,17.328-9.98c5.536-9.54,2.276-21.816-7.268-27.364
			C433.495,11.86,389.147,0,344.119,0C230.911,0.004,130.367,76.088,98.531,184.088H49.635c-11.028,0-20.008,8.96-20.008,20
			c0,11.032,8.98,20,20.008,20h40.556c-1.356,12-2.036,21.496-2.036,31.996c0,10.504,0.68,20.004,2.036,32.004H49.635
			c-11.028,0-20.008,8.96-20.008,20c0,11.032,8.98,20,20.008,20h48.896c31.836,108,132.384,183.888,245.584,183.888
			c45.032,0,89.38-11.98,128.264-34.552c9.548-5.54,12.804-17.832,7.26-27.376C476.079,443.896,469.435,440.044,462.323,440.044z"/>
	</g>
</g>
<g>
</g>
<g>
</g>
<g>
</g>
<g>
</g>
<g>
</g>
<g>
</g>
<g>
</g>
<g>
</g>
<g>
</g>
<g>
</g>
<g>
</g>
<g>
</g>
<g>
</g>
<g>
</g>
<g>
</g>
</svg>
