<?xml version="1.0" encoding="utf-8"?>
<!-- Generator: Adobe Illustrator 24.2.0, SVG Export Plug-In . SVG Version: 6.00 Build 0)  -->
<svg version="1.1" id="Livello_1" xmlns="http://www.w3.org/2000/svg" xmlns:xlink="http://www.w3.org/1999/xlink" x="0px" y="0px"
	 viewBox="0 0 512 442.3" style="enable-background:new 0 0 512 442.3;" xml:space="preserve">
<style type="text/css">
	.st0{fill:#FFFFFF;}
</style>
<g>
	<g>
		<path d="M256.5,392.4c-80.5,0-143.9-41-174.6-65.4c-44.4-35.4-74.3-78-74.3-106.1c0-10.9,7.3-25.7,21.6-43.9
			c13.7-17.3,32.3-35.6,52.5-51.4c31.4-24.5,95.8-65.7,174.2-65.7c78.3,0,142.8,41.3,174.2,66c20.2,15.8,38.8,34.1,52.5,51.4
			c14.3,18.1,21.6,32.8,21.6,43.6c0,27.6-29.6,70-73.7,105.5C400.1,351,336.8,392.4,256.5,392.4z M38,221
			c0.2,13.1,20.1,48.2,62.8,82.2c27.5,22,84.4,58.8,155.7,58.8c70.9,0,127.6-37.1,155.1-59.3c42.3-34.1,62.2-68.8,62.4-81.6
			c-1.1-7.5-21.6-39.8-64.6-72.9c-28-21.6-85.3-57.8-153.3-57.8c-68.3,0-125.5,36.2-153.6,57.8C59.3,181.2,39,213.6,38,221z"/>
	</g>
	<circle cx="256" cy="194.9" r="133.9"/>
	<path class="st0" d="M171.4,186.9c0.8-36.1,31.5-66.4,67.4-66.2c6.7,0,11.5,4.5,11.6,10.7c0.1,5.9-4.6,10.7-11.1,10.7
		c-25.4,0.2-42.8,20.2-45.6,38.1c-0.4,2.6-0.5,5.2-0.7,7.8c-0.6,7.6-4.9,11.8-11.6,11.5C175.1,199.1,171.3,194.3,171.4,186.9z"/>
	<g>
		<g>
			<rect x="-34.6" y="213.8" transform="matrix(0.7071 -0.7071 0.7071 0.7071 -81.5275 245.831)" width="581.3" height="15"/>
		</g>
		<g>
			
				<rect x="-23.5" y="224" transform="matrix(0.7071 -0.7071 0.7071 0.7071 -85.4436 256.6984)" class="st0" width="581.3" height="15"/>
		</g>
	</g>
</g>
</svg>
