<?xml version="1.0" encoding="utf-8"?>
<!-- Generator: Adobe Illustrator 24.2.0, SVG Export Plug-In . SVG Version: 6.00 Build 0)  -->
<!DOCTYPE svg PUBLIC "-//W3C//DTD SVG 1.1//EN" "http://www.w3.org/Graphics/SVG/1.1/DTD/svg11.dtd" [
	<!ENTITY ns_extend "http://ns.adobe.com/Extensibility/1.0/">
	<!ENTITY ns_ai "http://ns.adobe.com/AdobeIllustrator/10.0/">
	<!ENTITY ns_graphs "http://ns.adobe.com/Graphs/1.0/">
	<!ENTITY ns_vars "http://ns.adobe.com/Variables/1.0/">
	<!ENTITY ns_imrep "http://ns.adobe.com/ImageReplacement/1.0/">
	<!ENTITY ns_sfw "http://ns.adobe.com/SaveForWeb/1.0/">
	<!ENTITY ns_custom "http://ns.adobe.com/GenericCustomNamespace/1.0/">
	<!ENTITY ns_adobe_xpath "http://ns.adobe.com/XPath/1.0/">
]>
<svg version="1.1" id="Livello_1" xmlns:x="&ns_extend;" xmlns:i="&ns_ai;" xmlns:graph="&ns_graphs;"
	 xmlns="http://www.w3.org/2000/svg" xmlns:xlink="http://www.w3.org/1999/xlink" x="0px" y="0px" viewBox="0 0 50 50"
	 style="enable-background:new 0 0 50 50;" xml:space="preserve">
<style type="text/css">
	.st0{fill:#757575;}
	.st1{fill:#FFFFFF;}
</style>
<metadata>
	<sfw  xmlns="&ns_sfw;">
		<slices></slices>
		<sliceSourceBounds  bottomLeftOrigin="true" height="49.3" width="48.6" x="0.7" y="0.4"></sliceSourceBounds>
	</sfw>
</metadata>
<g>
	<path class="st0" d="M0.7,43.4c0-0.9,0.7-1.4,1.4-1.4h45.9c0.9,0,1.4,0.7,1.4,1.4v0.2c0,0.9-0.7,1.4-1.4,1.4H2.1
		C1.4,45,0.7,44.3,0.7,43.4z"/>
	<path class="st1" d="M33.4,49.1c-3.1,0-5.6-2.6-5.6-5.6c0-3.1,2.6-5.6,5.6-5.6s5.6,2.6,5.6,5.6C39.1,46.5,36.5,49.1,33.4,49.1z"/>
	<path class="st0" d="M33.4,49.6c-3.4,0-6.2-2.9-6.2-6.2c0-3.4,2.9-6.2,6.2-6.2c3.4,0,6.2,2.9,6.2,6.2
		C39.7,46.8,36.8,49.6,33.4,49.6z M33.4,38.4c-2.7,0-5,2.3-5,5c0,2.7,2.3,5,5,5c2.7,0,5-2.3,5-5C38.5,40.7,36.2,38.4,33.4,38.4z"/>
	<path class="st0" d="M0.7,25c0-0.9,0.7-1.4,1.4-1.4h45.9c0.9,0,1.4,0.7,1.4,1.4v0.2c0,0.9-0.7,1.4-1.4,1.4H2.1
		C1.4,26.5,0.7,25.9,0.7,25z"/>
	<path class="st1" d="M12.8,30.6c-3.1,0-5.6-2.6-5.6-5.6s2.6-5.6,5.6-5.6s5.6,2.6,5.6,5.6S15.9,30.6,12.8,30.6z"/>
	<path class="st0" d="M12.8,31.2c-3.4,0-6.2-2.9-6.2-6.2c0-3.4,2.9-6.2,6.2-6.2c3.4,0,6.2,2.9,6.2,6.2C19,28.4,16.2,31.2,12.8,31.2z
		 M12.8,20c-2.7,0-5,2.3-5,5c0,2.7,2.3,5,5,5c2.7,0,5-2.3,5-5C17.8,22.3,15.5,20,12.8,20z"/>
	<path class="st0" d="M0.7,6.6c0-0.9,0.7-1.4,1.4-1.4h45.9c0.9,0,1.4,0.7,1.4,1.4v0.2c0,0.9-0.7,1.4-1.4,1.4H2.1
		C1.4,8.1,0.7,7.6,0.7,6.6z"/>
	<path class="st1" d="M30.9,12.2c-3.1,0-5.6-2.6-5.6-5.6s2.6-5.6,5.6-5.6s5.6,2.6,5.6,5.6S34,12.2,30.9,12.2z"/>
	<path class="st0" d="M30.9,12.8c-3.4,0-6.2-2.9-6.2-6.2c0-3.4,2.9-6.2,6.2-6.2s6.2,2.9,6.2,6.2C37.2,10,34.3,12.8,30.9,12.8z
		 M30.9,1.5c-2.7,0-5,2.3-5,5c0,2.7,2.3,5,5,5s5-2.3,5-5C36,3.8,33.7,1.5,30.9,1.5z"/>
</g>
</svg>
