<?xml version="1.0" encoding="utf-8"?>
<!-- Generator: Adobe Illustrator 24.2.0, SVG Export Plug-In . SVG Version: 6.00 Build 0)  -->
<!DOCTYPE svg PUBLIC "-//W3C//DTD SVG 1.1//EN" "http://www.w3.org/Graphics/SVG/1.1/DTD/svg11.dtd" [
	<!ENTITY ns_extend "http://ns.adobe.com/Extensibility/1.0/">
	<!ENTITY ns_ai "http://ns.adobe.com/AdobeIllustrator/10.0/">
	<!ENTITY ns_graphs "http://ns.adobe.com/Graphs/1.0/">
	<!ENTITY ns_vars "http://ns.adobe.com/Variables/1.0/">
	<!ENTITY ns_imrep "http://ns.adobe.com/ImageReplacement/1.0/">
	<!ENTITY ns_sfw "http://ns.adobe.com/SaveForWeb/1.0/">
	<!ENTITY ns_custom "http://ns.adobe.com/GenericCustomNamespace/1.0/">
	<!ENTITY ns_adobe_xpath "http://ns.adobe.com/XPath/1.0/">
]>
<svg version="1.1" id="Livello_1" xmlns:x="&ns_extend;" xmlns:i="&ns_ai;" xmlns:graph="&ns_graphs;"
	 xmlns="http://www.w3.org/2000/svg" xmlns:xlink="http://www.w3.org/1999/xlink" x="0px" y="0px" viewBox="0 0 30 30"
	 style="enable-background:new 0 0 30 30;" xml:space="preserve">
<style type="text/css">
	.st0{fill:#7174B6;}
</style>
<metadata>
	<sfw  xmlns="&ns_sfw;">
		<slices></slices>
		<sliceSourceBounds  bottomLeftOrigin="true" height="29.8" width="30" x="0" y="0.1"></sliceSourceBounds>
	</sfw>
</metadata>
<g>
	<polygon class="st0" points="23.1,15 15.1,10.4 15.1,14.3 6.9,14.3 6.9,15.7 15.1,15.7 15.1,19.6 	"/>
	<g>
		<path class="st0" d="M15,29.9C6.7,29.9,0,23.2,0,15C0,6.8,6.7,0.1,15,0.1c8.3,0,15,6.7,15,14.9C30,23.2,23.3,29.9,15,29.9z
			 M15,1.3C7.4,1.3,1.2,7.4,1.2,15c0,7.6,6.2,13.7,13.8,13.7c7.6,0,13.8-6.2,13.8-13.7C28.8,7.4,22.6,1.3,15,1.3z"/>
	</g>
</g>
</svg>
