<?xml version="1.0" encoding="utf-8"?>
<!-- Generator: Adobe Illustrator 24.2.0, SVG Export Plug-In . SVG Version: 6.00 Build 0)  -->
<!DOCTYPE svg PUBLIC "-//W3C//DTD SVG 1.1//EN" "http://www.w3.org/Graphics/SVG/1.1/DTD/svg11.dtd" [
	<!ENTITY ns_extend "http://ns.adobe.com/Extensibility/1.0/">
	<!ENTITY ns_ai "http://ns.adobe.com/AdobeIllustrator/10.0/">
	<!ENTITY ns_graphs "http://ns.adobe.com/Graphs/1.0/">
	<!ENTITY ns_vars "http://ns.adobe.com/Variables/1.0/">
	<!ENTITY ns_imrep "http://ns.adobe.com/ImageReplacement/1.0/">
	<!ENTITY ns_sfw "http://ns.adobe.com/SaveForWeb/1.0/">
	<!ENTITY ns_custom "http://ns.adobe.com/GenericCustomNamespace/1.0/">
	<!ENTITY ns_adobe_xpath "http://ns.adobe.com/XPath/1.0/">
]>
<svg version="1.1" id="Livello_1" xmlns:x="&ns_extend;" xmlns:i="&ns_ai;" xmlns:graph="&ns_graphs;"
	 xmlns="http://www.w3.org/2000/svg" xmlns:xlink="http://www.w3.org/1999/xlink" x="0px" y="0px" viewBox="0 0 50 50"
	 style="enable-background:new 0 0 50 50;" xml:space="preserve">
<style type="text/css">
	.st0{fill:#0A66C2;}
	.st1{fill:#FEFEFE;}
</style>
<metadata>
	<sfw  xmlns="&ns_sfw;">
		<slices></slices>
		<sliceSourceBounds  bottomLeftOrigin="true" height="45" width="45" x="233.5" y="233.5"></sliceSourceBounds>
	</sfw>
</metadata>
<circle class="st0" cx="25" cy="25" r="22.5"/>
<g>
	<path class="st1" d="M38.7,38.7c-1.9,0-3.7,0-5.6,0c0,0,0-0.1,0-0.1c0-3.2,0-6.4,0-9.6c0-0.7-0.1-1.5-0.3-2.1
		c-0.3-0.7-0.7-1.3-1.5-1.6c-0.3-0.1-0.7-0.2-1.1-0.2c-0.4,0-0.8,0-1.2,0.1c-1,0.3-1.7,0.9-2.1,1.9c-0.1,0.4-0.2,0.8-0.3,1.2
		c0,0.3,0,0.6,0,1c0,3.1,0,6.2,0,9.3c0,0,0,0.1,0,0.1c-1.8,0-3.6,0-5.4,0c0-6.1,0-12.2,0-18.2c1.8,0,3.6,0,5.4,0c0,0.8,0,1.6,0,2.4
		c0.2-0.2,0.3-0.4,0.5-0.6c1.1-1.3,2.4-2,4.1-2.3c0.5-0.1,0.9-0.1,1.4,0c0.7,0,1.5,0.2,2.2,0.4c0.6,0.2,1.1,0.5,1.6,0.9
		c0.3,0.2,0.5,0.4,0.7,0.7c0.5,0.6,0.9,1.3,1.2,2.1c0.3,0.8,0.4,1.6,0.4,2.4c0,0.4,0,0.7,0,1.1c0,3.7,0,7.4,0,11.1
		C38.7,38.6,38.7,38.6,38.7,38.7z"/>
	<path class="st1" d="M17.5,38.7c-1.9,0-3.8,0-5.6,0c0-6.1,0-12.2,0-18.2c1.9,0,3.8,0,5.6,0C17.5,26.5,17.5,32.6,17.5,38.7z"/>
	<path class="st1" d="M11.3,14.7c0-1.9,1.5-3.4,3.3-3.4c1.9,0,3.3,1.5,3.3,3.4c0,1.9-1.5,3.4-3.3,3.4C12.8,18.1,11.3,16.5,11.3,14.7
		z"/>
</g>
</svg>
