<?xml version="1.0" encoding="utf-8"?>
<!-- Generator: Adobe Illustrator 24.2.0, SVG Export Plug-In . SVG Version: 6.00 Build 0)  -->
<!DOCTYPE svg PUBLIC "-//W3C//DTD SVG 1.1//EN" "http://www.w3.org/Graphics/SVG/1.1/DTD/svg11.dtd" [
	<!ENTITY ns_extend "http://ns.adobe.com/Extensibility/1.0/">
	<!ENTITY ns_ai "http://ns.adobe.com/AdobeIllustrator/10.0/">
	<!ENTITY ns_graphs "http://ns.adobe.com/Graphs/1.0/">
	<!ENTITY ns_vars "http://ns.adobe.com/Variables/1.0/">
	<!ENTITY ns_imrep "http://ns.adobe.com/ImageReplacement/1.0/">
	<!ENTITY ns_sfw "http://ns.adobe.com/SaveForWeb/1.0/">
	<!ENTITY ns_custom "http://ns.adobe.com/GenericCustomNamespace/1.0/">
	<!ENTITY ns_adobe_xpath "http://ns.adobe.com/XPath/1.0/">
]>
<svg version="1.1" id="Livello_1" xmlns:x="&ns_extend;" xmlns:i="&ns_ai;" xmlns:graph="&ns_graphs;"
	 xmlns="http://www.w3.org/2000/svg" xmlns:xlink="http://www.w3.org/1999/xlink" x="0px" y="0px" viewBox="0 0 50 50"
	 style="enable-background:new 0 0 50 50;" xml:space="preserve">
<style type="text/css">
	.st0{fill:#4B5663;}
</style>
<metadata>
	<sfw  xmlns="&ns_sfw;">
		<slices></slices>
		<sliceSourceBounds  bottomLeftOrigin="true" height="42.9" width="45" x="233.5" y="-277.4"></sliceSourceBounds>
	</sfw>
</metadata>
<g>
	<path class="st0" d="M32.1,46.2l-13.9,0.2l-0.1-9.3c0-3.3,3-6,6.8-6h0c3.8-0.1,7,2.6,7,5.8L32.1,46.2z"/>
	<path class="st0" d="M47.3,24c-1.6-1.6-3.2-3.2-4.9-4.8l-4.8-4.8v-8c0-0.3-0.3-0.6-0.6-0.6h-2.7c-0.3,0-0.6,0.3-0.6,0.6v4.1
		c-1.9-1.9-3.7-3.8-5.6-5.6c-1.8-1.8-4.6-1.8-6.4,0C15.4,11.3,9.1,17.6,2.7,24l0,0c-0.2,0.2-0.2,0.6,0,0.9c0.7,0.7,1.3,1.4,2,2.1
		c0.2,0.2,0.6,0.3,0.9,0C12,20.5,18.5,14.1,25,7.5c6.5,6.6,13,13,19.3,19.4c0.2,0.2,0.6,0.2,0.9,0c0.7-0.7,1.4-1.4,2.1-2.1
		C47.6,24.6,47.6,24.2,47.3,24z"/>
</g>
</svg>
