<?xml version="1.0" encoding="utf-8"?>
<!-- Generator: Adobe Illustrator 24.2.0, SVG Export Plug-In . SVG Version: 6.00 Build 0)  -->
<!DOCTYPE svg PUBLIC "-//W3C//DTD SVG 1.1//EN" "http://www.w3.org/Graphics/SVG/1.1/DTD/svg11.dtd" [
	<!ENTITY ns_extend "http://ns.adobe.com/Extensibility/1.0/">
	<!ENTITY ns_ai "http://ns.adobe.com/AdobeIllustrator/10.0/">
	<!ENTITY ns_graphs "http://ns.adobe.com/Graphs/1.0/">
	<!ENTITY ns_vars "http://ns.adobe.com/Variables/1.0/">
	<!ENTITY ns_imrep "http://ns.adobe.com/ImageReplacement/1.0/">
	<!ENTITY ns_sfw "http://ns.adobe.com/SaveForWeb/1.0/">
	<!ENTITY ns_custom "http://ns.adobe.com/GenericCustomNamespace/1.0/">
	<!ENTITY ns_adobe_xpath "http://ns.adobe.com/XPath/1.0/">
]>
<svg version="1.1" id="Livello_1" xmlns:x="&ns_extend;" xmlns:i="&ns_ai;" xmlns:graph="&ns_graphs;"
	 xmlns="http://www.w3.org/2000/svg" xmlns:xlink="http://www.w3.org/1999/xlink" x="0px" y="0px" viewBox="0 0 50 50"
	 style="enable-background:new 0 0 50 50;" xml:space="preserve">
<style type="text/css">
	.st0{fill:#8DA1B3;}
</style>
<metadata>
	<sfw  xmlns="&ns_sfw;">
		<slices></slices>
		<sliceSourceBounds  bottomLeftOrigin="true" height="45" width="45" x="233.5" y="-278.5"></sliceSourceBounds>
	</sfw>
</metadata>
<g>
	<path class="st0" d="M27,22.9c1.7,0,3.4,0,5,0c0.9,0,1.7,0.6,2,1.5s0,1.8-0.8,2.3c-0.3,0.2-0.8,0.4-1.3,0.4c-1.6,0-3.2,0-4.9,0
		c0,0.2,0,0.3,0,0.5c0,1.4,0,2.9,0,4.3c0,1.3-0.9,2.3-2.1,2.2c-1.2,0-2.1-1-2.1-2.2c0-1.4,0-2.8,0-4.3c0-0.2,0-0.3,0-0.5
		c-0.2,0-0.3,0-0.5,0c-1.4,0-2.9,0-4.3,0c-1.3,0-2.2-0.9-2.2-2.1s0.9-2.1,2.2-2.1c1.6,0,3.2,0,4.8,0c0-0.2,0-0.3,0-0.5
		c0-1.4,0-2.9,0-4.3c0-1.3,0.9-2.2,2.1-2.2s2.1,0.9,2.1,2.2C27,19.5,27,22.7,27,22.9z"/>
	<g>
		<path class="st0" d="M25,47.5C12.6,47.5,2.5,37.4,2.5,25S12.6,2.5,25,2.5S47.5,12.6,47.5,25S37.4,47.5,25,47.5z M25,5
			C14,5,5,14,5,25s9,20,20,20s20-9,20-20S36,5,25,5z"/>
	</g>
</g>
</svg>
