<?xml version="1.0" encoding="utf-8"?>
<!-- Generator: Adobe Illustrator 24.2.0, SVG Export Plug-In . SVG Version: 6.00 Build 0)  -->
<!DOCTYPE svg PUBLIC "-//W3C//DTD SVG 1.1//EN" "http://www.w3.org/Graphics/SVG/1.1/DTD/svg11.dtd" [
	<!ENTITY ns_extend "http://ns.adobe.com/Extensibility/1.0/">
	<!ENTITY ns_ai "http://ns.adobe.com/AdobeIllustrator/10.0/">
	<!ENTITY ns_graphs "http://ns.adobe.com/Graphs/1.0/">
	<!ENTITY ns_vars "http://ns.adobe.com/Variables/1.0/">
	<!ENTITY ns_imrep "http://ns.adobe.com/ImageReplacement/1.0/">
	<!ENTITY ns_sfw "http://ns.adobe.com/SaveForWeb/1.0/">
	<!ENTITY ns_custom "http://ns.adobe.com/GenericCustomNamespace/1.0/">
	<!ENTITY ns_adobe_xpath "http://ns.adobe.com/XPath/1.0/">
]>
<svg version="1.1" id="Livello_1" xmlns:x="&ns_extend;" xmlns:i="&ns_ai;" xmlns:graph="&ns_graphs;"
	 xmlns="http://www.w3.org/2000/svg" xmlns:xlink="http://www.w3.org/1999/xlink" x="0px" y="0px" viewBox="0 0 50 50"
	 style="enable-background:new 0 0 50 50;" xml:space="preserve">
<style type="text/css">
	.st0{display:none;}
	.st1{display:inline;fill:#4B5663;}
	.st2{display:inline;fill:#626F7B;}
	.st3{display:inline;fill:none;}
	.st4{display:inline;}
	.st5{fill:#4B5663;}
	.st6{fill:#8DA1B3;}
	.st7{display:inline;fill:#8DA1B3;}
	.st8{display:inline;fill:#9CB0C1;}
	.st9{fill:#FFFFFF;}
</style>
<metadata>
	<sfw  xmlns="&ns_sfw;">
		<slices></slices>
		<sliceSourceBounds  bottomLeftOrigin="true" height="42.9" width="45.5" x="2" y="3.6"></sliceSourceBounds>
	</sfw>
</metadata>
<g class="st0">
	<path class="st1" d="M32.1,46.2l-13.9,0.2l-0.1-9.3c0-3.3,3-6,6.8-6l0,0c3.8-0.1,7,2.6,7,5.8L32.1,46.2z"/>
	<path class="st1" d="M47.3,24c-1.6-1.6-3.2-3.2-4.9-4.8l-4.8-4.8v-8c0-0.3-0.3-0.6-0.6-0.6h-2.7c-0.3,0-0.6,0.3-0.6,0.6v4.1
		c-1.9-1.9-3.7-3.8-5.6-5.6c-1.8-1.8-4.6-1.8-6.4,0C15.4,11.3,9.1,17.6,2.7,24l0,0c-0.2,0.2-0.2,0.6,0,0.9c0.7,0.7,1.3,1.4,2,2.1
		c0.2,0.2,0.6,0.3,0.9,0C12,20.5,18.5,14.1,25,7.5c6.5,6.6,13,13,19.3,19.4c0.2,0.2,0.6,0.2,0.9,0c0.7-0.7,1.4-1.4,2.1-2.1
		C47.6,24.6,47.6,24.2,47.3,24z"/>
</g>
<g class="st0">
	<path class="st2" d="M22.9,30.6c6,2.1,12,4.2,18,6.2c1.2,0.4,1.7,0.1,1.7-1.3c0-9.5,0-19.1,0-28.6c0-0.9-0.5-1.4-1.3-1.1
		c-6.1,2-12.3,4.2-18.4,6.3"/>
	<path class="st1" d="M11.4,30.7c2.3,0,4.6,0,6.9,0c0,3.6,0,7.2,0,10.8c0,1.2-0.6,2.1-2.1,2.6c-2.3,0.7-4.7-0.5-4.7-2.5
		C11.4,38,11.4,34.3,11.4,30.7z"/>
	<path class="st1" d="M11.4,30.6c2.3,0,4.6,0,6.9,0c0,3.6,0,7.2,0,10.8c0,1.2-0.6,2.1-2.1,2.6c-2.3,0.7-4.7-0.5-4.7-2.5
		C11.4,37.8,11.4,34.2,11.4,30.6z"/>
	<path class="st1" d="M46.7,26.8h-4v-11h4c0.5,0,0.8,0.4,0.8,0.8V26C47.5,26.5,47.1,26.8,46.7,26.8z"/>
	<path class="st1" d="M11,12.1c-4.7,0.2-8.5,4.3-8.5,9.2s3.8,9,8.5,9.2h11.9V12.1H11z"/>
</g>
<g class="st0">
	<path class="st3" d="M27.6,24.6L27.6,24.6L27.6,24.6z"/>
	<g class="st4">
		<polygon class="st5" points="27.6,24.6 27.9,24.7 27.6,24.6 27.6,46.3 33.8,46.3 33.8,19.2 		"/>
		<polygon class="st5" points="16.5,23.6 16.5,46.3 22.7,46.3 22.7,22.6 20.3,21.5 		"/>
		<polygon class="st5" points="38.7,46.3 44.9,46.3 44.9,9.7 38.7,15.1 		"/>
		<polygon class="st5" points="5.4,46.3 11.6,46.3 11.6,26.2 5.4,29.5 		"/>
	</g>
	<g class="st4">
		<polygon class="st5" points="44.2,5.7 27.2,20.2 20.7,17.6 2.5,27.4 3.2,28.6 20.8,19.1 27.4,21.9 45.1,6.7 		"/>
		<polygon class="st5" points="45.4,4.1 43.2,4.5 44.6,6.2 46,7.8 46.8,5.8 47.5,3.7 		"/>
	</g>
</g>
<g class="st0">
	<path class="st3" d="M27.6,24.6L27.6,24.6L27.6,24.6z"/>
	<g class="st4">
		<polygon class="st6" points="27.6,24.6 27.9,24.7 27.6,24.6 27.6,46.3 33.8,46.3 33.8,19.2 		"/>
		<polygon class="st6" points="16.5,23.6 16.5,46.3 22.7,46.3 22.7,22.6 20.3,21.5 		"/>
		<polygon class="st6" points="38.7,46.3 44.9,46.3 44.9,9.7 38.7,15.1 		"/>
		<polygon class="st6" points="5.4,46.3 11.6,46.3 11.6,26.2 5.4,29.5 		"/>
	</g>
	<g class="st4">
		<polygon class="st6" points="44.2,5.7 27.2,20.2 20.7,17.6 2.5,27.4 3.2,28.6 20.8,19.1 27.4,21.9 45.1,6.7 		"/>
		<polygon class="st6" points="45.4,4.1 43.2,4.5 44.6,6.2 46,7.8 46.8,5.8 47.5,3.7 		"/>
	</g>
</g>
<g class="st0">
	<path class="st7" d="M32.1,46.2l-13.9,0.2l-0.1-9.3c0-3.3,3-6,6.8-6l0,0c3.8-0.1,7,2.6,7,5.8L32.1,46.2z"/>
	<path class="st7" d="M47.3,24c-1.6-1.6-3.2-3.2-4.9-4.8l-4.8-4.8v-8c0-0.3-0.3-0.6-0.6-0.6h-2.7c-0.3,0-0.6,0.3-0.6,0.6v4.1
		c-1.9-1.9-3.7-3.8-5.6-5.6c-1.8-1.8-4.6-1.8-6.4,0C15.4,11.3,9.1,17.6,2.7,24l0,0c-0.2,0.2-0.2,0.6,0,0.9c0.7,0.7,1.3,1.4,2,2.1
		c0.2,0.2,0.6,0.3,0.9,0C12,20.5,18.5,14.1,25,7.5c6.5,6.6,13,13,19.3,19.4c0.2,0.2,0.6,0.2,0.9,0c0.7-0.7,1.4-1.4,2.1-2.1
		C47.6,24.6,47.6,24.2,47.3,24z"/>
</g>
<g class="st0">
	<path class="st8" d="M22.4,30.6c6,2.1,12,4.2,18,6.2c1.2,0.4,1.7,0.1,1.7-1.3c0-9.5,0-19.1,0-28.6c0-0.9-0.5-1.4-1.3-1.1
		c-6.1,2.1-12.3,4.2-18.4,6.3"/>
	<path class="st1" d="M10.9,30.7c2.3,0,4.6,0,6.9,0c0,3.6,0,7.2,0,10.8c0,1.2-0.6,2.1-2.1,2.6c-2.3,0.7-4.7-0.5-4.7-2.5
		C10.9,38,10.9,34.4,10.9,30.7z"/>
	<path class="st7" d="M10.9,30.6c2.3,0,4.6,0,6.9,0c0,3.6,0,7.2,0,10.8c0,1.2-0.6,2.1-2.1,2.6c-2.3,0.7-4.7-0.5-4.7-2.5
		C10.9,37.9,10.9,34.2,10.9,30.6z"/>
	<path class="st7" d="M46.2,26.9h-4v-11h4c0.5,0,0.8,0.4,0.8,0.8V26C47,26.5,46.7,26.9,46.2,26.9z"/>
	<path class="st7" d="M10.5,12.1C5.8,12.3,2,16.4,2,21.4s3.8,9,8.5,9.2h11.9V12.1H10.5z"/>
</g>
<g class="st0">
	<path class="st7" d="M45.4,36.1H4.6c-1.2,0-2.1-1-2.1-2.3V8.4c0-1.3,0.9-2.3,2.1-2.3h40.8c1.2,0,2.1,1,2.1,2.3v25.3
		C47.5,35,46.6,36.1,45.4,36.1z"/>
	<path class="st7" d="M9.9,36.1v7.7c0,0.1,0.2,0.2,0.4,0.1l7.5-7.8"/>
	<g class="st4">
		<path class="st9" d="M42.8,18.3H7.2c-0.3,0-0.6-0.2-0.6-0.6v-1c0-0.3,0.2-0.6,0.6-0.6h35.6c0.3,0,0.6,0.2,0.6,0.6v1
			C43.3,18,43.1,18.3,42.8,18.3z"/>
		<path class="st9" d="M42.8,22.2H7.2c-0.3,0-0.6-0.2-0.6-0.6v-1c0-0.3,0.2-0.6,0.6-0.6h35.6c0.3,0,0.6,0.2,0.6,0.6v1
			C43.3,22,43.1,22.2,42.8,22.2z"/>
		<path class="st9" d="M23.9,26.1H7c-0.2,0-0.4-0.2-0.4-0.4v-1.3C6.6,24.2,6.8,24,7,24h16.9c0.2,0,0.4,0.2,0.4,0.4v1.3
			C24.3,26,24.1,26.1,23.9,26.1z"/>
	</g>
</g>
<g>
	<path class="st5" d="M45.4,38H4.6c-1.2,0-2.1-1.1-2.1-2.6V6.7c0-1.5,0.9-2.6,2.1-2.6h40.8c1.2,0,2.1,1.1,2.1,2.6v28.6
		C47.5,36.8,46.6,38,45.4,38z"/>
	<path class="st5" d="M9.9,38v7.7c0,0.1,0.2,0.2,0.4,0.1l7.5-7.8"/>
	<g>
		<path class="st9" d="M42.8,18.3H7.2c-0.3,0-0.6-0.2-0.6-0.6v-1c0-0.3,0.2-0.6,0.6-0.6h35.6c0.3,0,0.6,0.2,0.6,0.6v1
			C43.3,18,43.1,18.3,42.8,18.3z"/>
		<path class="st9" d="M42.8,22.2H7.2c-0.3,0-0.6-0.2-0.6-0.6v-1c0-0.3,0.2-0.6,0.6-0.6h35.6c0.3,0,0.6,0.2,0.6,0.6v1
			C43.3,22,43.1,22.2,42.8,22.2z"/>
		<path class="st9" d="M23.9,26.1H7c-0.2,0-0.4-0.2-0.4-0.4v-1.3C6.6,24.2,6.8,24,7,24h16.9c0.2,0,0.4,0.2,0.4,0.4v1.3
			C24.3,26,24.1,26.1,23.9,26.1z"/>
	</g>
</g>
</svg>
