<?xml version="1.0" encoding="utf-8"?>
<!-- Generator: Adobe Illustrator 24.2.0, SVG Export Plug-In . SVG Version: 6.00 Build 0)  -->
<!DOCTYPE svg PUBLIC "-//W3C//DTD SVG 1.1//EN" "http://www.w3.org/Graphics/SVG/1.1/DTD/svg11.dtd" [
	<!ENTITY ns_extend "http://ns.adobe.com/Extensibility/1.0/">
	<!ENTITY ns_ai "http://ns.adobe.com/AdobeIllustrator/10.0/">
	<!ENTITY ns_graphs "http://ns.adobe.com/Graphs/1.0/">
	<!ENTITY ns_vars "http://ns.adobe.com/Variables/1.0/">
	<!ENTITY ns_imrep "http://ns.adobe.com/ImageReplacement/1.0/">
	<!ENTITY ns_sfw "http://ns.adobe.com/SaveForWeb/1.0/">
	<!ENTITY ns_custom "http://ns.adobe.com/GenericCustomNamespace/1.0/">
	<!ENTITY ns_adobe_xpath "http://ns.adobe.com/XPath/1.0/">
]>
<svg version="1.1" id="Livello_1" xmlns:x="&ns_extend;" xmlns:i="&ns_ai;" xmlns:graph="&ns_graphs;"
	 xmlns="http://www.w3.org/2000/svg" xmlns:xlink="http://www.w3.org/1999/xlink" x="0px" y="0px" viewBox="0 0 50 50"
	 style="enable-background:new 0 0 50 50;" xml:space="preserve">
<style type="text/css">
	.st0{fill:#8DA1B3;}
	.st1{fill:#FFFFFF;}
</style>
<metadata>
	<sfw  xmlns="&ns_sfw;">
		<slices></slices>
		<sliceSourceBounds  bottomLeftOrigin="true" height="41.7" width="45" x="2.5" y="4.1"></sliceSourceBounds>
	</sfw>
</metadata>
<g>
	<path class="st0" d="M45.4,38H4.6c-1.2,0-2.1-1.1-2.1-2.6V6.7c0-1.5,0.9-2.6,2.1-2.6h40.8c1.2,0,2.1,1.1,2.1,2.6v28.6
		C47.5,36.8,46.6,38,45.4,38z"/>
	<path class="st0" d="M9.9,38v7.7c0,0.1,0.2,0.2,0.4,0.1l7.5-7.8"/>
	<g>
		<path class="st1" d="M42.8,18.3H7.2c-0.3,0-0.6-0.2-0.6-0.6v-1c0-0.3,0.2-0.6,0.6-0.6h35.6c0.3,0,0.6,0.2,0.6,0.6v1
			C43.3,18,43.1,18.3,42.8,18.3z"/>
		<path class="st1" d="M42.8,22.2H7.2c-0.3,0-0.6-0.2-0.6-0.6v-1c0-0.3,0.2-0.6,0.6-0.6h35.6c0.3,0,0.6,0.2,0.6,0.6v1
			C43.3,22,43.1,22.2,42.8,22.2z"/>
		<path class="st1" d="M23.9,26.1H7c-0.2,0-0.4-0.2-0.4-0.4v-1.3C6.6,24.2,6.8,24,7,24h16.9c0.2,0,0.4,0.2,0.4,0.4v1.3
			C24.3,26,24.1,26.1,23.9,26.1z"/>
	</g>
</g>
</svg>
