<?xml version="1.0" encoding="utf-8"?>
<!-- Generator: Adobe Illustrator 24.2.0, SVG Export Plug-In . SVG Version: 6.00 Build 0)  -->
<!DOCTYPE svg PUBLIC "-//W3C//DTD SVG 1.1//EN" "http://www.w3.org/Graphics/SVG/1.1/DTD/svg11.dtd" [
	<!ENTITY ns_extend "http://ns.adobe.com/Extensibility/1.0/">
	<!ENTITY ns_ai "http://ns.adobe.com/AdobeIllustrator/10.0/">
	<!ENTITY ns_graphs "http://ns.adobe.com/Graphs/1.0/">
	<!ENTITY ns_vars "http://ns.adobe.com/Variables/1.0/">
	<!ENTITY ns_imrep "http://ns.adobe.com/ImageReplacement/1.0/">
	<!ENTITY ns_sfw "http://ns.adobe.com/SaveForWeb/1.0/">
	<!ENTITY ns_custom "http://ns.adobe.com/GenericCustomNamespace/1.0/">
	<!ENTITY ns_adobe_xpath "http://ns.adobe.com/XPath/1.0/">
]>
<svg version="1.1" id="Livello_1" xmlns:x="&ns_extend;" xmlns:i="&ns_ai;" xmlns:graph="&ns_graphs;"
	 xmlns="http://www.w3.org/2000/svg" xmlns:xlink="http://www.w3.org/1999/xlink" x="0px" y="0px" viewBox="0 0 50 50"
	 style="enable-background:new 0 0 50 50;" xml:space="preserve">
<style type="text/css">
	.st0{fill:#E52C2C;}
	.st1{fill:#E05858;}
</style>
<metadata>
	<sfw  xmlns="&ns_sfw;">
		<slices></slices>
		<sliceSourceBounds  bottomLeftOrigin="true" height="45" width="38.1" x="237" y="-278.5"></sliceSourceBounds>
	</sfw>
</metadata>
<g>
	<path class="st0" d="M25,14.6c5.2,0,10.4,0,15.6,0c0.8,0,1.1,0.2,1,1.1c-0.2,6.5-0.4,13-0.7,19.5c-0.1,3-0.2,6-0.3,9
		c-0.1,1.7-0.9,2.8-2.3,3.2c-0.3,0.1-0.6,0.1-0.9,0.1c-8.3,0-16.6,0-25,0c-1.8,0-3.1-1.3-3.2-3.1C9.2,41.1,9.1,37.7,9,34.4
		C8.8,28.2,8.5,22,8.3,15.8c0-1,0.2-1.2,1.1-1.2C14.6,14.6,19.8,14.6,25,14.6z M23.3,32C23.3,32,23.3,32,23.3,32c0,3,0,6.1,0,9.1
		c0,1.1,0.8,1.8,1.7,1.8c1,0,1.7-0.8,1.7-1.8c0-6.1,0-12.2,0-18.3c0-0.5-0.1-0.9-0.5-1.3c-0.5-0.5-1.2-0.7-1.9-0.4
		c-0.7,0.3-1.1,0.9-1.1,1.8C23.3,25.9,23.3,28.9,23.3,32z M17.7,41.1c0-0.1,0-0.2,0-0.3c-0.2-3.4-0.4-6.8-0.6-10.2
		c-0.1-2.6-0.3-5.3-0.4-7.9c-0.1-0.9-0.7-1.6-1.6-1.7c-1.1-0.1-1.9,0.7-1.9,1.9c0.2,3.3,0.4,6.6,0.5,9.9c0.2,2.8,0.3,5.6,0.5,8.5
		c0.1,1,0.8,1.7,1.8,1.6C17.1,42.8,17.8,42.1,17.7,41.1z M36.7,23.3C36.8,23.3,36.8,23.3,36.7,23.3c0-0.1,0-0.3,0-0.4
		c0-1.1-0.6-1.8-1.6-1.9c-1,0-1.8,0.7-1.8,1.7c-0.1,1.4-0.1,2.8-0.2,4.2c-0.2,2.7-0.3,5.4-0.5,8.1c-0.1,2-0.2,4-0.3,6
		c-0.1,1,0.7,1.8,1.6,1.9c1,0,1.8-0.6,1.8-1.7c0.1-1.3,0.1-2.6,0.2-3.9C36.2,32.6,36.5,28,36.7,23.3z"/>
	<path class="st0" d="M31.4,6.6c3.2,0,6.5,0,9.7,0c1.3,0,2.5,0.9,2.8,2.2c0.3,1.3-0.3,2.6-1.4,3.3c-0.4,0.2-0.9,0.3-1.4,0.3
		c-10.8,0-21.6,0-32.3,0C7.2,12.3,6,11.1,6,9.5c0-1.6,1.3-2.9,2.9-2.9c3.2,0,6.5,0,9.7,0C22.9,6.6,27.1,6.6,31.4,6.6z"/>
	<path class="st1" d="M31.4,6.6c-4.3,0-8.5,0-12.8,0c0-0.9,0-1.9,0-2.8c0-1,0.3-1.3,1.3-1.3c3.4,0,6.7,0,10.1,0c1,0,1.3,0.3,1.4,1.3
		C31.4,4.8,31.4,5.7,31.4,6.6z"/>
</g>
</svg>
