<?xml version="1.0" encoding="utf-8"?>
<!-- Generator: Adobe Illustrator 24.2.0, SVG Export Plug-In . SVG Version: 6.00 Build 0)  -->
<!DOCTYPE svg PUBLIC "-//W3C//DTD SVG 1.1//EN" "http://www.w3.org/Graphics/SVG/1.1/DTD/svg11.dtd" [
	<!ENTITY ns_extend "http://ns.adobe.com/Extensibility/1.0/">
	<!ENTITY ns_ai "http://ns.adobe.com/AdobeIllustrator/10.0/">
	<!ENTITY ns_graphs "http://ns.adobe.com/Graphs/1.0/">
	<!ENTITY ns_vars "http://ns.adobe.com/Variables/1.0/">
	<!ENTITY ns_imrep "http://ns.adobe.com/ImageReplacement/1.0/">
	<!ENTITY ns_sfw "http://ns.adobe.com/SaveForWeb/1.0/">
	<!ENTITY ns_custom "http://ns.adobe.com/GenericCustomNamespace/1.0/">
	<!ENTITY ns_adobe_xpath "http://ns.adobe.com/XPath/1.0/">
]>
<svg version="1.1" id="Livello_1" xmlns:x="&ns_extend;" xmlns:i="&ns_ai;" xmlns:graph="&ns_graphs;"
	 xmlns="http://www.w3.org/2000/svg" xmlns:xlink="http://www.w3.org/1999/xlink" x="0px" y="0px" viewBox="0 0 50 50"
	 style="enable-background:new 0 0 50 50;" xml:space="preserve">
<style type="text/css">
	.st0{fill:none;}
	.st1{fill:#8DA1B3;}
</style>
<metadata>
	<sfw  xmlns="&ns_sfw;">
		<slices></slices>
		<sliceSourceBounds  bottomLeftOrigin="true" height="42.5" width="45" x="233.5" y="-277.3"></sliceSourceBounds>
	</sfw>
</metadata>
<g>
	<polygon class="st0" points="27.6,24.6 27.6,24.6 27.6,24.6 	"/>
	<g>
		<polygon class="st1" points="27.6,24.6 27.9,24.7 27.6,24.6 27.6,46.3 33.8,46.3 33.8,19.2 27.6,24.6 		"/>
		<polygon class="st1" points="16.5,23.6 16.5,46.3 22.7,46.3 22.7,22.6 20.3,21.5 		"/>
		<polygon class="st1" points="38.7,46.3 44.9,46.3 44.9,9.7 38.7,15.1 		"/>
		<polygon class="st1" points="5.4,46.3 11.6,46.3 11.6,26.2 5.4,29.5 		"/>
	</g>
	<g>
		<polygon class="st1" points="44.2,5.7 27.2,20.2 20.7,17.6 2.5,27.4 3.2,28.6 20.8,19.1 27.4,21.9 45.1,6.7 		"/>
		<polygon class="st1" points="45.4,4.1 43.2,4.5 44.6,6.2 46,7.8 46.8,5.8 47.5,3.7 		"/>
	</g>
</g>
</svg>
