<?xml version="1.0" encoding="utf-8"?>
<!-- Generator: Adobe Illustrator 24.2.0, SVG Export Plug-In . SVG Version: 6.00 Build 0)  -->
<!DOCTYPE svg PUBLIC "-//W3C//DTD SVG 1.1//EN" "http://www.w3.org/Graphics/SVG/1.1/DTD/svg11.dtd" [
	<!ENTITY ns_extend "http://ns.adobe.com/Extensibility/1.0/">
	<!ENTITY ns_ai "http://ns.adobe.com/AdobeIllustrator/10.0/">
	<!ENTITY ns_graphs "http://ns.adobe.com/Graphs/1.0/">
	<!ENTITY ns_vars "http://ns.adobe.com/Variables/1.0/">
	<!ENTITY ns_imrep "http://ns.adobe.com/ImageReplacement/1.0/">
	<!ENTITY ns_sfw "http://ns.adobe.com/SaveForWeb/1.0/">
	<!ENTITY ns_custom "http://ns.adobe.com/GenericCustomNamespace/1.0/">
	<!ENTITY ns_adobe_xpath "http://ns.adobe.com/XPath/1.0/">
]>
<svg version="1.1" id="Livello_1" xmlns:x="&ns_extend;" xmlns:i="&ns_ai;" xmlns:graph="&ns_graphs;"
	 xmlns="http://www.w3.org/2000/svg" xmlns:xlink="http://www.w3.org/1999/xlink" x="0px" y="0px" viewBox="0 0 512 512"
	 style="enable-background:new 0 0 512 512;" xml:space="preserve">
<style type="text/css">
	.st0{fill:#7878DC;}
</style>
<metadata>
	<sfw  xmlns="&ns_sfw;">
		<slices></slices>
		<sliceSourceBounds  bottomLeftOrigin="true" height="422.1" width="332.3" x="89.8" y="45"></sliceSourceBounds>
	</sfw>
</metadata>
<path class="st0" d="M307.8,118.3c-52.6,13.2-80.5,70.3-108,116.4c-1,1.7,1.3,3.5,2.7,2c22.1-24.2,67.1-70.9,90.6-74.1
	c48.8-6.7,67.6,48.6,67.6,90.5c0,77.9-57.2,167.7-148.8,167.7c-4.3,0-8.4-0.3-12.3-0.8c-31.9-3.5-49.1-21.6-49.4-53.2
	c-0.4-18.9,2.1-33,4.3-44.7L208.6,54c1.8-9.1-11.2-12.9-14.5-4.3c-32.7,83.4-81.6,210.7-97.8,268c-5,17.7-6.5,38.9-6.5,55.9
	C89.6,443.3,141,467,203.5,467c138.9,0.1,218.6-117.1,218.6-219.7C422.1,183.1,384.7,99.1,307.8,118.3z"/>
</svg>
