<?xml version="1.0" encoding="utf-8"?>
<!-- Generator: Adobe Illustrator 24.2.0, SVG Export Plug-In . SVG Version: 6.00 Build 0)  -->
<!DOCTYPE svg PUBLIC "-//W3C//DTD SVG 1.1//EN" "http://www.w3.org/Graphics/SVG/1.1/DTD/svg11.dtd" [
	<!ENTITY ns_extend "http://ns.adobe.com/Extensibility/1.0/">
	<!ENTITY ns_ai "http://ns.adobe.com/AdobeIllustrator/10.0/">
	<!ENTITY ns_graphs "http://ns.adobe.com/Graphs/1.0/">
	<!ENTITY ns_vars "http://ns.adobe.com/Variables/1.0/">
	<!ENTITY ns_imrep "http://ns.adobe.com/ImageReplacement/1.0/">
	<!ENTITY ns_sfw "http://ns.adobe.com/SaveForWeb/1.0/">
	<!ENTITY ns_custom "http://ns.adobe.com/GenericCustomNamespace/1.0/">
	<!ENTITY ns_adobe_xpath "http://ns.adobe.com/XPath/1.0/">
]>
<svg version="1.1" id="Livello_1" xmlns:x="&ns_extend;" xmlns:i="&ns_ai;" xmlns:graph="&ns_graphs;"
	 xmlns="http://www.w3.org/2000/svg" xmlns:xlink="http://www.w3.org/1999/xlink" x="0px" y="0px" viewBox="0 0 479 169.1"
	 style="enable-background:new 0 0 479 169.1;" xml:space="preserve">
<style type="text/css">
	.st0{fill:#7174B6;}
</style>
<metadata>
	<sfw  xmlns="&ns_sfw;">
		<slices></slices>
		<sliceSourceBounds  bottomLeftOrigin="true" height="140.4" width="464" x="7.5" y="14.4"></sliceSourceBounds>
	</sfw>
</metadata>
<path class="st0" d="M71.1,51.1c-15.3,3.8-23.5,20.5-31.5,34c-0.3,0.5,0.4,1,0.8,0.6C46.8,78.6,60,64.9,66.8,64
	C81,62,86.5,78.2,86.5,90.4c0,22.7-16.7,48.9-43.4,48.9c-1.3,0-2.4-0.1-3.6-0.2c-9.3-1-14.2-9.6-14.3-18.8
	C25.8,87.9,51.4,16.7,51.4,16.7c1-2.6-0.9-3.3-1.8-0.8C39,40.3,7.5,95.4,7.5,125.5c-0.1,20.3,14.3,29.2,32.5,29.2
	c40.5,0,64.4-36.1,64.4-66C104.4,69.9,93.5,45.5,71.1,51.1z"/>
<g>
	<path class="st0" d="M154.5,68.8l-5.9,28.3h0.2c3.9-5.1,9.9-8.1,16.3-8.1c10.3,0,15.2,8,15.2,17c0,14-10.3,30.5-30.9,30.5
		c-10.3,0-16.8-4.2-16.7-13.2c0-2.6,0.4-5.5,1-8.4l9.3-46.1C143,68.8,154.5,68.8,154.5,68.8z M145.1,115.9c-0.3,1.5-0.7,3.3-0.5,5.6
		c0.1,4.1,2.7,6.2,7,6.2c10.1,0,17-10.7,17-20.1c0-5.1-2.6-9.6-8.2-9.6c-6.3,0-12.8,6.1-15,16.2L145.1,115.9z"/>
	<path class="st0" d="M233.5,108.8c0,16.2-12.1,27.7-28.1,27.7c-11.9,0-20.5-7.8-20.5-19.7c0-15.8,11.8-27.8,27.8-27.8
		C225.5,89,233.5,97.6,233.5,108.8z M196.7,116.6c0,6.9,4.3,11.2,10.3,11.2c8.5,0,14.6-9.2,14.6-18.6c0-5-2.5-11.5-10.2-11.5
		C202,97.7,196.7,108,196.7,116.6z"/>
	<path class="st0" d="M286.6,108.8c0,16.2-12.1,27.7-28.1,27.7c-11.9,0-20.5-7.8-20.5-19.7C238,101,249.8,89,265.8,89
		C278.6,89,286.6,97.6,286.6,108.8z M249.8,116.6c0,6.9,4.3,11.2,10.3,11.2c8.5,0,14.6-9.2,14.6-18.6c0-5-2.5-11.5-10.2-11.5
		C255.1,97.7,249.8,108,249.8,116.6z"/>
	<path class="st0" d="M291.1,135.4l12.7-66.6h11.3l-12.7,66.6H291.1z"/>
	<path class="st0" d="M341.3,68.8l-5.8,28.3h0.2c3.9-5.1,9.9-8.1,16.3-8.1c10.3,0,15.2,8,15.2,17c0,14-10.3,30.5-30.9,30.5
		c-10.3,0-16.8-4.2-16.7-13.2c0-2.6,0.4-5.5,1-8.4l9.3-46.1C329.9,68.8,341.3,68.8,341.3,68.8z M331.9,115.9
		c-0.3,1.5-0.7,3.3-0.5,5.6c0.1,4.1,2.7,6.2,7,6.2c10.1,0,17-10.7,17-20.1c0-5.1-2.6-9.6-8.2-9.6c-6.3,0-12.8,6.1-15,16.2
		L331.9,115.9z"/>
	<path class="st0" d="M371.7,135.4l5.9-31.6c1.1-5.3,1.7-9.8,2.3-13.7H390l-1.1,8.7h0.2c4.4-6.5,10.8-9.8,17.6-9.8
		c6.6,0,12.6,3.7,12.6,13.4c0,1.8-0.4,5.2-0.7,7.3l-4.9,25.7h-11.3l4.6-24.5c0.3-1.6,0.5-3.7,0.5-5.4c0-4.2-1.5-7.4-6.5-7.4
		c-5.4,0-12.4,6.3-14.4,17.5l-3.7,19.8H371.7z"/>
	<path class="st0" d="M445.6,68.8l-5.8,28.3h0.2c3.9-5.1,9.9-8.1,16.3-8.1c10.3,0,15.2,8,15.2,17c0,14-10.3,30.5-30.9,30.5
		c-10.3,0-16.8-4.2-16.7-13.2c0-2.6,0.4-5.5,1-8.4l9.3-46.1C434.2,68.8,445.6,68.8,445.6,68.8z M436.2,115.9
		c-0.3,1.5-0.7,3.3-0.5,5.6c0.1,4.1,2.7,6.2,7,6.2c10.1,0,17-10.7,17-20.1c0-5.1-2.6-9.6-8.2-9.6c-6.3,0-12.8,6.1-15,16.2
		L436.2,115.9z"/>
</g>
</svg>
