<?xml version="1.0" encoding="utf-8"?>
<!-- Generator: Adobe Illustrator 24.2.0, SVG Export Plug-In . SVG Version: 6.00 Build 0)  -->
<!DOCTYPE svg PUBLIC "-//W3C//DTD SVG 1.1//EN" "http://www.w3.org/Graphics/SVG/1.1/DTD/svg11.dtd" [
	<!ENTITY ns_extend "http://ns.adobe.com/Extensibility/1.0/">
	<!ENTITY ns_ai "http://ns.adobe.com/AdobeIllustrator/10.0/">
	<!ENTITY ns_graphs "http://ns.adobe.com/Graphs/1.0/">
	<!ENTITY ns_vars "http://ns.adobe.com/Variables/1.0/">
	<!ENTITY ns_imrep "http://ns.adobe.com/ImageReplacement/1.0/">
	<!ENTITY ns_sfw "http://ns.adobe.com/SaveForWeb/1.0/">
	<!ENTITY ns_custom "http://ns.adobe.com/GenericCustomNamespace/1.0/">
	<!ENTITY ns_adobe_xpath "http://ns.adobe.com/XPath/1.0/">
]>
<svg version="1.1" id="Livello_1" xmlns:x="&ns_extend;" xmlns:i="&ns_ai;" xmlns:graph="&ns_graphs;"
	 xmlns="http://www.w3.org/2000/svg" xmlns:xlink="http://www.w3.org/1999/xlink" x="0px" y="0px" viewBox="0 0 50 50"
	 style="enable-background:new 0 0 50 50;" xml:space="preserve">
<style type="text/css">
	.st0{fill:#757575;}
	.st1{fill:#D95819;}
</style>
<metadata>
	<sfw  xmlns="&ns_sfw;">
		<slices></slices>
		<sliceSourceBounds  bottomLeftOrigin="true" height="260.1" width="16383" x="-7924.9" y="232.1"></sliceSourceBounds>
	</sfw>
</metadata>
<g>
	<path class="st0" d="M48.2,25c0,4.9,0,9.9,0,14.8c0,1.4-0.2,2.7-0.9,4c-1.7,3.4-4.5,5.1-8.2,5.2c-4,0-8.1,0-12.1,0
		c-0.1,0-0.2,0-0.3,0c-0.8-0.1-1.4-0.9-1.2-1.7c0.2-0.7,0.7-1,1.5-1c4,0,8.1,0,12.1,0c3.6,0,6.3-2.7,6.3-6.2c0-10,0-20,0-29.9
		c0-0.9-0.2-1.8-0.6-2.7C43.6,5,41.7,3.8,39,3.8c-4,0-8.1,0-12.1,0c-0.2,0-0.4,0-0.5,0c-0.5-0.1-0.9-0.3-1.1-0.8
		c-0.4-0.9,0.3-1.9,1.3-1.9c2.2,0,4.3,0,6.5,0c2.2,0,4.4,0,6.6,0c2.4,0.1,4.4,1,6,2.7c1.7,1.8,2.5,3.9,2.5,6.4
		C48.1,15.1,48.2,20.1,48.2,25L48.2,25z"/>
	<path class="st1" d="M27.5,34.1l8.1-8.1c0.1-0.1,0.2-0.2,0.3-0.4c0.1-0.2,0.2-0.4,0.2-0.7c0,0,0,0,0,0c0,0,0,0,0,0
		c0-0.2-0.1-0.5-0.2-0.6c-0.1-0.1-0.2-0.3-0.3-0.4l-8.1-8.1c-0.6-0.6-1.4-0.6-1.9-0.1c-0.5,0.5-0.4,1.4,0.1,1.9l6,6H3.3
		c-0.8,0-1.5,0.6-1.5,1.3c0,0.7,0.7,1.3,1.5,1.3h28.3l-6,6.1c-0.6,0.6-0.6,1.4-0.1,1.9C26,34.7,26.9,34.7,27.5,34.1z"/>
</g>
</svg>
