<?xml version="1.0" encoding="utf-8"?>
<!-- Generator: Adobe Illustrator 24.2.0, SVG Export Plug-In . SVG Version: 6.00 Build 0)  -->
<!DOCTYPE svg PUBLIC "-//W3C//DTD SVG 1.1//EN" "http://www.w3.org/Graphics/SVG/1.1/DTD/svg11.dtd" [
	<!ENTITY ns_extend "http://ns.adobe.com/Extensibility/1.0/">
	<!ENTITY ns_ai "http://ns.adobe.com/AdobeIllustrator/10.0/">
	<!ENTITY ns_graphs "http://ns.adobe.com/Graphs/1.0/">
	<!ENTITY ns_vars "http://ns.adobe.com/Variables/1.0/">
	<!ENTITY ns_imrep "http://ns.adobe.com/ImageReplacement/1.0/">
	<!ENTITY ns_sfw "http://ns.adobe.com/SaveForWeb/1.0/">
	<!ENTITY ns_custom "http://ns.adobe.com/GenericCustomNamespace/1.0/">
	<!ENTITY ns_adobe_xpath "http://ns.adobe.com/XPath/1.0/">
]>
<svg version="1.1" id="Livello_1" xmlns:x="&ns_extend;" xmlns:i="&ns_ai;" xmlns:graph="&ns_graphs;"
	 xmlns="http://www.w3.org/2000/svg" xmlns:xlink="http://www.w3.org/1999/xlink" x="0px" y="0px" viewBox="0 0 558.9 556.2"
	 style="enable-background:new 0 0 558.9 556.2;" xml:space="preserve">
<style type="text/css">
	.st0{fill:#757575;}
	.st1{fill:#D95819;}
</style>
<metadata>
	<sfw  xmlns="&ns_sfw;">
		<slices></slices>
		<sliceSourceBounds  bottomLeftOrigin="true" height="514.1" width="465.3" x="46.8" y="29"></sliceSourceBounds>
	</sfw>
</metadata>
<path class="st0" d="M485.4,409c0,13.7,0,24,0,29.6c-0.1,25.7-11.6,44.6-34.6,56.1c-8.1,4.1-16.8,5.7-25.8,5.7c-97,0-194,0.1-291,0
	c-34.5,0-60.4-26.4-60.5-61.3c0-5.7,0-16.1,0-30.1H46.9c0,13.8,0.1,24.2,0.1,29.9c0.4,36.7,17.3,63.6,50.2,80
	c12,6.3,25.1,8.3,38.6,8.3c47.9-0.1,95.9,0,143.8,0l0,0c47.8,0,95.6-0.1,143.4,0c23.8,0.1,44.7-7.4,62-23.9
	c16.7-15.9,26-35.5,26.7-58.5c0.1-4.2,0.2-17.3,0.3-35.8L485.4,409L485.4,409z"/>
<path class="st0" d="M279.6,13.1c-47.9,0-95.9,0.1-143.8,0c-13.5,0-26.6,2-38.6,8.3c-32.9,16.4-49.8,43.3-50.2,80
	c0,5.6-0.1,59.3-0.1,73.1h26.6c0-13.9,0-67.6,0-73.3c0.1-34.9,26-61.3,60.5-61.3c70.7-0.1,141.3,0,212,0V13.1
	C323.9,13.1,301.7,13.1,279.6,13.1z"/>
<path class="st0" d="M73.5,164.7H46.9c-0.1,77-0.1,188.5,0,244.3h26.6C73.5,353.1,73.5,241.7,73.5,164.7z"/>
<path class="st0" d="M485.4,164.7c0,76.7,0,188.6,0,244.3H512c0.2-65.1,0-197.2,0-244.3H485.4z"/>
<path class="st0" d="M451.4,426h-346c-6.6,0-12-5.4-12-12v-1c0-6.6,5.4-12,12-12h346c6.6,0,12,5.4,12,12v1
	C463.4,420.6,458,426,451.4,426z"/>
<g>
	<path class="st1" d="M414.5,67.8c28.7,29.4,14.9,16.3,43.5,45.5c-82,82-166.2,166.4-249.5,249.6c-29-28.7-15.8-15.4-44.2-43.5
		C247,236.3,331.1,151.8,414.5,67.8z"/>
	<path class="st1" d="M147,381.4c3.4-19.2,6.2-35.9,9.2-53c14.8,14.8,28.7,28.6,43.5,43.4C182.9,374.9,166.3,377.9,147,381.4z"/>
	<path class="st1" d="M466.6,103.3L423,58l13-12.5c7.5-7.2,19.3-6.9,26.3,0.4L480,64.3c7.2,7.5,6.9,19.3-0.4,26.3L466.6,103.3z"/>
</g>
</svg>
