<?xml version="1.0" encoding="utf-8"?>
<!-- Generator: Adobe Illustrator 24.2.0, SVG Export Plug-In . SVG Version: 6.00 Build 0)  -->
<!DOCTYPE svg PUBLIC "-//W3C//DTD SVG 1.1//EN" "http://www.w3.org/Graphics/SVG/1.1/DTD/svg11.dtd" [
	<!ENTITY ns_extend "http://ns.adobe.com/Extensibility/1.0/">
	<!ENTITY ns_ai "http://ns.adobe.com/AdobeIllustrator/10.0/">
	<!ENTITY ns_graphs "http://ns.adobe.com/Graphs/1.0/">
	<!ENTITY ns_vars "http://ns.adobe.com/Variables/1.0/">
	<!ENTITY ns_imrep "http://ns.adobe.com/ImageReplacement/1.0/">
	<!ENTITY ns_sfw "http://ns.adobe.com/SaveForWeb/1.0/">
	<!ENTITY ns_custom "http://ns.adobe.com/GenericCustomNamespace/1.0/">
	<!ENTITY ns_adobe_xpath "http://ns.adobe.com/XPath/1.0/">
]>
<svg version="1.1" id="Livello_1" xmlns:x="&ns_extend;" xmlns:i="&ns_ai;" xmlns:graph="&ns_graphs;"
	 xmlns="http://www.w3.org/2000/svg" xmlns:xlink="http://www.w3.org/1999/xlink" x="0px" y="0px" viewBox="0 0 50 50"
	 style="enable-background:new 0 0 50 50;" xml:space="preserve">
<style type="text/css">
	.st0{fill:#4B5663;}
</style>
<metadata>
	<sfw  xmlns="&ns_sfw;">
		<slices></slices>
		<sliceSourceBounds  bottomLeftOrigin="true" height="45" width="45" x="2.5" y="2.5"></sliceSourceBounds>
	</sfw>
</metadata>
<path class="st0" d="M21.3,2.5c0.7,0.1,1.5,0.2,2.2,0.3c7,1.3,12.8,7.2,13.9,14.3c0.8,5-0.3,9.5-3.3,13.5c-0.1,0.1-0.1,0.1-0.2,0.2
	c0,0,0,0.1-0.1,0.2c0.1,0.1,0.3,0.2,0.4,0.3c4.2,4.1,8.3,8.3,12.5,12.5c0.6,0.6,0.9,1.2,0.7,2s-0.7,1.4-1.5,1.6
	c-0.8,0.2-1.5,0.1-2.1-0.5c-1.5-1.4-2.9-2.9-4.4-4.3c-2.8-2.8-5.6-5.6-8.3-8.3c-0.1-0.1-0.2-0.2-0.3-0.3c-0.1,0.1-0.3,0.2-0.4,0.3
	c-10.1,7.4-24.7,2-27.5-10.4c-0.2-0.9-0.3-1.8-0.4-2.6c0-0.8,0-1.6,0-2.5c0.1-0.6,0.2-1.2,0.3-1.8C3.9,10,9.6,4.2,16.7,2.8
	c0.7-0.1,1.4-0.2,2.2-0.3C19.7,2.5,20.5,2.5,21.3,2.5z M20.1,33.4c7.4,0,13.4-6,13.3-13.4c0-7.4-6-13.3-13.4-13.3s-13.4,6-13.3,13.4
	C6.7,27.5,12.7,33.4,20.1,33.4z"/>
<path class="st0" d="M22.1,18c1.7,0,3.4,0,5,0c0.9,0,1.7,0.6,2,1.5s0,1.8-0.8,2.3C28,22,27.5,22.2,27,22.2c-1.6,0-3.2,0-4.9,0
	c0,0.2,0,0.3,0,0.5c0,1.4,0,2.9,0,4.3c0,1.3-0.9,2.3-2.1,2.2c-1.2,0-2.1-1-2.1-2.2c0-1.4,0-2.8,0-4.3c0-0.2,0-0.3,0-0.5
	c-0.2,0-0.3,0-0.5,0c-1.4,0-2.9,0-4.3,0c-1.3,0-2.2-0.9-2.2-2.1s0.9-2.1,2.2-2.1c1.6,0,3.2,0,4.8,0c0-0.2,0-0.3,0-0.5
	c0-1.4,0-2.9,0-4.3c0-1.3,0.9-2.2,2.1-2.2s2.1,0.9,2.1,2.2C22.1,14.6,22.1,17.8,22.1,18z"/>
</svg>
