<?xml version="1.0" encoding="utf-8"?>
<!-- Generator: Adobe Illustrator 24.2.0, SVG Export Plug-In . SVG Version: 6.00 Build 0)  -->
<!DOCTYPE svg PUBLIC "-//W3C//DTD SVG 1.1//EN" "http://www.w3.org/Graphics/SVG/1.1/DTD/svg11.dtd" [
	<!ENTITY ns_extend "http://ns.adobe.com/Extensibility/1.0/">
	<!ENTITY ns_ai "http://ns.adobe.com/AdobeIllustrator/10.0/">
	<!ENTITY ns_graphs "http://ns.adobe.com/Graphs/1.0/">
	<!ENTITY ns_vars "http://ns.adobe.com/Variables/1.0/">
	<!ENTITY ns_imrep "http://ns.adobe.com/ImageReplacement/1.0/">
	<!ENTITY ns_sfw "http://ns.adobe.com/SaveForWeb/1.0/">
	<!ENTITY ns_custom "http://ns.adobe.com/GenericCustomNamespace/1.0/">
	<!ENTITY ns_adobe_xpath "http://ns.adobe.com/XPath/1.0/">
]>
<svg version="1.1" id="Livello_1" xmlns:x="&ns_extend;" xmlns:i="&ns_ai;" xmlns:graph="&ns_graphs;"
	 xmlns="http://www.w3.org/2000/svg" xmlns:xlink="http://www.w3.org/1999/xlink" x="0px" y="0px" viewBox="0 0 50 50"
	 style="enable-background:new 0 0 50 50;" xml:space="preserve">
<style type="text/css">
	.st0{fill:#4B5663;}
</style>
<metadata>
	<sfw  xmlns="&ns_sfw;">
		<slices></slices>
		<sliceSourceBounds  bottomLeftOrigin="true" height="42" width="45" x="233.5" y="-277"></sliceSourceBounds>
	</sfw>
</metadata>
<g>
	<path class="st0" d="M2.5,7.7c0.1-0.2,0.1-0.5,0.2-0.7C3,5.3,4.1,4.3,5.7,4.1C6.2,4,6.7,4,7.1,4c8.7,0,17.5,0,26.2,0
		c0.2,0,0.3,0,0.6,0c-1,1-2,2-2.9,2.9C31,7,30.7,7,30.5,7C22.8,7,15.1,7,7.4,7C7,7,6.7,7,6.3,7C5.7,7,5.5,7.2,5.5,7.8
		c0,0.6,0,1.2,0,1.8c0,10.7,0,21.4,0,32.1c0,1.3,0.1,1.3,1.4,1.3c11.1,0,22.2,0,33.3,0c1.2,0,1.3-0.1,1.3-1.3c0-5.9,0-11.8,0-17.7
		c0-0.4,0.1-0.6,0.4-0.9c0.9-0.8,1.7-1.7,2.6-2.6c0,0.2,0,0.3,0,0.4c0,6.9,0,13.7,0,20.6c0,0.5,0,0.9-0.1,1.4c-0.4,2-1.8,3.1-4,3.1
		c-3.2,0-6.5,0-9.7,0c-7.8,0-15.6,0-23.4,0c-0.5,0-1,0-1.5-0.1c-1.7-0.3-2.7-1.4-3-3.1c0-0.1-0.1-0.3-0.1-0.4
		C2.5,30.8,2.5,19.2,2.5,7.7z"/>
	<path class="st0" d="M38.4,7c2,2,4,4,6,6c-7,6.5-13.9,12.9-20.9,19.4c-2-2-4-4-6-6C24.5,20,31.5,13.5,38.4,7z"/>
	<path class="st0" d="M21.9,34C19,35,16,36,13,37c1-3,2-6,3-8.9C18,30.1,19.9,32,21.9,34z"/>
	<path class="st0" d="M46,11.5c-2-2-4-4-6-6c1.1-1.1,2.4-1.7,3.9-1.4c1.8,0.3,3,1.4,3.4,3.2C47.8,8.9,47.2,10.3,46,11.5z"/>
</g>
</svg>
