<?xml version="1.0" encoding="utf-8"?>
<!-- Generator: Adobe Illustrator 24.2.0, SVG Export Plug-In . SVG Version: 6.00 Build 0)  -->
<!DOCTYPE svg PUBLIC "-//W3C//DTD SVG 1.1//EN" "http://www.w3.org/Graphics/SVG/1.1/DTD/svg11.dtd" [
	<!ENTITY ns_extend "http://ns.adobe.com/Extensibility/1.0/">
	<!ENTITY ns_ai "http://ns.adobe.com/AdobeIllustrator/10.0/">
	<!ENTITY ns_graphs "http://ns.adobe.com/Graphs/1.0/">
	<!ENTITY ns_vars "http://ns.adobe.com/Variables/1.0/">
	<!ENTITY ns_imrep "http://ns.adobe.com/ImageReplacement/1.0/">
	<!ENTITY ns_sfw "http://ns.adobe.com/SaveForWeb/1.0/">
	<!ENTITY ns_custom "http://ns.adobe.com/GenericCustomNamespace/1.0/">
	<!ENTITY ns_adobe_xpath "http://ns.adobe.com/XPath/1.0/">
]>
<svg version="1.1" id="Livello_1" xmlns:x="&ns_extend;" xmlns:i="&ns_ai;" xmlns:graph="&ns_graphs;"
	 xmlns="http://www.w3.org/2000/svg" xmlns:xlink="http://www.w3.org/1999/xlink" x="0px" y="0px" viewBox="0 0 50 50"
	 style="enable-background:new 0 0 50 50;" xml:space="preserve">
<style type="text/css">
	.st0{fill:#626F7B;}
	.st1{fill:#4B5663;}
</style>
<metadata>
	<sfw  xmlns="&ns_sfw;">
		<slices></slices>
		<sliceSourceBounds  bottomLeftOrigin="true" height="38.6" width="45" x="233.5" y="-275.3"></sliceSourceBounds>
	</sfw>
</metadata>
<g>
	<path class="st0" d="M22.9,30.6c6,2.1,12,4.2,18,6.2c1.2,0.4,1.7,0.1,1.7-1.3c0-9.5,0-19.1,0-28.6c0-0.9-0.5-1.4-1.3-1.1
		C35.2,7.8,29,10,22.9,12.1"/>
	<path class="st1" d="M11.4,30.7c2.3,0,4.6,0,6.9,0c0,3.6,0,7.2,0,10.8c0,1.2-0.6,2.1-2.1,2.6c-2.3,0.7-4.7-0.5-4.7-2.5
		C11.4,38,11.4,34.3,11.4,30.7z"/>
	<path class="st1" d="M11.4,30.6c2.3,0,4.6,0,6.9,0c0,3.6,0,7.2,0,10.8c0,1.2-0.6,2.1-2.1,2.6c-2.3,0.7-4.7-0.5-4.7-2.5
		C11.4,37.8,11.4,34.2,11.4,30.6z"/>
	<path class="st1" d="M46.7,26.8h-4v-11h4c0.5,0,0.8,0.4,0.8,0.8V26C47.5,26.5,47.1,26.8,46.7,26.8z"/>
	<path class="st1" d="M11,12.1c-4.7,0.2-8.5,4.3-8.5,9.2s3.8,9,8.5,9.2h11.9V12.1H11z"/>
</g>
</svg>
