<?xml version="1.0" encoding="utf-8"?>
<!-- Generator: Adobe Illustrator 24.2.0, SVG Export Plug-In . SVG Version: 6.00 Build 0)  -->
<!DOCTYPE svg PUBLIC "-//W3C//DTD SVG 1.1//EN" "http://www.w3.org/Graphics/SVG/1.1/DTD/svg11.dtd" [
	<!ENTITY ns_extend "http://ns.adobe.com/Extensibility/1.0/">
	<!ENTITY ns_ai "http://ns.adobe.com/AdobeIllustrator/10.0/">
	<!ENTITY ns_graphs "http://ns.adobe.com/Graphs/1.0/">
	<!ENTITY ns_vars "http://ns.adobe.com/Variables/1.0/">
	<!ENTITY ns_imrep "http://ns.adobe.com/ImageReplacement/1.0/">
	<!ENTITY ns_sfw "http://ns.adobe.com/SaveForWeb/1.0/">
	<!ENTITY ns_custom "http://ns.adobe.com/GenericCustomNamespace/1.0/">
	<!ENTITY ns_adobe_xpath "http://ns.adobe.com/XPath/1.0/">
]>
<svg version="1.1" id="Livello_1" xmlns:x="&ns_extend;" xmlns:i="&ns_ai;" xmlns:graph="&ns_graphs;"
	 xmlns="http://www.w3.org/2000/svg" xmlns:xlink="http://www.w3.org/1999/xlink" x="0px" y="0px" viewBox="0 0 50 50"
	 style="enable-background:new 0 0 50 50;" xml:space="preserve">
<style type="text/css">
	.st0{fill:#4B5B6D;}
	.st1{fill:#FFFFFF;}
	.st2{fill:#F7BE08;}
</style>
<metadata>
	<sfw  xmlns="&ns_sfw;">
		<slices></slices>
		<sliceSourceBounds  bottomLeftOrigin="true" height="45" width="32.5" x="239.8" y="233.5"></sliceSourceBounds>
	</sfw>
</metadata>
<g>
	<g>
		<g>
			<path class="st0" d="M39.5,43.6c-1-2.1-4.5-9.7-4.7-9.7c-0.6,0.1-1.7,0.3-2.2,0.7c-1.6,1.4-3.1,3-5.3,2.8c1.6,3.4,3.2,6.7,4.8,10
				c3.9-4.9,1.2-3.6,7.5-3.6C39.6,43.8,39.6,43.7,39.5,43.6z"/>
			<path class="st0" d="M23.2,36c0,0-2.9,0.7-4,0.5c-1.6-0.2-2.8-1.1-3.7-2.4c-0.1-0.1-0.1-0.2-0.3-0.3c-1.6,3.4-3.2,6.8-4.9,10.2
				c0.1,0,0.2,0,0.3,0c1.4-0.1,2.8-0.1,4.1-0.2c0.1,0,0.2,0,0.3,0.1c0.6,0.8,1.2,1.6,1.8,2.4c0.3,0.4,0.6,0.8,1,1.3
				C17.9,47.4,23.2,36,23.2,36z"/>
		</g>
	</g>
	<path class="st0" d="M41.2,22c-0.2-1.2-0.7-2.3-1-3.4c0-0.1,0-0.1,0-0.2c0.3-1.3,0.9-2.5,0.9-3.9c-0.1-1.7-1.7-2.5-2.8-3.5
		c-0.4-0.3-0.8-0.6-0.9-1.2c-0.2-0.6-0.4-1.1-0.5-1.7c-0.5-2.1-1.9-2.7-4-2.8c-0.5,0-0.9-0.1-1.4-0.2c-0.3,0-0.5-0.1-0.6-0.3
		c-0.5-0.4-0.9-0.8-1.4-1.1c-0.1,0-0.2-0.2-0.3-0.2c-1-1-2.3-1.4-3.6-0.8c-1,0.3-2.5,1.6-3.5,1.3C21.3,4,20.6,4,19.9,3.9
		c-0.4-0.1-0.8-0.1-1.2,0c-1.5,0.2-2.1,1.7-2.8,2.8c-0.2,0.3-0.3,0.6-0.6,0.9c-0.1,0.1-0.1,0.3-0.4,0.4c-0.9,0.3-1.8,0.9-2.7,1.3
		c-0.8,0.4-1.3,1.2-1.5,2c-0.2,1.3,0.2,2.6,0,3.9c-0.5,0.8-0.9,1.6-1.4,2.3c-0.8,1.1-0.7,2.6,0.1,3.7c0.5,0.7,1,1.5,1.5,2.2
		c0.1,0.1,0.1,0.2,0.1,0.3c0.2,1.4-0.3,3.4,0.6,4.5c0,0,0,0,0,0c0.7,1.2,2.3,1.3,3.4,2c0.3,0.1,0.7,0.2,0.9,0.5c0,0,0,0,0,0
		c2.5,4.1,2.8,4,7.4,3c0.5,0,0.9,0.4,1.3,0.5c3.9,1.9,3.8,0.3,7-1.8c1.5-1,4.1-0.1,5.2-2c0.6-1.1,0.7-2.5,1.1-3.7
		C39.1,25.2,41.6,24.3,41.2,22z"/>
	<circle class="st1" cx="25" cy="18.8" r="11.6"/>
	<path class="st2" d="M26.9,13.7C25,14.2,24,16.3,23,18c0,0.1,0,0.1,0.1,0.1c0.8-0.9,2.4-2.6,3.3-2.7c1.8-0.2,2.5,1.8,2.5,3.3
		c0,2.8-2.1,6.1-5.4,6.1c-0.2,0-0.3,0-0.4,0c-1.2-0.1-1.8-0.8-1.8-1.9c0-0.7,0.1-1.2,0.2-1.6l2-9.8c0.1-0.3-0.4-0.5-0.5-0.2
		c-1.2,3-3,7.7-3.6,9.8c-0.2,0.6-0.2,1.4-0.2,2c0,2.5,1.9,3.4,4.1,3.4c5.1,0,8-4.3,8-8C31.1,16.1,29.7,13,26.9,13.7z"/>
</g>
</svg>
