<?xml version="1.0" encoding="utf-8"?>
<!-- Generator: Adobe Illustrator 24.2.0, SVG Export Plug-In . SVG Version: 6.00 Build 0)  -->
<!DOCTYPE svg PUBLIC "-//W3C//DTD SVG 1.1//EN" "http://www.w3.org/Graphics/SVG/1.1/DTD/svg11.dtd" [
	<!ENTITY ns_extend "http://ns.adobe.com/Extensibility/1.0/">
	<!ENTITY ns_ai "http://ns.adobe.com/AdobeIllustrator/10.0/">
	<!ENTITY ns_graphs "http://ns.adobe.com/Graphs/1.0/">
	<!ENTITY ns_vars "http://ns.adobe.com/Variables/1.0/">
	<!ENTITY ns_imrep "http://ns.adobe.com/ImageReplacement/1.0/">
	<!ENTITY ns_sfw "http://ns.adobe.com/SaveForWeb/1.0/">
	<!ENTITY ns_custom "http://ns.adobe.com/GenericCustomNamespace/1.0/">
	<!ENTITY ns_adobe_xpath "http://ns.adobe.com/XPath/1.0/">
]>
<svg version="1.1" id="Livello_2_1_" xmlns:x="&ns_extend;" xmlns:i="&ns_ai;" xmlns:graph="&ns_graphs;"
	 xmlns="http://www.w3.org/2000/svg" xmlns:xlink="http://www.w3.org/1999/xlink" x="0px" y="0px" viewBox="0 0 30 30"
	 style="enable-background:new 0 0 30 30;" xml:space="preserve">
<style type="text/css">
	.st0{fill:#7174B6;}
</style>
<metadata>
	<sfw  xmlns="&ns_sfw;">
		<slices></slices>
		<sliceSourceBounds  bottomLeftOrigin="true" height="29.9" width="30" x="-2.5" y="-2.4"></sliceSourceBounds>
	</sfw>
</metadata>
<path class="st0" d="M29.6,27.2l-8.2-8.3c1.4-2,2.3-4.4,2.3-7.1C23.7,5.3,18.4,0,11.9,0C5.3,0,0,5.3,0,11.8s5.3,11.8,11.8,11.8
	c2.6,0,5-0.8,7-2.3l8.2,8.2c0.4,0.4,0.7,0.5,1.2,0.5c0.5,0,0.8-0.1,1.2-0.5C30.2,28.8,30.2,27.8,29.6,27.2z M3,11.8
	C3,7,6.9,3,11.8,3s8.8,4,8.8,8.8s-4,8.8-8.8,8.8C6.9,20.7,3,16.7,3,11.8z"/>
</svg>
