<?xml version="1.0" encoding="utf-8"?>
<!-- Generator: Adobe Illustrator 24.2.0, SVG Export Plug-In . SVG Version: 6.00 Build 0)  -->
<!DOCTYPE svg PUBLIC "-//W3C//DTD SVG 1.1//EN" "http://www.w3.org/Graphics/SVG/1.1/DTD/svg11.dtd" [
	<!ENTITY ns_extend "http://ns.adobe.com/Extensibility/1.0/">
	<!ENTITY ns_ai "http://ns.adobe.com/AdobeIllustrator/10.0/">
	<!ENTITY ns_graphs "http://ns.adobe.com/Graphs/1.0/">
	<!ENTITY ns_vars "http://ns.adobe.com/Variables/1.0/">
	<!ENTITY ns_imrep "http://ns.adobe.com/ImageReplacement/1.0/">
	<!ENTITY ns_sfw "http://ns.adobe.com/SaveForWeb/1.0/">
	<!ENTITY ns_custom "http://ns.adobe.com/GenericCustomNamespace/1.0/">
	<!ENTITY ns_adobe_xpath "http://ns.adobe.com/XPath/1.0/">
]>
<svg version="1.1" id="Livello_1" xmlns:x="&ns_extend;" xmlns:i="&ns_ai;" xmlns:graph="&ns_graphs;"
	 xmlns="http://www.w3.org/2000/svg" xmlns:xlink="http://www.w3.org/1999/xlink" x="0px" y="0px" viewBox="0 0 398 94"
	 style="enable-background:new 0 0 398 94;" xml:space="preserve">
<style type="text/css">
	.st0{fill:#7274B4;}
</style>
<metadata>
	<sfw  xmlns="&ns_sfw;">
		<slices></slices>
		<sliceSourceBounds  bottomLeftOrigin="true" height="75.2" width="376" x="69" y="-292.6"></sliceSourceBounds>
	</sfw>
</metadata>
<g>
	<path class="st0" d="M35.1,9.4l-6.5,31.4l0.2,0c4.3-5.7,11-9,18.1-9c11.5,0,16.9,8.8,16.9,18.9c0,15.5-11.5,33.9-34.3,33.9
		c-11.5,0-18.6-4.7-18.6-14.7c0-2.9,0.5-6.1,1.1-9.3L22.5,9.4H35.1z M24.6,61.7c-0.3,1.7-0.7,3.7-0.6,6.3c0.1,4.5,3,6.9,7.7,6.9
		c11.2,0,18.9-11.8,18.9-22.3c0-5.7-2.9-10.7-9.1-10.7c-7,0-14.2,6.8-16.6,18L24.6,61.7z"/>
	<path class="st0" d="M122.8,53.9c0,18-13.4,30.7-31.2,30.7c-13.2,0-22.8-8.6-22.8-21.9c0-17.6,13.1-30.9,30.9-30.9
		C113.9,31.8,122.8,41.4,122.8,53.9z M82,62.5c0,7.7,4.8,12.4,11.5,12.4c9.5,0,16.2-10.3,16.2-20.6c0-5.6-2.8-12.8-11.3-12.8
		C87.9,41.5,82,53,82,62.5z"/>
	<path class="st0" d="M181.7,53.9c0,18-13.4,30.7-31.2,30.7c-13.2,0-22.8-8.6-22.8-21.9c0-17.6,13.1-30.9,30.9-30.9
		C172.9,31.8,181.7,41.4,181.7,53.9z M140.9,62.5c0,7.7,4.8,12.4,11.5,12.4c9.5,0,16.2-10.3,16.2-20.6c0-5.6-2.8-12.8-11.3-12.8
		C146.8,41.5,140.9,53,140.9,62.5z"/>
	<path class="st0" d="M186.7,83.3l14.1-73.9h12.5l-14.1,73.9H186.7z"/>
	<path class="st0" d="M242.5,9.4L236,40.8l0.2,0c4.3-5.7,11-9,18.1-9c11.5,0,16.9,8.8,16.9,18.9c0,15.5-11.4,33.9-34.3,33.9
		c-11.5,0-18.6-4.7-18.6-14.7c0-2.9,0.5-6.1,1.1-9.3l10.4-51.2H242.5z M232.1,61.7c-0.3,1.7-0.7,3.7-0.6,6.3c0.1,4.5,3,6.9,7.7,6.9
		c11.2,0,18.9-11.8,18.9-22.3c0-5.7-2.9-10.7-9.1-10.7c-7,0-14.2,6.8-16.6,18L232.1,61.7z"/>
	<path class="st0" d="M276.3,83.3l6.6-35.1c1.2-5.8,1.9-10.9,2.5-15.2h11.2l-1.2,9.7h0.2c4.9-7.3,12-10.9,19.5-10.9
		c7.4,0,14,4.1,14,14.9c0,2-0.4,5.8-0.8,8.1l-5.4,28.5h-12.5l5.1-27.2c0.3-1.8,0.6-4.1,0.6-6c0-4.7-1.7-8.2-7.2-8.2
		c-6,0-13.7,7-16,19.4l-4.1,22H276.3z"/>
	<path class="st0" d="M358.3,9.4l-6.5,31.4l0.2,0c4.3-5.7,11-9,18.1-9c11.5,0,16.9,8.8,16.9,18.9c0,15.5-11.4,33.9-34.3,33.9
		c-11.5,0-18.6-4.7-18.6-14.7c0-2.9,0.5-6.1,1.1-9.3l10.4-51.2H358.3z M347.8,61.7c-0.3,1.7-0.7,3.7-0.6,6.3c0.1,4.5,3,6.9,7.7,6.9
		c11.2,0,18.9-11.8,18.9-22.3c0-5.7-2.9-10.7-9.1-10.7c-7,0-14.2,6.8-16.6,18L347.8,61.7z"/>
</g>
</svg>
