<?xml version="1.0" encoding="utf-8"?>
<!-- Generator: Adobe Illustrator 24.2.0, SVG Export Plug-In . SVG Version: 6.00 Build 0)  -->
<!DOCTYPE svg PUBLIC "-//W3C//DTD SVG 1.1//EN" "http://www.w3.org/Graphics/SVG/1.1/DTD/svg11.dtd" [
	<!ENTITY ns_extend "http://ns.adobe.com/Extensibility/1.0/">
	<!ENTITY ns_ai "http://ns.adobe.com/AdobeIllustrator/10.0/">
	<!ENTITY ns_graphs "http://ns.adobe.com/Graphs/1.0/">
	<!ENTITY ns_vars "http://ns.adobe.com/Variables/1.0/">
	<!ENTITY ns_imrep "http://ns.adobe.com/ImageReplacement/1.0/">
	<!ENTITY ns_sfw "http://ns.adobe.com/SaveForWeb/1.0/">
	<!ENTITY ns_custom "http://ns.adobe.com/GenericCustomNamespace/1.0/">
	<!ENTITY ns_adobe_xpath "http://ns.adobe.com/XPath/1.0/">
]>
<svg version="1.1" id="Livello_1" xmlns:x="&ns_extend;" xmlns:i="&ns_ai;" xmlns:graph="&ns_graphs;"
	 xmlns="http://www.w3.org/2000/svg" xmlns:xlink="http://www.w3.org/1999/xlink" x="0px" y="0px" viewBox="0 0 35 35"
	 style="enable-background:new 0 0 35 35;" xml:space="preserve">
<style type="text/css">
	.st0{fill:#7878DC;}
	.st1{fill:#FFFFFF;}
</style>
<metadata>
	<sfw  xmlns="&ns_sfw;">
		<slices></slices>
		<sliceSourceBounds  bottomLeftOrigin="true" height="30" width="30" x="241" y="-271"></sliceSourceBounds>
	</sfw>
</metadata>
<g>
	<circle class="st0" cx="17.5" cy="17.5" r="15"/>
	<g>
		<path class="st1" d="M24.9,23l-2.6-2.6c0.7-1.1,1.1-2.4,1.1-3.7c0-3.7-3-6.7-6.7-6.7C13,10,10,13,10,16.7c0,3.7,3,6.7,6.7,6.7
			c1.3,0,2.6-0.4,3.7-1.1l2.6,2.6c0.2,0.2,0.5,0.2,0.7,0l1.2-1.2C25,23.5,25,23.2,24.9,23z M16.7,20.7c-2.2,0-4-1.8-4-4s1.8-4,4-4
			s4,1.8,4,4S18.9,20.7,16.7,20.7z"/>
	</g>
</g>
</svg>
