<?xml version="1.0" encoding="utf-8"?>
<!-- Generator: Adobe Illustrator 24.2.0, SVG Export Plug-In . SVG Version: 6.00 Build 0)  -->
<!DOCTYPE svg PUBLIC "-//W3C//DTD SVG 1.1//EN" "http://www.w3.org/Graphics/SVG/1.1/DTD/svg11.dtd" [
	<!ENTITY ns_extend "http://ns.adobe.com/Extensibility/1.0/">
	<!ENTITY ns_ai "http://ns.adobe.com/AdobeIllustrator/10.0/">
	<!ENTITY ns_graphs "http://ns.adobe.com/Graphs/1.0/">
	<!ENTITY ns_vars "http://ns.adobe.com/Variables/1.0/">
	<!ENTITY ns_imrep "http://ns.adobe.com/ImageReplacement/1.0/">
	<!ENTITY ns_sfw "http://ns.adobe.com/SaveForWeb/1.0/">
	<!ENTITY ns_custom "http://ns.adobe.com/GenericCustomNamespace/1.0/">
	<!ENTITY ns_adobe_xpath "http://ns.adobe.com/XPath/1.0/">
]>
<svg version="1.1" id="Livello_1" xmlns:x="&ns_extend;" xmlns:i="&ns_ai;" xmlns:graph="&ns_graphs;"
	 xmlns="http://www.w3.org/2000/svg" xmlns:xlink="http://www.w3.org/1999/xlink" x="0px" y="0px" viewBox="0 0 512 512"
	 style="enable-background:new 0 0 512 512;" xml:space="preserve">
<style type="text/css">
	.st0{fill:#7878DC;}
</style>
<metadata>
	<sfw  xmlns="&ns_sfw;">
		<slices></slices>
		<sliceSourceBounds  bottomLeftOrigin="true" height="488" width="384" x="64" y="-500"></sliceSourceBounds>
	</sfw>
</metadata>
<path class="st0" d="M315.9,96.9c-60.8,15.2-93.1,81.3-124.8,134.6c-1.2,2,1.5,4,3.1,2.3c25.5-28,77.6-82,104.7-85.7
	c56.4-7.7,78.1,56.2,78.1,104.6c0,90-66.1,193.8-172,193.8c-5,0-9.7-0.4-14.2-0.9c-36.9-4.1-56.7-25-57.1-61.5
	c-0.5-21.8,2.4-38.2,5-51.7l62.5-309.9c2.1-10.5-12.9-14.9-16.8-5c-37.8,96.4-94.3,243.5-113,309.8c-5.8,20.5-7.5,45-7.5,64.6
	c-0.2,80.6,59.2,108,131.4,108C355.8,500,448,364.5,448,246C448,171.7,404.8,74.7,315.9,96.9z"/>
</svg>
